<?xml version="1.0" encoding="utf-8"?>
<!-- Generator: Adobe Illustrator 22.0.1, SVG Export Plug-In . SVG Version: 6.00 Build 0)  -->
<svg version="1.1" id="Capa_1" xmlns="http://www.w3.org/2000/svg" xmlns:xlink="http://www.w3.org/1999/xlink" x="0px" y="0px"
	 viewBox="0 0 282.2 282.1" style="enable-background:new 0 0 282.2 282.1;" xml:space="preserve">
<style type="text/css">
	.st0{fill:#FFFFFF;}
</style>
<g>
	<g>
		<path class="st0" d="M211.6,105.8C211.6,47.4,164.2,0,105.8,0S0,47.4,0,105.8s47.4,105.8,105.8,105.8
			C164.2,211.7,211.6,164.3,211.6,105.8L211.6,105.8z M105.8,185.2c-43.8,0-79.4-35.6-79.4-79.4S62,26.4,105.8,26.4
			s79.4,35.6,79.4,79.4S149.6,185.2,105.8,185.2L105.8,185.2z"/>
		<path class="st0" d="M274.4,237l-64.7-64.7c-9.6,15-22.4,27.8-37.4,37.4l64.7,64.7c10.3,10.3,27.1,10.3,37.4,0
			C284.8,264.1,284.8,247.4,274.4,237L274.4,237z"/>
	</g>
</g>
</svg>
