<?xml version="1.0" encoding="utf-8"?>
<!-- Generator: Adobe Illustrator 22.0.1, SVG Export Plug-In . SVG Version: 6.00 Build 0)  -->
<svg version="1.1" id="Capa_1" xmlns="http://www.w3.org/2000/svg" xmlns:xlink="http://www.w3.org/1999/xlink" x="0px" y="0px"
	 viewBox="0 0 322.6 322.6" style="enable-background:new 0 0 322.6 322.6;" xml:space="preserve">
<style type="text/css">
	.st0{fill:#6E6E6E;}
</style>
<g>
	<path class="st0" d="M269,322.6c-5.2-1.2-10.3-2.6-14.7-5.9c-8.7-6.6-12.4-15.5-12.4-26.2c0-48.5,0-97,0.1-145.5
		c0-2.9-0.9-4.7-3.1-6.6c-22.9-19.5-22.7-55.6,0.2-75.1c2-1.7,2.9-3.4,2.9-6.1c0-10.3-0.3-20.6,0.5-30.8
		c1.1-13.2,11.9-23.8,25.1-25.7c0.5-0.1,1-0.3,1.5-0.5c2.1,0,4.2,0,6.3,0c0.5,0.2,1,0.4,1.4,0.5c13.1,1.9,24,12.6,25,25.7
		c0.8,10.6,0.4,21.3,0.7,32c0,1.4,0.9,3.2,2,4.1c6.1,5.3,11.1,11.5,14,19c1.8,4.6,2.8,9.6,4.1,14.4c0,3.4,0,6.7,0,10.1
		c-0.2,1-0.5,2-0.7,3c-2,11.3-7.1,21.1-15.7,28.7c-2.9,2.6-3.9,5-3.9,8.8c0.1,48,0.1,96.1,0.1,144.1c0,10.7-3.8,19.6-12.4,26.2
		c-4.4,3.3-9.4,4.8-14.7,5.9C273.2,322.6,271.1,322.6,269,322.6z M282.3,150.8c-6.8,0-13.4,0-20.2,0c0,0.8,0,1.8,0,2.9
		c0,45.5,0,90.9,0,136.4c0,0.9,0,1.9,0,2.8c0.4,5.1,4.3,9.1,9.3,9.5c5,0.4,9.5-3,10.6-8c0.3-1.4,0.2-2.9,0.2-4.4
		c0-45.4,0-90.7,0-136.1C282.3,152.8,282.3,151.7,282.3,150.8z M241.9,100.9c0.1,16.3,14,30.1,30.3,30.1c16.3,0,30.2-13.9,30.2-30.2
		c0-16.4-14.1-30.5-30.4-30.3C255.6,70.8,241.9,84.6,241.9,100.9z M262.1,50.8c6.9,0,13.4,0,20.1,0c0-7.1,0.2-14.2-0.1-21.3
		c-0.2-5.3-4.8-9.3-10-9.3c-5.1,0-9.7,3.9-9.9,9.1C261.9,36.5,262.1,43.7,262.1,50.8z"/>
	<path class="st0" d="M164.4,0c5.2,1.2,10.3,2.6,14.7,5.9c8.7,6.6,12.4,15.5,12.4,26.2c0,48.5,0,97-0.1,145.5c0,2.9,0.9,4.7,3.1,6.6
		c23,19.8,22.7,55.8-0.5,75.3c-1.9,1.6-2.6,3.1-2.6,5.6c0,10.4,0.3,20.8-0.5,31.1c-1.1,13.2-11.9,23.8-25.1,25.7
		c-0.5,0.1-1,0.3-1.5,0.5c-2.1,0-4.2,0-6.3,0c-4.8-1.9-10.1-3.1-14.3-5.9c-8.8-5.9-12.7-14.8-12.7-25.3c-0.1-9,0.1-18.1-0.1-27.1
		c0-1.3-0.8-3-1.8-3.9c-24.3-20.7-24.4-56.5,0.1-77.1c1.6-1.4,1.8-2.8,1.8-4.6c0-48.9,0-97.9,0-146.8c0-13.1,5.6-23.1,17.6-28.9
		c3-1.4,6.3-2,9.5-3C160.2,0,162.3,0,164.4,0z M171.4,171.8c0-0.8,0-2,0-3.1c0-45.3,0-90.7,0-136c0-0.9,0-1.9,0-2.8
		c-0.4-5.5-4.7-9.7-10.1-9.6c-5.4,0-9.7,4.2-10,9.8c0,0.8,0,1.7,0,2.5c0,45.5,0,90.9,0,136.4c0,1.1,0,2.2,0,2.9
		C158.1,171.8,164.6,171.8,171.4,171.8z M191.5,221.8c0-16.3-13.8-30.1-30.1-30.2c-16.2-0.1-30.2,13.7-30.3,30
		c-0.2,16.4,13.9,30.5,30.3,30.4C177.7,251.9,191.5,238.1,191.5,221.8z M151.3,271.8c0,7.1-0.2,14.3,0.1,21.5
		c0.2,5.2,4.8,9.1,9.9,9.1c5,0,9.7-3.7,9.9-8.7c0.4-7.4,0.1-14.8,0.1-21.9C164.6,271.8,158.1,271.8,151.3,271.8z"/>
	<path class="st0" d="M53.6,0c4.8,1.9,10.1,3.1,14.3,5.9c8.8,5.9,12.7,14.8,12.7,25.3c0.1,9-0.1,18.1,0.1,27.1c0,1.3,0.8,3,1.8,3.9
		c24.3,20.9,24.3,56.5-0.1,77.1c-1.6,1.4-1.8,2.8-1.8,4.6c0,48.9,0,97.9,0,146.8c0,13.1-5.6,23.1-17.6,28.9c-3,1.4-6.3,2-9.5,3
		c-2.1,0-4.2,0-6.3,0c-3.2-1-6.6-1.5-9.5-3c-12.1-5.9-17.6-15.9-17.6-29.2c0-48.9,0-97.8,0-146.6c0-2.1-0.6-3.4-2.2-4.8
		c-6-4.9-10.8-10.9-13.6-18.2c-1.9-4.8-3-10-4.4-15c0-3.4,0-6.7,0-10.1c0.2-0.6,0.5-1.2,0.5-1.8c1.9-13,8.1-23.6,18.1-32.1
		c0.9-0.8,1.5-2.5,1.5-3.7c0.1-9,0-18,0.1-27c0.1-9.7,3.6-17.9,11.2-24.2C36,3,41.5,1.3,47.3,0C49.4,0,51.5,0,53.6,0z M40.3,150.8
		c0,0.8,0,1.9,0,3.1c0,45.4,0,90.7,0,136.1c0,1,0,2.1,0.1,3.1c0.5,5.3,4.8,9.3,10.1,9.3c5.3,0,9.6-4.1,10-9.4c0.1-0.9,0-1.9,0-2.8
		c0-45.5,0-90.9,0-136.4c0-1.1,0-2.2,0-2.9C53.6,150.8,47.1,150.8,40.3,150.8z M80.6,100.9c0.1-16.3-13.6-30.1-30-30.3
		c-16.3-0.2-30.5,13.8-30.4,30.2c0,16.3,13.8,30.1,30.2,30.2C66.6,131.1,80.5,117.3,80.6,100.9z M60.4,50.8c0-7.1,0.2-14.5-0.1-21.8
		c-0.2-5-4.8-8.8-9.8-8.9c-5-0.1-9.7,3.6-10,8.6c-0.4,7.4-0.1,14.8-0.1,22C47.2,50.8,53.7,50.8,60.4,50.8z"/>
</g>
</svg>
