<?xml version="1.0" encoding="utf-8"?>
<!-- Generator: Adobe Illustrator 22.1.0, SVG Export Plug-In . SVG Version: 6.00 Build 0)  -->
<svg version="1.1" id="Capa_1" xmlns="http://www.w3.org/2000/svg" xmlns:xlink="http://www.w3.org/1999/xlink" x="0px" y="0px"
	 viewBox="0 0 363.7 363.7" style="enable-background:new 0 0 363.7 363.7;" xml:space="preserve">
<style type="text/css">
	.st0{fill:#7F7F7F;}
</style>
<g id="Capa_2_1_">
</g>
<g>
	<path class="st0" d="M290.6,99H73.2c-2.9,0-5.2,2.3-5.2,5.2v155.3c0,2.9,2.3,5.2,5.2,5.2h217.4c2.9,0,5.2-2.3,5.2-5.2V104.2
		C295.8,101.3,293.4,99,290.6,99L290.6,99z M285.4,241.8l-64.1-64.1L214,185l69.3,69.3H80.5l69.3-69.3l-7.3-7.3l-64.1,64.1V109.4
		h207.1L285.4,241.8L285.4,241.8z"/>
	<path class="st0" d="M275,109.4l-93.1,93.1l-93.1-93.1H78.3v4.2l99.9,99.9c2,2,5.3,2,7.3,0l99.9-99.9v-4.2
		C285.4,109.4,275,109.4,275,109.4z"/>
</g>
</svg>
