<?xml version="1.0" encoding="utf-8"?>
<!-- Generator: Adobe Illustrator 22.0.1, SVG Export Plug-In . SVG Version: 6.00 Build 0)  -->
<svg version="1.1" id="Capa_1" xmlns="http://www.w3.org/2000/svg" xmlns:xlink="http://www.w3.org/1999/xlink" x="0px" y="0px"
	 viewBox="0 0 538 154.6" style="enable-background:new 0 0 538 154.6;" xml:space="preserve">
<style type="text/css">
	.st0{fill:#4470B4;}
</style>
<g>
	<path class="st0" d="M0,0v154.6h538V0H0z M533.6,150.7H4.4V4.9h529.3V150.7z"/>
	<g>
		<rect x="24.6" y="20.9" class="st0" width="28.2" height="28.2"/>
		<rect x="24.6" y="59.8" class="st0" width="28.2" height="71.5"/>
		<rect x="66.7" y="103.1" class="st0" width="28.2" height="28.2"/>
		<rect x="66.7" y="59.8" class="st0" width="28.2" height="32.6"/>
		<rect x="107.5" y="40.7" class="st0" width="28.2" height="28.2"/>
		<rect x="107.5" y="79.6" class="st0" width="28.2" height="51.7"/>
	</g>
	<g>
		<path class="st0" d="M171.5,105.5h-6.2v-45h6.2V105.5z"/>
		<path class="st0" d="M210.5,105.5h-6.2L187.2,72l-0.2,0.1v33.4h-6.3v-45h6.3l17.1,33.4l0.2-0.1V60.5h6.2V105.5z"/>
		<path class="st0" d="M219.3,105.5v-45h12.4c4.8,0,8.7,1.8,11.7,5.4c3,3.6,4.5,8.2,4.5,13.9v6.4c0,5.7-1.5,10.3-4.5,13.9
			c-3,3.6-6.9,5.4-11.7,5.4H219.3z M225.6,65.2v35.5h5.9c3.2,0,5.6-1.4,7.5-4.1c1.8-2.7,2.7-6.2,2.7-10.5v-6.5
			c0-4.3-0.9-7.7-2.7-10.4c-1.8-2.7-4.3-4-7.5-4H225.6z"/>
		<path class="st0" d="M261.6,105.5h-6.2v-45h6.2V105.5z"/>
		<path class="st0" d="M297.5,91.8l0.1,0.2c0,4.5-1.2,8-3.6,10.4s-5.7,3.7-10.1,3.7c-4.4,0-7.9-1.5-10.6-4.5c-2.6-3-4-7.1-4-12.4
			V76.8c0-5.3,1.3-9.5,3.9-12.5c2.6-3,6.1-4.5,10.4-4.5c4.4,0,7.8,1.2,10.2,3.6c2.4,2.4,3.6,5.9,3.6,10.6l-0.1,0.2h-5.9
			c-0.1-3.3-0.7-5.7-1.9-7.3c-1.2-1.6-3.2-2.3-5.8-2.3c-2.6,0-4.6,1-6,3.1c-1.4,2.1-2.1,5.1-2.1,8.9v12.6c0,3.9,0.7,6.9,2.2,9
			c1.5,2.1,3.5,3.1,6.1,3.1c2.6,0,4.5-0.8,5.7-2.3c1.2-1.5,1.8-3.9,1.9-7.3H297.5z"/>
		<path class="st0" d="M324.8,94.1h-14.4l-3.3,11.4h-6.4l13.9-45h6.1l13.7,45h-6.4L324.8,94.1z M311.9,89.1h11.5l-5.6-19.7h-0.2
			L311.9,89.1z"/>
		<path class="st0" d="M339.5,105.5v-45h12.4c4.8,0,8.7,1.8,11.7,5.4c3,3.6,4.5,8.2,4.5,13.9v6.4c0,5.7-1.5,10.3-4.5,13.9
			c-3,3.6-6.9,5.4-11.7,5.4H339.5z M345.8,65.2v35.5h5.9c3.2,0,5.6-1.4,7.5-4.1c1.8-2.7,2.7-6.2,2.7-10.5v-6.5
			c0-4.3-0.9-7.7-2.7-10.4c-1.8-2.7-4.3-4-7.5-4H345.8z"/>
		<path class="st0" d="M403.9,89.2c0,5.3-1.4,9.5-4.1,12.5c-2.8,3-6.5,4.5-11.1,4.5c-4.6,0-8.2-1.5-10.9-4.5s-4.1-7.1-4.1-12.5V76.8
			c0-5.3,1.4-9.5,4.1-12.5c2.7-3,6.3-4.5,10.9-4.5c4.6,0,8.3,1.5,11.1,4.5c2.8,3,4.2,7.2,4.2,12.5V89.2z M397.6,76.7
			c0-3.9-0.8-6.9-2.4-8.9c-1.6-2-3.8-3-6.6-3c-2.8,0-5,1-6.5,3c-1.5,2-2.3,5-2.3,8.9v12.5c0,4,0.8,7,2.3,9c1.5,2,3.7,3.1,6.5,3.1
			c2.9,0,5.1-1,6.7-3c1.6-2,2.3-5,2.3-9V76.7z"/>
		<path class="st0" d="M417.4,86.1v19.4h-6.3v-45h14c4.3,0,7.6,1.1,9.9,3.3c2.3,2.2,3.5,5.4,3.5,9.5c0,2.4-0.5,4.4-1.6,6.2
			c-1.1,1.8-2.6,3.1-4.7,4.1c2.2,0.8,3.9,2.1,4.9,3.9c1,1.8,1.5,4.1,1.5,6.8v3.9c0,1.4,0.1,2.7,0.4,3.9c0.3,1.2,0.8,2.1,1.4,2.8v0.7
			h-6.5c-0.7-0.7-1.1-1.7-1.3-3.1c-0.2-1.4-0.3-2.8-0.3-4.4v-3.8c0-2.5-0.6-4.5-1.7-6c-1.1-1.5-2.7-2.2-4.7-2.2H417.4z M417.4,81.3
			h7.4c2.5,0,4.4-0.7,5.6-2.1c1.2-1.4,1.8-3.3,1.8-5.8c0-2.6-0.6-4.6-1.8-6c-1.2-1.4-3-2.1-5.3-2.1h-7.7V81.3z"/>
		<path class="st0" d="M470,84.5h-16.7v16.2h19.4v4.8H447v-45h25.5v4.8h-19.2v14.6H470V84.5z"/>
		<path class="st0" d="M499.1,94.1c0-2.1-0.6-3.9-1.8-5.2c-1.2-1.4-3.3-2.6-6.3-3.6c-4.3-1.3-7.6-3-9.9-5.1
			c-2.3-2.1-3.4-4.9-3.4-8.3c0-3.5,1.3-6.5,3.8-8.7c2.5-2.3,5.8-3.4,9.8-3.4c4.2,0,7.5,1.3,10.1,3.9c2.5,2.6,3.8,5.8,3.7,9.5
			l-0.1,0.2h-6c0-2.6-0.7-4.8-2-6.4c-1.4-1.6-3.3-2.5-5.7-2.5c-2.3,0-4.1,0.7-5.4,2.1c-1.3,1.4-1.9,3.1-1.9,5.2c0,1.9,0.7,3.5,2,4.8
			c1.4,1.3,3.6,2.5,6.7,3.6c4.1,1.3,7.2,3,9.4,5.2c2.1,2.2,3.2,5.1,3.2,8.6c0,3.7-1.3,6.6-3.8,8.8c-2.5,2.2-5.9,3.3-10,3.3
			c-4,0-7.5-1.2-10.5-3.6c-3-2.4-4.4-5.7-4.3-10.1l0.1-0.2h6c0,3.1,0.8,5.4,2.4,6.8c1.6,1.5,3.7,2.2,6.4,2.2c2.4,0,4.2-0.7,5.5-2
			C498.4,98.1,499.1,96.3,499.1,94.1z"/>
	</g>
</g>
<g>
</g>
<g>
</g>
<g>
</g>
<g>
</g>
<g>
</g>
<g>
</g>
</svg>
