<svg id="Capa_1" data-name="Capa 1" xmlns="http://www.w3.org/2000/svg" viewBox="0 0 81.2 100"><defs><style>.cls-1{fill:#232322;}.cls-2{fill:#222221;}</style></defs><title>Mesa de trabajo 10</title><path class="cls-1" d="M61.09,20.14V58.68a20.49,20.49,0,0,1-41,0V20.14h41m1-1H19.12V58.68a21.48,21.48,0,0,0,43,0V19.16Z"/><path class="cls-1" d="M21.37,15.92l1.52-4.66-4-2.89h4.91L25.34,3.7l1.52,4.67h4.91l-4,2.89,1.52,4.66-4-2.88Zm4-3.61,2.86,2.07L27.11,11,30,9H26.43L25.34,5.61,24.25,9H20.73L23.59,11l-1.1,3.35Z"/><path class="cls-1" d="M36.66,15.92l1.52-4.66-4-2.89h4.9L40.63,3.7l1.52,4.67h4.91l-4,2.89,1.51,4.66-4-2.88ZM36,9,38.87,11l-1.09,3.35,2.85-2.07,2.85,2.07L42.39,11,45.25,9H41.72L40.63,5.61,39.54,9Z"/><path class="cls-1" d="M52,15.92l1.52-4.66-4-2.89h4.91L55.92,3.7l1.52,4.67h4.91l-4,2.89,1.51,4.66-4-2.88Zm4-3.61,2.85,2.07L57.69,11,60.54,9H57L55.92,5.61,54.83,9H51.31L54.16,11l-1.09,3.35Z"/><path class="cls-1" d="M67.24,15.92l1.52-4.66-4-2.89h4.91L71.21,3.7l1.52,4.67h4.91l-4,2.89,1.51,4.66-4-2.88ZM66.6,9,69.45,11l-1.09,3.35,2.85-2.07,2.85,2.07L73,11,75.82,9H72.3L71.21,5.61,70.12,9Z"/><path class="cls-1" d="M6.08,15.92,7.6,11.26l-4-2.89H8.54L10.05,3.7l1.52,4.67h4.91l-4,2.89L14,15.92l-4-2.88ZM5.44,9,8.29,11,7.2,14.38l2.85-2.07,2.85,2.07L11.81,11,14.67,9H11.14L10.05,5.61,9,9Z"/><path class="cls-1" d="M75.18,33.27l-4-2.88-4,2.88,1.52-4.66-4-2.89h4.91l1.52-4.67,1.52,4.67h4.91l-4,2.89Zm-4-3.61,2.85,2.07L73,28.38l2.85-2.07H72.3L71.21,23l-1.09,3.35H66.6l2.85,2.07-1.09,3.35Z"/><path class="cls-1" d="M6.08,33.27,7.6,28.61l-4-2.89H8.54l1.51-4.67,1.52,4.67h4.91l-4,2.89L14,33.27l-4-2.88Zm4-3.61,2.85,2.07-1.09-3.35,2.86-2.07H11.14L10.05,23,9,26.31H5.44l2.85,2.07L7.2,31.73Z"/><path class="cls-1" d="M71.73,52.6a14.37,14.37,0,0,1,1.12,5.31,15.4,15.4,0,0,0-3.24,2.34,12.22,12.22,0,0,1,2.12-7.65M66.62,59a6.83,6.83,0,0,0,1.88,2.41,20.89,20.89,0,0,0-2.63,3.66A10.76,10.76,0,0,1,66.62,59m5.12-7.4a12.88,12.88,0,0,0-2.66,9.5,7.21,7.21,0,0,1-2.42-3.43,11.52,11.52,0,0,0-1,9.12q3-6.09,7.86-8.52c-.25-3.5-.83-5.73-1.73-6.67Z"/><path class="cls-1" d="M73.52,61.61a8.32,8.32,0,0,1-2.18,6.74,20.25,20.25,0,0,0-.79-4.8,14.06,14.06,0,0,0,3-1.94M74,60.45a13.8,13.8,0,0,1-4.16,2.76,20.59,20.59,0,0,1,1,6.43Q74.9,66.31,74,60.45Z"/><path class="cls-1" d="M76.92,59.3A10.36,10.36,0,0,1,75.77,64c0-.92,0-2.06-.07-3.5v-.42c.3-.18.78-.47,1.23-.78m.54-1.19a13.11,13.11,0,0,1-2.37,1.63c.1,3.46.19,5.3-.14,6.45a10.49,10.49,0,0,0,2.51-8.08Z"/><path class="cls-1" d="M68.33,66.52a9.91,9.91,0,0,1,.18,7.18,9.17,9.17,0,0,1-2.91.58h-.25c.14-1.77,1.14-4.37,3-7.75m0-1.26q-3.67,6.49-3.6,9.54a4.64,4.64,0,0,0,.85.07A9.84,9.84,0,0,0,69,74.15a10.46,10.46,0,0,0-.64-8.89Z"/><path class="cls-1" d="M74,68.59a8.11,8.11,0,0,1-2.78,5.86,9.59,9.59,0,0,0-.06-3A17.77,17.77,0,0,0,74,68.59m.5-1.58a18.93,18.93,0,0,1-4,4.14,10,10,0,0,1-.17,4.79q4.86-3.57,4.16-8.93Z"/><path class="cls-1" d="M63.12,70.14A8.68,8.68,0,0,1,63.41,74a6.88,6.88,0,0,1-1.75.36,14.47,14.47,0,0,1,1.46-4.2m-.06-1.06A15,15,0,0,0,61,74.89a2.92,2.92,0,0,0,.54,0A7.74,7.74,0,0,0,64,74.41c.26-2.91,0-4.69-.91-5.33Z"/><path class="cls-1" d="M62.67,76.62a31.23,31.23,0,0,1,6,.73,19.19,19.19,0,0,1-7.9,3.71,9.42,9.42,0,0,0-.06-4.3,12.62,12.62,0,0,1,1.94-.14m0-.59A11.8,11.8,0,0,0,60,76.3a9.05,9.05,0,0,1,0,5.53A19.77,19.77,0,0,0,70,77a34.33,34.33,0,0,0-7.31-1Z"/><path class="cls-1" d="M58.39,76.2c1.27,2.73,1,5-.8,7a7.86,7.86,0,0,0-3.51-.89,18.9,18.9,0,0,1,4.31-6.14m.17-1a19.48,19.48,0,0,0-5.35,7.66A7.43,7.43,0,0,1,57.67,84q3.69-3.63.89-8.76Z"/><path class="cls-1" d="M66.55,81.86h.19a7.75,7.75,0,0,1-3.85,4.39,10.62,10.62,0,0,0-3.24-2.34,11.65,11.65,0,0,1,6.9-2m0-.59a12,12,0,0,0-8,2.76,10,10,0,0,1,4.18,3,8.42,8.42,0,0,0,4.78-5.72l-1,0Z"/><path class="cls-1" d="M53.47,85.31A13.82,13.82,0,0,1,60,87.11a14.24,14.24,0,0,1-4.83.65c-.59,0-1.22,0-1.88-.06l.18-2.39m-.54-.6-.27,3.55c.89.06,1.73.09,2.51.09q4.21,0,6-1.17a14.3,14.3,0,0,0-8.27-2.47Z"/><path class="cls-1" d="M52,81.4c.42,1.83-.27,4.12-2.07,6.81l-.56.85,1,.07c3,.2,5.15.91,6.25,2.13a10.82,10.82,0,0,1-3.28.54,9.79,9.79,0,0,1-6.11-2.25l-.14-.11h-.46a10.13,10.13,0,0,0-3.19.73l-1.88.68,2,.45a5.91,5.91,0,0,1,2.41,1.34,6.21,6.21,0,0,0-.75.65A11,11,0,0,0,41,91.08L40.76,91l-.2.09a14.58,14.58,0,0,0-4.1,3,9.57,9.57,0,0,0-1.28-.38,24,24,0,0,1,3.68-2.64l.94-.59-1-.45a6.31,6.31,0,0,0-2.4-.34h-.14l-.12,0a12.54,12.54,0,0,1-5.43,1.38A9.53,9.53,0,0,1,25,89.24a13.38,13.38,0,0,1,4.2-.59A27.73,27.73,0,0,1,33.1,89l1.81.26L33.59,88a10.25,10.25,0,0,1-3.27-6.24,9.41,9.41,0,0,1,6,7.23l.11.48.5,0h.28a6,6,0,0,1,2.54.67c.28.12.57.24.87.35l.23.09.22-.1A20.94,20.94,0,0,1,46.4,89l.39,0,.11-.38c1-3.69,2.74-6.1,5.07-7.16m.37-.78q-4.23,1.47-6,7.78a21.51,21.51,0,0,0-5.52,1.45,9.41,9.41,0,0,0-3.61-1.06h-.32a10,10,0,0,0-7.22-8,10.66,10.66,0,0,0,3.52,7.53,28.82,28.82,0,0,0-3.95-.31,12.52,12.52,0,0,0-5.37,1,10.37,10.37,0,0,0,6.84,2.67,13.2,13.2,0,0,0,5.68-1.43,5.76,5.76,0,0,1,2.17.29Q34.73,93,34.07,94.15a8.35,8.35,0,0,1,2.52.67,14.62,14.62,0,0,1,4.22-3.17,10.23,10.23,0,0,1,4.38,2.45,5.44,5.44,0,0,1,1.72-1.39,7.59,7.59,0,0,0-3.28-2,9.68,9.68,0,0,1,3-.69h.24a10.3,10.3,0,0,0,6.47,2.37,11.69,11.69,0,0,0,4.22-.84q-1.53-2.64-7.16-3,3.16-4.74,2-7.92Z"/><path class="cls-1" d="M25,84.73a12.76,12.76,0,0,1,3.94.68,5.15,5.15,0,0,0-.94.92,12.79,12.79,0,0,1-3.75.6,9.9,9.9,0,0,1-4.06-.86A9.16,9.16,0,0,1,25,84.73m0-.59a9.76,9.76,0,0,0-6,2,10.4,10.4,0,0,0,5.22,1.38,13.53,13.53,0,0,0,4.13-.69,5.52,5.52,0,0,1,1.83-1.58A14,14,0,0,0,25,84.14Z"/><path class="cls-1" d="M22.84,78.09a7.88,7.88,0,0,1,4.53,3.43,10.34,10.34,0,0,0-1.08-.06,6,6,0,0,0-2.41.44,6.85,6.85,0,0,1-1-3.81m-.54-.7a7.52,7.52,0,0,0,1.38,5.28,4.8,4.8,0,0,1,2.61-.62,12.28,12.28,0,0,1,2.27.24c-1.69-2.92-3.77-4.56-6.26-4.9Z"/><path class="cls-1" d="M15.08,82.21a11.44,11.44,0,0,1,4.37,1.13,4.3,4.3,0,0,0-1.36,1.51,11.09,11.09,0,0,1-3-2.64m-.7-.61h-.29q.67,1.89,4.25,4.11a3.81,3.81,0,0,1,2.37-2.36,11.91,11.91,0,0,0-6.33-1.76Z"/><path class="cls-1" d="M13,76.36a41.15,41.15,0,0,1,6.49.68,9.32,9.32,0,0,0,.71,3.83,17.33,17.33,0,0,1-8.09-4.49c.27,0,.57,0,.89,0m0-.59a10.68,10.68,0,0,0-2.12.17,18,18,0,0,0,10.33,5.77,9.16,9.16,0,0,1-1.09-5.16A43.26,43.26,0,0,0,13,75.77Z"/><path class="cls-1" d="M18.73,70.89a6.76,6.76,0,0,1,3.58,3.89,7.74,7.74,0,0,0-1.78.53,11.6,11.6,0,0,1-1.8-4.42M18,70.08a12.31,12.31,0,0,0,2.33,6,6.85,6.85,0,0,1,2.79-.85Q21.39,70.73,18,70.08Z"/><path class="cls-1" d="M14.12,66.52a22.8,22.8,0,0,1,2.61,7.33,12.66,12.66,0,0,0-1.62-.13h-.26a18.73,18.73,0,0,1-.73-7.21M13.8,65a18,18,0,0,0,.62,9.39,4.93,4.93,0,0,1,.69,0,13.29,13.29,0,0,1,2.35.26A22.46,22.46,0,0,0,13.8,65Z"/><path class="cls-1" d="M6.65,67.92A13.61,13.61,0,0,1,11,69.53a10.73,10.73,0,0,0-.28,3.87,15.55,15.55,0,0,1-4.07-5.48m-.88-.77q1.11,3.94,5.76,7.72a10.88,10.88,0,0,1,.16-5.59,14.71,14.71,0,0,0-5.92-2.13Z"/><path class="cls-1" d="M15.25,57.78a17,17,0,0,1,.17,5.79A7.17,7.17,0,0,0,14,63.29V63a9.31,9.31,0,0,1,1.3-5.23M9.41,61.57A13.09,13.09,0,0,1,13,63.47c-.43.31-1,1-1.65,3a14,14,0,0,1-1.92-4.94m6-5a9.36,9.36,0,0,0-2,6.43,11.16,11.16,0,0,0-4.65-2.2,14.74,14.74,0,0,0,2.81,7c.71-2.38,1.36-3.72,2-4a6.59,6.59,0,0,1,2.46.52c.43-3.82.25-6.41-.53-7.79Z"/><path class="cls-1" d="M10.13,53.19A10.41,10.41,0,0,1,12,59.83,19.18,19.18,0,0,0,9.45,59l0-1a15.5,15.5,0,0,1,.66-4.85m-4.42,3A7.56,7.56,0,0,1,8.43,58.4l.4.48a5.89,5.89,0,0,0-.69-.05H7.87L7.7,59a7,7,0,0,0-1.51,3.65c-1.18-1.83-1.33-4-.48-6.55m4.32-4Q9,53.4,8.89,58A7.17,7.17,0,0,0,5.34,55.4q-2,5.34,1.33,8.84a7.29,7.29,0,0,1,1.48-4.82h0a13,13,0,0,1,4.36,1.28c.22-3.73-.62-6.57-2.5-8.52Z"/><path class="cls-1" d="M45.74,36.61H36l-.08-.09c-2-2-1.54-4.05-1.18-5.67a4.54,4.54,0,0,0,.15-2.27l-.13-.41.42,0c.66,0,1.05.67,1.47,1.37.11.19.23.38.35.56a7.9,7.9,0,0,1,1.37-4,6.36,6.36,0,0,0,.9-2.09l.11-.73.43.6a4.83,4.83,0,0,1,.65,3.87,9.67,9.67,0,0,0-.12,1.3,12.52,12.52,0,0,1,1.41-2.62,5,5,0,0,0,1.18-3l0-.87.56.67c1.2,1.44.86,3.33.52,5.15-.27,1.47-.52,2.86,0,4a5.87,5.87,0,0,0,.35-.71,2.86,2.86,0,0,1,1.56-1.84l.48-.16-.09.5a3.29,3.29,0,0,0,.23,1.65,4.78,4.78,0,0,1-.66,4.71Zm-9.5-.6h9.17a4.1,4.1,0,0,0,.51-4,5.16,5.16,0,0,1-.3-1.36,3.48,3.48,0,0,0-.76,1.26,4,4,0,0,1-.71,1.22l-.25.27-.21-.3c-.95-1.36-.63-3.1-.32-4.79a7.33,7.33,0,0,0,.06-3.91,7.08,7.08,0,0,1-1.2,2.41,10,10,0,0,0-1.7,3.77l-.22,1.07-.36-1a6,6,0,0,1-.11-2.9,4.92,4.92,0,0,0-.18-2.84,9.69,9.69,0,0,1-.8,1.57A7,7,0,0,0,37.61,31l.07.75-.57-.49a5.71,5.71,0,0,1-1-1.34,6.28,6.28,0,0,0-.55-.83A7.54,7.54,0,0,1,35.31,31C35,32.59,34.59,34.25,36.24,36Z"/><path class="cls-1" d="M44.37,29.52l.42-.93A5.81,5.81,0,0,0,45,23.52l-.36-.9.8.54A3.59,3.59,0,0,1,47.27,26c0,.74-.37,1.85-2,2.93Zm1.52-5.21a6,6,0,0,1-.15,3.51A2.59,2.59,0,0,0,46.67,26,2.51,2.51,0,0,0,45.89,24.31Z"/><path class="cls-1" d="M44.37,38.25l.47,1h-8l.47-1h7.09m.38-.6H36.91l-.16.33-.47,1-.43.86h10l-.43-.86-.47-1-.16-.33Z"/><path class="cls-1" d="M45.24,41.44l.47,1H36l.47-1h8.82m.37-.6H36.05l-.17.34-.47,1L35,43H46.67l-.42-.87-.47-1-.17-.34Z"/><path class="cls-1" d="M44.41,44.32l-1,4.26H38.25l-1-4.26h7.17m.76-.6H36.48l.18.74,1,4.26.11.46h6.1l.11-.46,1-4.26.17-.74Z"/><path class="cls-1" d="M46.51,52.13a1,1,0,0,1-.66-.23h-10a1.05,1.05,0,0,1-1.71-.81,1,1,0,0,1,1-1.05,1,1,0,0,1,.66.23h10a1,1,0,0,1,.66-.23,1,1,0,1,1,0,2.09ZM35.56,51.3H46.1l.09.09a.43.43,0,0,0,.32.14.45.45,0,1,0,0-.89.46.46,0,0,0-.32.13l-.09.1H35.56l-.08-.09a.47.47,0,0,0-.33-.14.45.45,0,1,0,0,.89.47.47,0,0,0,.33-.14Z"/><path class="cls-1" d="M40.82,76.53a1.21,1.21,0,0,1-.71-2.18L38,55.48a2.84,2.84,0,1,1,5.68,0L41.54,74.37a1.19,1.19,0,0,1,.49,1A1.21,1.21,0,0,1,40.82,76.53Zm0-23.32a2.24,2.24,0,0,0-2.24,2.24l2.16,19.23-.19.09a.66.66,0,0,0-.34.56.61.61,0,0,0,1.21,0,.59.59,0,0,0-.34-.53l-.19-.09,0-.21,2.15-19.09A2.24,2.24,0,0,0,40.83,53.21Z"/><path class="cls-2" d="M0,0V59.4a40.6,40.6,0,1,0,81.19,0V0ZM80.23,59.4A39.64,39.64,0,1,1,1,59.4V1H80.24Z"/></svg>