<svg id="Capa_1" data-name="Capa 1" xmlns="http://www.w3.org/2000/svg" viewBox="0 0 97.73 100"><title>Mesa de trabajo 2</title><path d="M15.37,9.12,1.58,19V10.14L15.37.15l13.78,10V19Z"/><rect x="10.39" y="19" width="9.95" height="9.99"/><path d="M48.79,9.06l-13.93,10v-9L48.79,0,62.72,10.1v9Z"/><rect x="43.76" y="19.05" width="10.05" height="10.09"/><path d="M82.27,9.06l-13.93,10v-9L82.27,0,96.2,10.1v9Z"/><path d="M82.27,23.69l-13.93,10V24.73l13.93-10.1L96.2,24.73v8.94Z"/><path d="M14.71,50.07H13.26c-.93-1.8-2-2.62-3.69-2.62-3.06,0-5.06,2.65-5.06,7.25s2,7.36,5,7.36a3.8,3.8,0,0,0,3.77-2.6h1.45v4.27a8.14,8.14,0,0,1-4.92,1.56C4.07,65.29.65,61.4.65,54.75c0-6.37,3.58-10.39,8.51-10.39A11.38,11.38,0,0,1,14.71,46Z"/><path d="M29.82,44.68v3.2H22.07v4.93h6.87v2.9H22.07v6.1h8V65H18.27V44.68Z"/><path d="M33.48,65V44.68H37.4c3.12,0,5.52.25,7.68,2s3.23,4.49,3.23,8.07c0,3.92-1.12,6.71-3.58,8.48C42.54,64.82,40.21,65,37.4,65Zm3.81-3.12c.49,0,.84,0,1.06,0,4.13,0,6.16-2.33,6.16-7.09s-2.11-7-6.46-7c-.24,0-.49,0-.76,0Z"/><path d="M63.28,44.68v3.2H55.54v4.93H62.4v2.9H55.54v6.1h8V65H51.73V44.68Z"/><path d="M66.94,44.68h3.81V57.35c0,3.1.44,4.74,3.23,4.74,2.38,0,3.25-1.29,3.25-4.19V44.68H81V57.54c0,2.17-.14,3.86-1.26,5.31A7.14,7.14,0,0,1,74,65.29a7.16,7.16,0,0,1-5.82-2.44c-1.13-1.45-1.24-3.14-1.24-5.31Z"/><path d="M85.3,59.54A5,5,0,0,0,90,62c2.38,0,3.72-1,3.72-2.62s-1.45-2.25-4.15-3.26c-3.7-1.37-5.48-2.63-5.48-5.74,0-3.56,2.85-5.94,6.9-5.94a13.28,13.28,0,0,1,5.42,1.2v4H95a4,4,0,0,0-3.72-2.27c-1.88,0-3.17,1.23-3.17,2.6,0,1.81,1.64,2.25,4.08,3.15,3.8,1.42,5.5,3,5.5,6.1,0,3.37-2.77,6-7.14,6a11.19,11.19,0,0,1-6.9-2.06V59.54Z"/><path d="M5.38,82.39v1.22A4,4,0,0,1,3,84.44c-1.87,0-3-1.59-3-4.48s1.22-4.38,3.14-4.38a4.06,4.06,0,0,1,2.24.8v1.18H4.73A1.68,1.68,0,0,0,3.1,76.34C1.75,76.34,1,77.63,1,80.08s.78,3.57,2.1,3.57a1.61,1.61,0,0,0,1.62-1.26Z"/><path d="M7.26,81.39v.15c0,1.39.64,2.16,1.6,2.16A1.7,1.7,0,0,0,10.31,83H11v.7a3,3,0,0,1-2.14.78c-1.64,0-2.51-1.14-2.51-3.32s.9-3.36,2.34-3.36S11,78.94,11,81.14v.25ZM10,80.68c-.07-1.44-.59-2.21-1.39-2.21s-1.34.75-1.38,2.21Z"/><path d="M13.32,77.94v.53l.13,0a1.53,1.53,0,0,1,1.37-.73c1.16,0,1.72.74,1.72,2.21v4.25h-.91V80.3c0-1.17-.17-1.79-1-1.79a1.62,1.62,0,0,0-1.27.69v5h-.91v-6.3Z"/><path d="M20.63,77.94v.71H19.21v3.92c0,.86,0,.92.81.92h.61v.75h-1c-1.17,0-1.34-.46-1.34-1.93V78.65h-.76v-.71h.76V76h.9v2Z"/><path d="M22.67,77.94v.5a1.85,1.85,0,0,1-.1.68l.15.09a2.23,2.23,0,0,1,2-1.27h.06v1a2.86,2.86,0,0,0-2.15.9v4.39h-.89v-6.3Z"/><path d="M30.41,81.1c0,2.18-.85,3.34-2.33,3.34s-2.34-1.21-2.34-3.39.91-3.29,2.34-3.29S30.41,79,30.41,81.1ZM26.69,81c0,1.82.49,2.75,1.39,2.75s1.39-.92,1.39-2.62-.56-2.63-1.39-2.63S26.69,79.38,26.69,81Z"/><path d="M38,83.71l-.14,0a1.58,1.58,0,0,1-1.36.76c-1.16,0-2-1.24-2-3.38s.81-3.3,2-3.3a1.58,1.58,0,0,1,1.36.76l.14,0V75.41h.9v8.83H38Zm0-4.5a1.56,1.56,0,0,0-1.18-.67c-.88,0-1.35.86-1.35,2.55s.47,2.58,1.35,2.58A1.56,1.56,0,0,0,38,83Z"/><path d="M41.1,81.39v.15c0,1.39.63,2.16,1.59,2.16A1.74,1.74,0,0,0,44.15,83h.63v.7a3,3,0,0,1-2.14.78c-1.63,0-2.5-1.14-2.5-3.32s.89-3.36,2.33-3.36,2.34,1.18,2.34,3.38v.25Zm2.76-.71c-.06-1.44-.58-2.21-1.39-2.21s-1.33.75-1.37,2.21Z"/><path d="M51,75.77c2.58,0,3.76,1.4,3.76,4.23S53.52,84.24,51,84.24h-1.9V75.77Zm-.89,7.75.57,0c2.2,0,3.06-1.07,3.06-3.6s-.9-3.45-3.09-3.45h-.54Z"/><path d="M56.77,81.39v.15c0,1.39.63,2.16,1.59,2.16A1.7,1.7,0,0,0,59.81,83h.64v.7a3,3,0,0,1-2.14.78c-1.64,0-2.5-1.14-2.5-3.32s.89-3.36,2.33-3.36,2.33,1.18,2.33,3.38v.25Zm2.76-.71c-.07-1.44-.59-2.21-1.39-2.21s-1.34.75-1.37,2.21Z"/><path d="M62.12,82.76a1.57,1.57,0,0,0,1.49.87c.78,0,1.26-.44,1.26-1,0-.93-.83-.92-2-1.33a1.79,1.79,0,0,1-1.22-1.66,1.88,1.88,0,0,1,2.06-1.83,2.64,2.64,0,0,1,1.82.71v.91H65a1.33,1.33,0,0,0-1.28-.88,1.08,1.08,0,0,0-1.17,1c0,.59.48.87,1.43,1.16,1.26.37,1.84.86,1.84,1.81a1.93,1.93,0,0,1-2.17,1.92,3.14,3.14,0,0,1-2.07-.74v-.91Z"/><path d="M71.25,84.24h-.91v-.53h-.11a2.18,2.18,0,0,1-1.59.73,1.86,1.86,0,0,1-1.92-1.82c0-1.31,1.21-2.13,3.59-2.32,0-.14,0-.27,0-.4,0-1-.37-1.44-1.23-1.44a1.26,1.26,0,0,0-1.33.91h-.65v-1a3.6,3.6,0,0,1,2-.62,2.16,2.16,0,0,1,1.82.8,3.28,3.28,0,0,1,.31,1.93Zm-.92-3.38c-1.76.14-2.67.78-2.67,1.67a1.14,1.14,0,0,0,1.27,1.13,2,2,0,0,0,1.4-.62Z"/><path d="M73.79,77.94v.5a1.85,1.85,0,0,1-.1.68l.15.09a2.23,2.23,0,0,1,2-1.27H76v1a2.87,2.87,0,0,0-2.16.9v4.39H72.9v-6.3Z"/><path d="M78.11,77.94v.5a1.85,1.85,0,0,1-.1.68l.15.09a2.23,2.23,0,0,1,2-1.27h.06v1a2.86,2.86,0,0,0-2.15.9v4.39h-.89v-6.3Z"/><path d="M85.85,81.1c0,2.18-.85,3.34-2.33,3.34s-2.33-1.21-2.33-3.39.9-3.29,2.33-3.29S85.85,79,85.85,81.1ZM82.13,81c0,1.82.49,2.75,1.39,2.75s1.39-.92,1.39-2.62-.56-2.63-1.39-2.63S82.13,79.38,82.13,81Z"/><path d="M88.19,75.41v8.83h-.9V75.41Z"/><path d="M90.89,75.41v8.83H90V75.41Z"/><path d="M97,81.1c0,2.18-.86,3.34-2.34,3.34s-2.33-1.21-2.33-3.39.91-3.29,2.33-3.29S97,79,97,81.1ZM93.29,81c0,1.82.49,2.75,1.38,2.75s1.39-.92,1.39-2.62-.56-2.63-1.39-2.63S93.29,79.38,93.29,81Z"/><path d="M3.93,96.81c0,1.66.34,2.39,1.67,2.39s1.68-.61,1.68-2V91.34h.9v5A7.74,7.74,0,0,1,8,98.55,2.27,2.27,0,0,1,5.6,100a2.31,2.31,0,0,1-2.45-1.45A7.74,7.74,0,0,1,3,96.38v-5h1Z"/><path d="M10.88,93.5V94a1.81,1.81,0,0,1-.1.67l.15.09a2.23,2.23,0,0,1,2-1.27H13v1a2.94,2.94,0,0,0-2.15.9v4.4H10V93.5Z"/><path d="M15.06,91v3.08l.13,0a1.59,1.59,0,0,1,1.37-.77c1.14,0,2,1.25,2,3.32s-.79,3.36-2,3.36a1.55,1.55,0,0,1-1.37-.77l-.13,0v.55h-.9V91Zm0,7.58a1.57,1.57,0,0,0,1.18.68c.88,0,1.33-.86,1.33-2.58s-.45-2.55-1.33-2.55a1.56,1.56,0,0,0-1.18.67Z"/><path d="M24.17,99.81h-.9v-.54h-.12a2.12,2.12,0,0,1-1.58.73,1.85,1.85,0,0,1-1.92-1.82c0-1.31,1.2-2.12,3.58-2.32,0-.14,0-.27,0-.4,0-1-.36-1.44-1.23-1.44a1.24,1.24,0,0,0-1.32.91H20v-1a3.58,3.58,0,0,1,2-.62,2.15,2.15,0,0,1,1.81.8,3.3,3.3,0,0,1,.31,1.94Zm-.92-3.39c-1.76.14-2.67.78-2.67,1.67a1.14,1.14,0,0,0,1.27,1.13,1.94,1.94,0,0,0,1.4-.62Z"/><path d="M26.73,93.5V94l.13,0a1.54,1.54,0,0,1,1.37-.72c1.16,0,1.72.74,1.72,2.2v4.26H29v-4c0-1.16-.17-1.79-1-1.79a1.62,1.62,0,0,0-1.27.69v5h-.91V93.5Z"/><path d="M35.9,96.67c0,2.18-.86,3.33-2.34,3.33s-2.33-1.21-2.33-3.39.91-3.29,2.33-3.29S35.9,94.53,35.9,96.67Zm-3.72-.13c0,1.81.49,2.75,1.38,2.75S35,98.37,35,96.67,34.39,94,33.56,94,32.18,94.94,32.18,96.54Z"/><path d="M40.51,98.18a1.67,1.67,0,0,0,1.63,1.07,1.55,1.55,0,0,0,1.68-1.56c0-1.08-.79-1.31-2.07-1.94s-1.9-1.26-1.9-2.42a2.22,2.22,0,0,1,2.36-2.19,3.49,3.49,0,0,1,2.25.72v1.06h-.69a1.64,1.64,0,0,0-1.47-1,1.42,1.42,0,0,0-1.46,1.43c0,.72.45,1.16,1.35,1.57a6.56,6.56,0,0,1,1.92,1.06,2.34,2.34,0,0,1,.72,1.69C44.83,99,43.71,100,42,100a4.54,4.54,0,0,1-2.18-.58V98.18Z"/><path d="M49.26,99.81v-.54l-.15,0a1.52,1.52,0,0,1-1.37.73,1.61,1.61,0,0,1-1.6-1.1A5.49,5.49,0,0,1,46,97.21V93.5h.9v3.94c0,1.17.19,1.79,1.06,1.79a1.7,1.7,0,0,0,1.29-.68v-5h.89v6.31Z"/><path d="M52.12,98.33a1.57,1.57,0,0,0,1.49.87c.78,0,1.26-.45,1.26-1,0-.94-.83-.93-2-1.34a1.78,1.78,0,0,1-1.22-1.66,1.88,1.88,0,0,1,2.06-1.83,2.64,2.64,0,0,1,1.82.71v.91H55a1.35,1.35,0,0,0-1.28-.88,1.08,1.08,0,0,0-1.17,1c0,.59.48.87,1.43,1.16,1.26.37,1.84.87,1.84,1.81A1.92,1.92,0,0,1,53.61,100a3.15,3.15,0,0,1-2.07-.74v-.9Z"/><path d="M59.61,93.5v.72H58.18v3.91c0,.86,0,.92.82.92h.61v.76h-1c-1.17,0-1.34-.47-1.34-1.94V94.22h-.76V93.5h.76v-2h.9v2Z"/><path d="M61.36,97v.16c0,1.39.63,2.15,1.59,2.15a1.68,1.68,0,0,0,1.45-.74H65v.7a3,3,0,0,1-2.14.78c-1.63,0-2.5-1.14-2.5-3.32s.89-3.36,2.33-3.36,2.34,1.18,2.34,3.39V97Zm2.76-.71C64.05,94.8,63.54,94,62.73,94s-1.33.76-1.37,2.21Z"/><path d="M67.41,93.5V94l.13,0a1.55,1.55,0,0,1,1.38-.72c1.15,0,1.71.74,1.71,2.2v4.26h-.91v-4c0-1.16-.17-1.79-1-1.79a1.62,1.62,0,0,0-1.27.69v5H66.5V93.5Z"/><path d="M74.73,93.5v.72H73.3v3.91c0,.86,0,.92.82.92h.61v.76h-1c-1.17,0-1.33-.47-1.33-1.94V94.22h-.77V93.5h.77v-2h.89v2Z"/><path d="M80,99.81h-.91v-.54H79a2.11,2.11,0,0,1-1.58.73,1.86,1.86,0,0,1-1.92-1.82c0-1.31,1.21-2.12,3.58-2.32a2.75,2.75,0,0,0,0-.4c0-1-.37-1.44-1.24-1.44a1.25,1.25,0,0,0-1.32.91h-.65v-1a3.6,3.6,0,0,1,2-.62,2.17,2.17,0,0,1,1.82.8A3.3,3.3,0,0,1,80,96.06Zm-.92-3.39c-1.77.14-2.67.78-2.67,1.67a1.14,1.14,0,0,0,1.27,1.13,2,2,0,0,0,1.4-.62Z"/><path d="M82.38,91v3.08l.13,0a1.59,1.59,0,0,1,1.37-.77c1.14,0,2,1.25,2,3.32S85,100,83.88,100a1.55,1.55,0,0,1-1.37-.77l-.13,0v.55h-.9V91Zm0,7.58a1.57,1.57,0,0,0,1.18.68c.88,0,1.33-.86,1.33-2.58s-.45-2.55-1.33-2.55a1.56,1.56,0,0,0-1.18.67Z"/><path d="M88.28,91v8.84h-.9V91Z"/><path d="M90.69,97v.16c0,1.39.64,2.15,1.6,2.15a1.69,1.69,0,0,0,1.45-.74h.63v.7a3,3,0,0,1-2.14.78c-1.63,0-2.5-1.14-2.5-3.32s.9-3.36,2.34-3.36,2.33,1.18,2.33,3.39V97Zm2.76-.71C93.39,94.8,92.87,94,92.07,94s-1.34.76-1.38,2.21Z"/></svg>