<?xml version="1.0" encoding="utf-8"?>
<!-- Generator: Adobe Illustrator 22.1.0, SVG Export Plug-In . SVG Version: 6.00 Build 0)  -->
<svg version="1.1" id="Capa_1" xmlns="http://www.w3.org/2000/svg" xmlns:xlink="http://www.w3.org/1999/xlink" x="0px" y="0px"
	 viewBox="0 0 81.2 100" style="enable-background:new 0 0 81.2 100;" xml:space="preserve">
<style type="text/css">
	.st0{fill:#363636;}
	.st1{fill:#232322;}
	.st2{fill:#222221;}
</style>
<g>
	<g>
		<path class="st1" d="M61,20.2l0,38.4c0,11.3-9.2,20.4-20.4,20.4c-11.3,0-20.4-9.2-20.4-20.4V20.2H61 M62,19.2h-1H20.2h-1v1v38.4
			c0,11.8,9.6,21.4,21.4,21.4c11.8,0,21.4-9.6,21.4-21.4l0-38.4L62,19.2L62,19.2z"/>
	</g>
	<g>
		<path class="st1" d="M21.4,16l1.5-4.7l-4-2.9h4.9l1.5-4.7l1.5,4.7h4.9l-4,2.9l1.5,4.7l-4-2.9L21.4,16z M25.4,12.4l2.8,2.1
			l-1.1-3.3L30,9.1h-3.5l-1.1-3.3l-1.1,3.3h-3.5l2.8,2.1l-1.1,3.3L25.4,12.4z"/>
	</g>
	<g>
		<path class="st1" d="M36.7,16l1.5-4.7l-4-2.9h4.9l1.5-4.7l1.5,4.7H47l-4,2.9l1.5,4.7l-4-2.9L36.7,16z M36,9.1l2.8,2.1l-1.1,3.3
			l2.8-2.1l2.8,2.1l-1.1-3.3l2.8-2.1h-3.5l-1.1-3.3l-1.1,3.3H36z"/>
	</g>
	<g>
		<path class="st1" d="M51.9,16l1.5-4.7l-4-2.9h4.9l1.5-4.7l1.5,4.7h4.9l-4,2.9l1.5,4.7l-4-2.9L51.9,16z M55.9,12.4l2.8,2.1
			l-1.1-3.3l2.8-2.1H57l-1.1-3.3l-1.1,3.3h-3.5l2.8,2.1L53,14.5L55.9,12.4z"/>
	</g>
	<g>
		<path class="st1" d="M67.2,16l1.5-4.7l-4-2.9h4.9l1.5-4.7l1.5,4.7h4.9l-4,2.9l1.5,4.7l-4-2.9L67.2,16z M66.5,9.1l2.8,2.1l-1.1,3.3
			l2.8-2.1l2.8,2.1l-1.1-3.3l2.8-2.1h-3.5l-1.1-3.3L70,9.1H66.5z"/>
	</g>
	<g>
		<path class="st1" d="M6.2,16l1.5-4.7l-4-2.9h4.9l1.5-4.7l1.5,4.7h4.9l-4,2.9l1.5,4.7l-4-2.9L6.2,16z M5.5,9.1l2.8,2.1l-1.1,3.3
			l2.8-2.1l2.8,2.1l-1.1-3.3l2.8-2.1h-3.5l-1.1-3.3L9,9.1H5.5z"/>
	</g>
	<g>
		<path class="st1" d="M75.1,33.3l-4-2.9l-4,2.9l1.5-4.7l-4-2.9h4.9l1.5-4.7l1.5,4.7h4.9l-4,2.9L75.1,33.3z M71.1,29.7l2.8,2.1
			l-1.1-3.3l2.8-2.1h-3.5L71.1,23L70,26.4h-3.5l2.8,2.1l-1.1,3.3L71.1,29.7z"/>
	</g>
	<g>
		<path class="st1" d="M6.2,33.3l1.5-4.7l-4-2.9h4.9l1.5-4.7l1.5,4.7h4.9l-4,2.9l1.5,4.7l-4-2.9L6.2,33.3z M10.1,29.7l2.8,2.1
			l-1.1-3.3l2.8-2.1h-3.5L10.1,23L9,26.4H5.5l2.8,2.1l-1.1,3.3L10.1,29.7z"/>
	</g>
	<g>
		<path class="st1" d="M71.7,52.6c0.4,0.8,0.9,2.4,1.1,5.3c-1.2,0.6-2.2,1.4-3.2,2.3C69.4,57.5,70.1,54.9,71.7,52.6 M66.6,59
			c0.6,1.1,1.2,1.9,1.9,2.4c-1,1.1-1.8,2.3-2.6,3.7C65.5,62.8,65.7,60.8,66.6,59 M71.7,51.6c-2.1,2.8-3,6-2.6,9.5
			c-0.9-0.6-1.7-1.7-2.4-3.4c-1.6,2.6-1.9,5.6-1,9.1c2-4,4.6-6.9,7.8-8.5C73.1,54.7,72.6,52.5,71.7,51.6L71.7,51.6z"/>
	</g>
	<g>
		<path class="st1" d="M73.4,61.6c0.2,2.7-0.5,5-2.2,6.7c-0.1-2-0.4-3.6-0.8-4.8C71.3,63.1,72.3,62.5,73.4,61.6 M73.9,60.4
			c-1.7,1.5-3.1,2.4-4.2,2.8c0.6,1.5,0.9,3.6,1,6.4C73.5,67.4,74.5,64.3,73.9,60.4L73.9,60.4z"/>
	</g>
	<g>
		<path class="st1" d="M76.8,59.3c0,1.7-0.4,3.3-1.1,4.7c0-0.9,0-2.1-0.1-3.5l0-0.4C75.9,59.9,76.4,59.6,76.8,59.3 M77.4,58.1
			c-0.5,0.6-2.4,1.6-2.4,1.6c0.1,3.4,0.2,5.3-0.1,6.4C76.6,64.2,77.7,61.4,77.4,58.1L77.4,58.1z"/>
	</g>
	<g>
		<path class="st1" d="M68.3,66.5c0.9,2.1,1,4.5,0.2,7.2c-1.1,0.4-2.1,0.6-2.9,0.6c-0.1,0-0.2,0-0.2,0
			C65.4,72.4,66.4,69.9,68.3,66.5 M68.3,65.2c-2.4,4.3-3.6,7.5-3.6,9.5c0.3,0,0.6,0.1,0.8,0.1c1,0,2.1-0.2,3.4-0.7
			C70,70.8,69.8,67.8,68.3,65.2L68.3,65.2z"/>
	</g>
	<g>
		<path class="st1" d="M74,68.5c-0.1,2.2-1,4.2-2.8,5.8c0.1-1.1,0.1-2.1-0.1-3C72,70.7,72.9,69.8,74,68.5 M74.5,67
			c-1.5,2-2.8,3.3-4,4.1c0.3,1.4,0.3,3-0.2,4.8C73.5,73.5,74.9,70.5,74.5,67L74.5,67z"/>
	</g>
	<g>
		<path class="st1" d="M63.1,70.1c0.3,0.6,0.4,1.7,0.3,3.8c-0.7,0.2-1.3,0.3-1.7,0.4C61.9,72.7,62.4,71.3,63.1,70.1 M63,69
			c-1,1.6-1.7,3.6-2.1,5.8c0.2,0,0.3,0,0.5,0c0.6,0,1.5-0.2,2.4-0.5C64.2,71.4,63.9,69.7,63,69L63,69z"/>
	</g>
	<g>
		<path class="st1" d="M62.6,76.6c1.6,0,3.7,0.2,6,0.7c-2.2,1.8-4.9,3-7.9,3.7c0.3-1.5,0.3-3-0.1-4.3C61.3,76.6,61.9,76.6,62.6,76.6
			 M62.6,76c-1,0-1.9,0.1-2.7,0.3c0.6,1.7,0.6,3.5,0,5.5c4-0.7,7.3-2.3,10-4.8C67,76.3,64.6,76,62.6,76L62.6,76z"/>
	</g>
	<g>
		<path class="st1" d="M58.3,76.1c1.3,2.7,1,5-0.8,7c-0.8-0.5-2-0.8-3.5-0.9C55,80,56.5,77.9,58.3,76.1 M58.5,75.2
			c-2.4,2.1-4.2,4.7-5.3,7.6c2.1,0,3.6,0.4,4.5,1.1C60.1,81.5,60.4,78.6,58.5,75.2L58.5,75.2z"/>
	</g>
	<g>
		<path class="st1" d="M66.5,81.8c0.1,0,0.1,0,0.2,0c-0.6,1.8-1.9,3.3-3.8,4.4c-0.7-0.8-1.7-1.6-3.2-2.3
			C61.5,82.5,63.8,81.8,66.5,81.8 M66.5,81.2c-3.2,0-5.8,0.9-8,2.8c2.1,1,3.5,2,4.2,3c2.6-1.3,4.2-3.2,4.8-5.7
			C67.1,81.2,66.8,81.2,66.5,81.2L66.5,81.2z"/>
	</g>
	<g>
		<path class="st1" d="M53.4,85.2c2.4,0.1,4.6,0.7,6.5,1.8c-1.1,0.4-2.8,0.6-4.8,0.6c-0.6,0-1.2,0-1.9-0.1L53.4,85.2 M52.9,84.6
			l-0.3,3.5c0.9,0.1,1.7,0.1,2.5,0.1c2.8,0,4.8-0.4,6-1.2C58.8,85.5,56.1,84.6,52.9,84.6L52.9,84.6z"/>
	</g>
	<g>
		<path class="st1" d="M51.9,81.3c0.4,1.8-0.3,4.1-2.1,6.8L49.3,89l1,0.1c3,0.2,5.1,0.9,6.2,2.1c-1.1,0.4-2.2,0.5-3.3,0.5
			c-2.1,0-4.2-0.8-6.1-2.2l-0.1-0.1l-0.2,0c-0.1,0-0.2,0-0.3,0c-0.8,0-1.8,0.2-3.2,0.7l-1.9,0.7l1.9,0.4c0.7,0.2,1.5,0.6,2.4,1.3
			c-0.2,0.2-0.5,0.4-0.8,0.6c-1.1-1-2.6-1.8-4.2-2.2l-0.2-0.1L40.6,91c-1.8,0.8-2.9,1.8-4.1,3c-0.4-0.2-0.8-0.3-1.3-0.4
			c0.6-0.6,1.7-1.4,3.7-2.6l0.9-0.6l-1-0.5c-0.5-0.2-1.3-0.3-2.4-0.3l-0.1,0l-0.1,0.1c-1.9,0.9-3.7,1.4-5.4,1.4
			c-2,0-3.9-0.6-5.7-1.9c1.2-0.4,2.6-0.6,4.2-0.6c1.2,0,2.5,0.1,3.9,0.3l1.8,0.3l-1.3-1.3c-1.9-1.8-3-3.9-3.3-6.2
			c3.3,1.3,5.1,3.6,6,7.2l0.1,0.5l0.5,0c0.1,0,0.2,0,0.3,0c1,0,1.7,0.3,2.5,0.7c0.3,0.1,0.6,0.2,0.9,0.4l0.2,0.1l0.2-0.1
			c1.3-0.6,3.6-1.2,5.3-1.4l0.4,0l0.1-0.4C47.9,84.8,49.6,82.4,51.9,81.3 M52.3,80.5c-2.8,1-4.8,3.6-6,7.8c-1.9,0.2-4.2,0.9-5.5,1.4
			c-1.2-0.4-2.1-1.1-3.6-1.1c-0.1,0-0.2,0-0.3,0c-1-4.4-3.4-6.7-7.2-7.9c0.1,2.8,1.3,5.4,3.5,7.5c-1.4-0.2-2.7-0.3-3.9-0.3
			c-2.2,0-3.9,0.3-5.4,1c2.1,1.8,4.4,2.7,6.8,2.7c1.8,0,3.7-0.5,5.7-1.4c1,0,1.7,0.1,2.2,0.3c-2.5,1.6-4,2.8-4.5,3.5
			c0.9,0.1,1.8,0.3,2.5,0.7c1.3-1.3,2.4-2.3,4.2-3.2c1.4,0.4,3.1,1.2,4.4,2.4c0.6-0.7,1.2-1.1,1.7-1.4c-1.2-1.1-2.3-1.8-3.3-2
			c1.3-0.5,2.3-0.7,3-0.7c0.1,0,0.2,0,0.2,0c2,1.6,4.2,2.4,6.5,2.4c1.4,0,2.8-0.3,4.2-0.8c-1-1.8-3.4-2.8-7.1-3
			C52.5,85.3,53.1,82.7,52.3,80.5L52.3,80.5z"/>
	</g>
	<g>
		<path class="st1" d="M25,84.6c1.2,0,2.6,0.2,3.9,0.7c-0.4,0.3-0.7,0.6-0.9,0.9c-1.3,0.4-2.6,0.6-3.7,0.6c-1.4,0-2.8-0.3-4-0.9
			C21.7,85.1,23.3,84.6,25,84.6 M25,84.1c-2.2,0-4.2,0.7-6,2c1.6,0.9,3.3,1.4,5.2,1.4c1.3,0,2.7-0.2,4.1-0.7c0.3-0.4,0.9-1,1.8-1.6
			C28.3,84.4,26.6,84.1,25,84.1L25,84.1z"/>
	</g>
	<g>
		<path class="st1" d="M22.9,78c1.7,0.4,3.2,1.6,4.5,3.4c-0.4,0-0.7-0.1-1.1-0.1c-0.9,0-1.7,0.1-2.4,0.4
			C23.2,80.6,22.9,79.4,22.9,78 M22.3,77.3c-0.2,1.9,0.2,3.7,1.4,5.3c0.7-0.4,1.5-0.6,2.6-0.6c0.7,0,1.4,0.1,2.3,0.2
			C26.9,79.3,24.8,77.7,22.3,77.3L22.3,77.3z"/>
	</g>
	<g>
		<path class="st1" d="M15.1,82.1c1.5,0.1,3,0.5,4.4,1.1c-0.6,0.4-1,0.9-1.4,1.5C16.7,83.8,15.7,82.9,15.1,82.1 M14.4,81.5
			c-0.1,0-0.2,0-0.3,0c0.5,1.3,1.9,2.6,4.2,4.1c0.4-1.2,1.2-1.9,2.4-2.3C18.9,82.1,16.7,81.5,14.4,81.5L14.4,81.5z"/>
	</g>
	<g>
		<path class="st1" d="M13.1,76.3c1.6,0,3.8,0.2,6.5,0.7c-0.1,1.2,0.2,2.5,0.7,3.8c-3.2-0.8-5.9-2.3-8.1-4.5
			C12.5,76.3,12.8,76.3,13.1,76.3 M13.1,75.7c-0.8,0-1.5,0.1-2.1,0.2c2.6,3,6.1,4.9,10.3,5.8c-0.9-1.9-1.3-3.6-1.1-5.1
			C17.3,76,14.9,75.7,13.1,75.7L13.1,75.7z"/>
	</g>
	<g>
		<path class="st1" d="M18.8,70.8c1.5,0.6,2.7,1.8,3.6,3.9c-0.7,0.1-1.3,0.3-1.8,0.5C19.7,73.9,19.1,72.4,18.8,70.8 M18.1,70
			c0.3,2.2,1,4.2,2.3,6c0.6-0.4,1.5-0.7,2.8-0.8C22,72.2,20.3,70.5,18.1,70L18.1,70z"/>
	</g>
	<g>
		<path class="st1" d="M14.2,66.5c1.2,2,2.1,4.4,2.6,7.3c-0.6-0.1-1.1-0.1-1.6-0.1c-0.1,0-0.2,0-0.3,0C14.2,71,13.9,68.6,14.2,66.5
			 M13.9,64.9c-0.7,2.7-0.4,5.8,0.6,9.4c0.2,0,0.4,0,0.7,0c0.6,0,1.4,0.1,2.3,0.3C16.9,70.6,15.6,67.4,13.9,64.9L13.9,64.9z"/>
	</g>
	<g>
		<path class="st1" d="M6.7,67.9c1.8,0.4,3.2,0.9,4.3,1.6c-0.3,1.1-0.4,2.4-0.3,3.9C8.8,71.5,7.5,69.7,6.7,67.9 M5.9,67.1
			c0.7,2.6,2.7,5.2,5.7,7.7c-0.4-2.2-0.4-4,0.2-5.6C10.4,68.3,8.4,67.5,5.9,67.1L5.9,67.1z"/>
	</g>
	<g>
		<path class="st1" d="M15.3,57.8c0.4,1.3,0.4,3.2,0.2,5.8c-0.5-0.2-1-0.2-1.5-0.3l0-0.3C14,60.9,14.4,59.2,15.3,57.8 M9.5,61.5
			c1,0.3,2.2,0.9,3.6,1.9c-0.4,0.3-1,1-1.6,3C10.4,64.9,9.8,63.2,9.5,61.5 M15.5,56.6c-1.4,1.6-2.1,3.8-2,6.4
			c-1.9-1.3-3.4-2-4.6-2.2c0.3,2.5,1.2,4.8,2.8,7c0.7-2.4,1.4-3.7,2-4c0.8,0,1.6,0.2,2.4,0.5C16.4,60.5,16.2,57.9,15.5,56.6
			L15.5,56.6z"/>
	</g>
	<g>
		<path class="st1" d="M10.2,53.2c1.3,1.6,1.9,3.9,1.8,6.6c-1-0.4-1.8-0.7-2.5-0.8l0-1C9.6,55.4,9.9,54,10.2,53.2 M5.8,56.1
			c0.9,0.4,1.8,1.1,2.7,2.3l0.4,0.5c-0.2,0-0.5-0.1-0.7-0.1c0,0,0,0,0,0l-0.3,0L7.8,59C7,60,6.5,61.2,6.3,62.7
			C5.1,60.8,4.9,58.7,5.8,56.1 M10.1,52.2C9.4,53,9,54.9,9,58c-1.2-1.5-2.4-2.3-3.5-2.6c-1.3,3.6-0.9,6.5,1.3,8.8
			c0-2.1,0.5-3.7,1.5-4.8c0,0,0,0,0,0c0.9,0,2.3,0.4,4.3,1.3C12.8,57,12,54.1,10.1,52.2L10.1,52.2z"/>
	</g>
	<g>
		<path class="st1" d="M45.7,36.6H36l-0.1-0.1c-2-2-1.5-4-1.2-5.7c0.2-0.9,0.4-1.6,0.1-2.3l-0.1-0.4l0.4,0c0.7,0,1,0.7,1.5,1.4
			c0.1,0.2,0.2,0.4,0.4,0.6c0-1.7,0.7-2.9,1.4-4c0.4-0.7,0.8-1.4,0.9-2.1l0.1-0.7l0.4,0.6c1,1.3,0.8,2.6,0.6,3.9
			c-0.1,0.4-0.1,0.9-0.1,1.3c0.4-1.1,0.9-1.9,1.4-2.6c0.7-1,1.2-1.8,1.2-3l0-0.9l0.6,0.7c1.2,1.4,0.9,3.3,0.5,5.1
			c-0.3,1.5-0.5,2.9,0,3.9c0.1-0.2,0.2-0.5,0.3-0.7c0.3-0.7,0.7-1.5,1.6-1.8l0.5-0.2l-0.1,0.5c-0.1,0.6,0.1,1.1,0.2,1.6
			c0.3,1.1,0.8,2.5-0.7,4.7L45.7,36.6z M36.2,36h9.1c1.2-1.9,0.8-3,0.5-4c-0.1-0.4-0.3-0.9-0.3-1.4c-0.3,0.3-0.5,0.8-0.8,1.3
			c-0.2,0.4-0.4,0.9-0.7,1.2l-0.3,0.3l-0.2-0.3c-0.9-1.4-0.6-3.1-0.3-4.8c0.3-1.4,0.5-2.8,0.1-3.9c-0.2,0.9-0.7,1.6-1.2,2.4
			c-0.6,1-1.4,2.1-1.7,3.8l-0.2,1.1l-0.4-1c-0.4-1-0.2-2-0.1-2.9c0.1-1,0.3-1.9-0.2-2.8c-0.2,0.5-0.5,1-0.8,1.6
			c-0.7,1.2-1.4,2.5-1.3,4.5l0.1,0.7l-0.6-0.5c-0.4-0.4-0.7-0.9-1-1.3c-0.2-0.3-0.4-0.6-0.5-0.8c0,0.6-0.1,1.3-0.3,1.9
			C35,32.6,34.6,34.3,36.2,36z"/>
	</g>
	<g>
		<path class="st1" d="M44.4,29.6l0.4-0.9c0.9-1.9,0.9-3.3,0.2-5.1l-0.4-0.9l0.8,0.5c1.2,0.8,1.8,1.8,1.8,2.9c0,0.7-0.4,1.8-2,2.9
			L44.4,29.6z M45.9,24.4c0.3,1.2,0.3,2.3-0.2,3.5c0.6-0.6,0.9-1.2,0.9-1.8C46.7,25.5,46.4,24.9,45.9,24.4z"/>
	</g>
	<g>
		<path class="st1" d="M44.4,38.3l0.5,1h-8l0.5-1H44.4 M44.7,37.7h-0.4h-7.1h-0.4L36.8,38l-0.5,1l-0.4,0.9h1h8h1L45.4,39l-0.5-1
			L44.7,37.7L44.7,37.7z"/>
	</g>
	<g>
		<path class="st1" d="M45.2,41.5l0.5,1H36l0.5-1H45.2 M45.6,40.9h-0.4h-8.8h-0.4l-0.2,0.3l-0.5,1L35,43h1h9.7h1l-0.4-0.9l-0.5-1
			L45.6,40.9L45.6,40.9z"/>
	</g>
	<g>
		<path class="st1" d="M44.4,44.3l-1,4.3h-5.1l-1-4.3H44.4 M45.2,43.7h-0.8h-7.2h-0.8l0.2,0.7l1,4.3l0.1,0.5h0.5h5.1h0.5l0.1-0.5
			l1-4.3L45.2,43.7L45.2,43.7z"/>
	</g>
	<g>
		<path class="st1" d="M46.5,52.1c-0.2,0-0.5-0.1-0.7-0.2h-10c-0.2,0.2-0.4,0.2-0.7,0.2c-0.6,0-1-0.5-1-1c0-0.6,0.5-1,1-1
			c0.2,0,0.5,0.1,0.7,0.2h10c0.2-0.2,0.4-0.2,0.7-0.2c0.6,0,1,0.5,1,1C47.5,51.7,47.1,52.1,46.5,52.1z M35.6,51.3h10.5l0.1,0.1
			c0.1,0.1,0.2,0.1,0.3,0.1c0.2,0,0.4-0.2,0.4-0.4c0-0.2-0.2-0.4-0.4-0.4c-0.1,0-0.2,0.1-0.3,0.1l-0.1,0.1H35.6l-0.1-0.1
			c-0.1-0.1-0.2-0.1-0.3-0.1c-0.2,0-0.4,0.2-0.4,0.4c0,0.2,0.2,0.4,0.4,0.4C35.3,51.5,35.4,51.5,35.6,51.3L35.6,51.3z"/>
	</g>
	<g>
		<path class="st1" d="M40.8,76.5c-0.7,0-1.2-0.5-1.2-1.2c0-0.4,0.2-0.7,0.5-1L38,55.5c0-1.6,1.3-2.9,2.8-2.9c1.6,0,2.8,1.3,2.8,2.8
			l-2.1,18.9c0.3,0.2,0.5,0.6,0.5,0.9C42,75.9,41.5,76.5,40.8,76.5z M40.8,53.2c-1.2,0-2.2,1-2.2,2.2l2.2,19.2l-0.2,0.1
			c-0.2,0.1-0.3,0.3-0.3,0.6c0,0.3,0.3,0.6,0.6,0.6c0.3,0,0.6-0.3,0.6-0.6c0-0.2-0.1-0.4-0.3-0.5l-0.2-0.1l0-0.2l2.1-19
			C43.1,54.2,42.1,53.2,40.8,53.2z"/>
	</g>
	<g>
		<g>
			<path class="st2" d="M0.1,0.1v59.2c0,22.4,18.1,40.5,40.5,40.5c22.4,0,40.5-18.1,40.5-40.5l0-59.2H0.1z M80.1,59.4
				c0,21.8-17.7,39.5-39.5,39.5S1.1,81.2,1.1,59.4V1.1h79.1L80.1,59.4z"/>
		</g>
	</g>
</g>
</svg>
