<?xml version="1.0" encoding="utf-8"?>
<!-- Generator: Adobe Illustrator 22.0.1, SVG Export Plug-In . SVG Version: 6.00 Build 0)  -->
<svg version="1.1" id="Capa_1" xmlns="http://www.w3.org/2000/svg" xmlns:xlink="http://www.w3.org/1999/xlink" x="0px" y="0px"
	 viewBox="0 0 325.7 320.4" style="enable-background:new 0 0 325.7 320.4;" xml:space="preserve">
<style type="text/css">
	.st0{fill:#6E6E6E;}
</style>
<g>
	<path class="st0" d="M325.7,220.1c-1.6,6-3.9,11.7-9.1,15.6c-2.4,1.8-4.9,3.4-7.6,4.6c-27.3,12.1-54.6,24.1-81.8,36.2
		c-18.8,8.3-37.4,7.8-55.8-1.3c-10.7-5.3-21.3-10.8-32.2-15.7c-12.8-5.8-26.8-5.5-39.6,0.3c0,2,0.2,4,0,6
		c-0.8,6.6-4.6,10.8-10.4,13.7C67,290.5,44.8,301.7,22.6,313c-3.7,1.9-7.4,3.7-11,5.6c-5.8,2.9-7.8,2.5-11.6-2.4
		c0-38.6,0-77.2,0-115.8c1.9-1.7,3.6-3.9,5.8-5c12.4-5.7,25-11.1,37.5-16.5c9.3-4.1,15.3-2.8,22.4,4.9c4.4-1.9,8.9-4,13.5-5.9
		c8.9-3.8,17.6-8,26.6-11.1c16.9-5.8,34-5,50.8,1.2c20.3,7.4,40.6,14.8,60.8,22.3c15.7,5.8,21.6,23.1,12.6,36.5
		c-5.9,8.8-17,12.6-27.8,9c-15.7-5.1-31.3-10.5-46.9-15.8c-4.4-1.5-6.3-4.9-5-8.6c1.2-3.5,4.8-4.9,9-3.5c15,5,30.1,10.2,45.1,15.2
		c2.3,0.8,4.8,1.4,7.1,1.2c5.2-0.4,9.2-4.5,9.8-9.3c0.8-5.5-1.9-10.3-7.3-12.4c-8.5-3.3-17.1-6.3-25.6-9.4
		c-12.6-4.6-25.2-9.3-37.9-13.8c-15.9-5.6-31.6-4.8-47.1,1.7c-10.4,4.4-20.7,9.1-31.1,13.7c-0.4,0.2-0.7,0.4-1.4,0.9
		c7.7,17.4,15.4,34.8,22.9,51.9c6.3-1.5,12.2-3.4,18.3-4.3c12.9-1.9,25.1,0.8,36.6,6.5c9.4,4.7,18.8,9.3,28.1,14
		c15,7.6,30,7.9,45.3,1.1c27.3-12.1,54.6-24.1,81.9-36.2c6.5-2.9,9.7-8.1,8.6-13.9c-1.5-8-9.7-12.2-17.4-8.8
		c-9.4,4.2-18.7,8.6-28,12.9c-4.3,2-8.6,4.1-13,5.9c-3.6,1.5-6.8,0.1-8.3-3c-1.5-3.1-0.4-6.7,3-8.3c14.4-6.7,28.6-13.9,43.3-19.7
		c14.6-5.7,29.3,3.1,32.7,18.4c0.1,0.6,0.4,1.2,0.5,1.8C325.7,215.8,325.7,218,325.7,220.1z M12.7,303.6c0.9-0.4,1.4-0.6,1.8-0.8
		c23.1-11.7,46.3-23.4,69.4-35.1c3.3-1.7,3.7-2.8,2.1-6.4c-10.1-22.9-20.1-45.7-30.2-68.5c-1.6-3.7-3-4.2-6.7-2.5
		c-11.3,4.9-22.7,10-34,14.8c-1.9,0.8-2.4,1.8-2.4,3.8c0.1,16.6,0,33.3,0.1,49.9c0,0.8,0.1,1.6,0.1,2.8c4.3-2.1,8.2-4,12.2-5.9
		c2.8-1.4,5.5-1.5,7.9,0.7c3.5,3.2,2.4,8.2-2.3,10.7c-5.3,2.7-10.7,5.2-15.9,7.9c-0.9,0.5-1.9,1.8-2,2.7
		C12.7,286.1,12.7,294.6,12.7,303.6z"/>
	<path class="st0" d="M220.7,69.3c-12,0-23.8,0.2-35.5-0.1c-19.1-0.4-33.2-9.3-41.4-26.6c-2.2-4.7-3.3-10.1-3.8-15.3
		c-0.7-6.5-0.4-13.1-0.4-19.7c0-5.1,2.4-7.5,7.4-7.5c14-0.1,28-0.4,42,0.1c23.1,0.7,40.6,16.1,44.1,39c1,6.4,0.4,13.1,0.6,19.7
		c0,1.7,0,3.3,0,5.6c2.1-1.4,3.7-2.5,5.4-3.4c5.6-3.1,11.6-4.4,18-4.4c11.4,0,22.9,0,34.3,0c6.1,0,8.3,2.2,8.2,8.2
		c-0.1,7,0.4,14.1-0.6,20.9c-2.6,17.1-16.7,29-34,29.3c-9.1,0.2-18.2,0-27.3,0c-1.2,0-2.3,0-4,0c0,4.1,0,8.1,0,12.1
		c0,2.7-0.7,6.1,0.6,8c1.2,1.7,4.7,1.8,7.2,2.7c18.7,6.6,33.1,18.5,43.1,35.6c2.2,3.7,1.4,7.5-1.8,9.4c-3.1,1.9-6.7,0.9-8.9-2.8
		c-5.9-9.9-13.4-18.3-23.5-24.1c-23.4-13.4-46.7-13.2-69.9,0.6c-1,0.6-1.9,1.3-2.9,1.9c-3.6,2.1-7.3,1.5-9.3-1.5c-2-3-1.2-6.9,2.3-9
		c5.3-3.2,10.8-6.4,16.5-8.8c9.8-4.3,20.3-5.8,31-5.6c0.8,0,1.7,0,2.7,0C220.7,112.2,220.7,90.9,220.7,69.3z M220.8,56.6
		c0-4.8,0.2-9.1,0-13.5c-0.7-14.8-13-28.4-27.8-29.7c-10.4-0.9-20.9-0.5-31.4-0.6c-2.9,0-5.9,0-9.2,0c0,4.3-0.2,8.3,0,12.2
		c1,16.7,12.3,29,28.8,31.2c4.1,0.5,8.2,0.3,12.4,0.3C202.5,56.6,211.5,56.6,220.8,56.6z M286.9,69.5c-11.3,0-22.2-0.4-33.1,0.2
		c-3.9,0.2-8.1,2.1-11.3,4.4c-9.9,7-9.3,17.6-8.7,28.2c11,0,21.7,0.3,32.3-0.1c8.7-0.4,15.1-5.1,18.8-13
		C287.9,82.9,286.7,76.2,286.9,69.5z"/>
	<path class="st0" d="M51.6,244.9c3.4,0,6.3,2.8,6.3,6.2c0,3.4-2.9,6.3-6.2,6.4c-3.3,0-6.3-3-6.4-6.3
		C45.3,247.8,48.2,244.9,51.6,244.9z"/>
</g>
</svg>
