<?xml version="1.0" encoding="utf-8"?>
<!-- Generator: Adobe Illustrator 22.0.1, SVG Export Plug-In . SVG Version: 6.00 Build 0)  -->
<svg version="1.1" id="Capa_1" xmlns="http://www.w3.org/2000/svg" xmlns:xlink="http://www.w3.org/1999/xlink" x="0px" y="0px"
	 viewBox="0 0 363.7 363.7" style="enable-background:new 0 0 363.7 363.7;" xml:space="preserve">
<style type="text/css">
	.st0{fill:#FFFFFF;}
	.st1{clip-path:url(#SVGID_2_);fill:#FFFFFF;}
</style>
<g>
	<path class="st0" d="M0,0v363.7h363.7V0H0z M353.5,354.7H10.3V11.5h343.2V354.7z"/>
	<g>
		<g>
			<defs>
				<rect id="SVGID_1_" x="37.1" y="49.8" width="290.5" height="266.1"/>
			</defs>
			<clipPath id="SVGID_2_">
				<use xlink:href="#SVGID_1_"  style="overflow:visible;"/>
			</clipPath>
			<path class="st1" d="M116.9,86.5c0-20.6,16.7-37.3,37.3-37.3c20.6,0,37.3,16.7,37.3,37.3c0,20.6-16.7,37.3-37.3,37.3
				C133.5,123.7,116.9,107.1,116.9,86.5L116.9,86.5z M172,149.1c0.4-8.1,3.2-15.6,7.7-21.8c-3.2-0.7-6.4-1-9.8-1h-31.6
				c-3.3,0-6.6,0.4-9.7,1c4.8,6.6,7.6,14.7,7.7,23.5c5.8-3.2,12.5-5,19.6-5C161.6,145.8,167.1,147,172,149.1L172,149.1z
				 M178.4,152.5c10.8,6.8,18.4,18.3,19.8,31.6c4.4,2.1,9.3,3.3,14.5,3.3c19,0,34.3-15.4,34.3-34.4s-15.4-34.3-34.3-34.3
				C193.9,118.7,178.6,133.8,178.4,152.5L178.4,152.5z M155.9,222.8c19,0,34.3-15.4,34.3-34.3c0-19-15.4-34.3-34.3-34.3
				c-19,0-34.4,15.4-34.4,34.3C121.5,207.4,136.9,222.8,155.9,222.8L155.9,222.8z M170.4,225.1h-29.1c-24.2,0-44,19.7-44,44v35.6
				l0.1,0.5l2.5,0.8c23.1,7.2,43.2,9.6,59.8,9.6c32.3,0,51.1-9.2,52.2-9.8l2.3-1.2h0.2v-35.6C214.4,244.9,194.7,225.1,170.4,225.1
				L170.4,225.1z M227.2,189.7h-28.9c-0.3,11.6-5.2,22-13,29.5c21.5,6.4,37.3,26.4,37.3,50v11c28.5-1.1,45-9.1,46.1-9.7l2.3-1.2h0.2
				v-35.7C271.2,209.4,251.5,189.7,227.2,189.7L227.2,189.7z M235,117.9c10.8,6.8,18.4,18.3,19.8,31.6c4.4,2.1,9.3,3.3,14.5,3.3
				c19,0,34.3-15.4,34.3-34.3c0-19-15.4-34.3-34.3-34.3C250.5,84.1,235.2,99.2,235,117.9L235,117.9z M283.8,155.1h-28.9
				c-0.3,11.6-5.2,22-13,29.5c21.5,6.4,37.3,26.4,37.3,50v11c28.5-1,45-9.1,46.1-9.7l2.3-1.2h0.3v-35.7
				C327.8,174.9,308.1,155.1,283.8,155.1L283.8,155.1z M95.6,187.3c6.7,0,13-2,18.3-5.3c1.7-11,7.6-20.6,16-27.1
				c0-0.6,0.1-1.3,0.1-1.9c0-19-15.4-34.3-34.3-34.3S61.3,134,61.3,153C61.3,172,76.6,187.3,95.6,187.3L95.6,187.3z M126.4,219.2
				c-7.8-7.5-12.7-17.8-13-29.3c-1.1-0.1-2.1-0.2-3.2-0.2H81c-24.3,0-44,19.7-44,44v35.6l0.1,0.6l2.5,0.8
				c18.5,5.8,35.1,8.5,49.5,9.3v-10.8C89.1,245.5,104.9,225.6,126.4,219.2L126.4,219.2z M126.4,219.2"/>
		</g>
	</g>
</g>
<g>
</g>
<g>
</g>
<g>
</g>
<g>
</g>
<g>
</g>
<g>
</g>
</svg>
