<?xml version="1.0" encoding="iso-8859-1"?>
<!-- Generator: Adobe Illustrator 22.0.1, SVG Export Plug-In . SVG Version: 6.00 Build 0)  -->
<svg version="1.1" id="Capa_1" xmlns="http://www.w3.org/2000/svg" xmlns:xlink="http://www.w3.org/1999/xlink" x="0px" y="0px"
	 viewBox="0 0 282.645 282.645" style="enable-background:new 0 0 282.645 282.645;" xml:space="preserve">
<g>
	<path d="M196.977,194.99h-17.065V73.227l16.647-12.616L196.977,194.99L196.977,194.99z M199.779,52.828
		c-1.638-0.75-3.564-0.481-4.943,0.685l-18.51,15.826c-1.027,0.879-1.62,2.166-1.62,3.517v123.002c0,2.554,2.074,4.627,4.628,4.627
		h18.51c2.555,0,4.628-2.073,4.628-4.627V57.03C202.472,55.225,201.417,53.578,199.779,52.828L199.779,52.828z"/>
	<path d="M155.341,194.025h-17.064v-86.488l16.646-12.616L155.341,194.025L155.341,194.025z M158.143,87.138
		c-1.638-0.75-3.563-0.481-4.942,0.685l-18.511,15.826c-1.027,0.88-1.619,2.166-1.619,3.517v87.726c0,2.555,2.073,4.628,4.627,4.628
		h18.51c2.555,0,4.628-2.073,4.628-4.628V91.34C160.836,89.536,159.781,87.888,158.143,87.138L158.143,87.138z"/>
	<polygon style="fill:#C8002D;" points="109.767,123.098 96.826,133.541 96.826,195.027 116.578,195.807 116.578,119.465 
		109.767,123.098 	"/>
	<path d="M115.407,194.025H98.342v-59.446l16.647-12.616L115.407,194.025L115.407,194.025z M118.209,114.18
		c-1.639-0.749-3.564-0.481-4.943,0.685l-18.51,15.826c-1.027,0.88-1.62,2.166-1.62,3.517v60.684c0,2.555,2.073,4.628,4.628,4.628
		h18.51c2.555,0,4.628-2.073,4.628-4.628v-76.51C120.902,116.577,119.847,114.93,118.209,114.18L118.209,114.18z"/>
	<polygon style="fill:#C8002D;" points="74.034,157.038 61.093,167.481 61.093,194.591 80.845,195.371 80.845,153.405 
		74.034,157.038 	"/>
	<path d="M79.674,193.589H62.61v-25.071l16.646-12.615L79.674,193.589L79.674,193.589z M82.476,148.12
		c-1.638-0.75-3.563-0.481-4.942,0.685l-18.51,15.826c-1.027,0.88-1.62,2.166-1.62,3.517v26.309c0,2.554,2.073,4.627,4.628,4.627
		h18.51c2.554,0,4.628-2.073,4.628-4.627v-42.135C85.169,150.517,84.114,148.87,82.476,148.12L82.476,148.12z"/>
	<path d="M141.323,271.603c-71.952,0-130.281-58.328-130.281-130.28c0-71.952,58.329-130.281,130.281-130.281
		c71.952,0,130.28,58.329,130.28,130.281C271.603,213.275,213.275,271.603,141.323,271.603L141.323,271.603z M141.323,0
		C63.272,0,0,63.273,0,141.323c0,78.05,63.272,141.322,141.323,141.322c78.05,0,141.322-63.272,141.322-141.322
		C282.645,63.273,219.373,0,141.323,0L141.323,0z"/>
</g>
</svg>
