<?xml version="1.0" encoding="utf-8"?>
<!-- Generator: Adobe Illustrator 22.0.1, SVG Export Plug-In . SVG Version: 6.00 Build 0)  -->
<svg version="1.1" id="Capa_1" xmlns="http://www.w3.org/2000/svg" xmlns:xlink="http://www.w3.org/1999/xlink" x="0px" y="0px"
	 viewBox="0 0 308.2 313.5" style="enable-background:new 0 0 308.2 313.5;" xml:space="preserve">
<style type="text/css">
	.st0{fill:#6E6E6E;}
</style>
<g>
	<path class="st0" d="M256.9,0c2,0.5,4,0.8,5.9,1.4c19.4,5.8,30.7,19.3,35,38.4c4.4,19.6-0.2,37.1-13.8,52.2
		c-10,11.1-19.8,22.3-29.7,33.4c-0.7,0.8-1.4,1.5-2,2.2c-0.3-0.1-0.6-0.1-0.7-0.2c-11.8-13.4-24.1-26.4-35.4-40.2
		c-18.7-22.8-14.3-59.5,8.7-77.8c5.9-4.7,12.7-7.7,20.2-8.9c0.7-0.1,1.3-0.4,2-0.6C250.4,0,253.6,0,256.9,0z M252,112.4
		c9.1-10.3,18.1-20,26.6-30.1c13.2-15.8,14-38.8,2.4-55.8C267.5,6.9,241.8,5,226.1,22.6c-13.9,15.6-15.1,41.6-2,57.9
		C232.9,91.3,242.4,101.5,252,112.4z"/>
	<path class="st0" d="M80,313.5c-2.7-1.4-4.4-3.3-3.7-6.6c0.6-2.6,2.7-3.8,6.5-3.9c2.2,0,4.5,0,6.7,0c3-0.1,5.8,0.2,7,3.6
		c1.1,3.2-0.8,5.1-3.1,6.9C88.9,313.5,84.4,313.5,80,313.5z"/>
	<path class="st0" d="M204.9,313.5c-1-1.2-2.4-2.2-3-3.6c-1.3-3.3,1-6.5,4.8-6.7c2.9-0.2,5.9-0.1,8.9,0c3.8,0,5.9,1.3,6.5,3.9
		c0.7,3.3-0.9,5.2-3.7,6.6C213.8,313.5,209.3,313.5,204.9,313.5z"/>
	<path class="st0" d="M111.2,313.5c-2.6-1.5-4.5-3.4-3.5-6.6c0.9-3.2,3.5-3.9,6.5-3.8c2.2,0.1,4.5,0.1,6.7,0c3-0.1,5.8,0.3,6.9,3.6
		c1.1,3.3-0.9,5.1-3.2,6.8C120.2,313.5,115.7,313.5,111.2,313.5z"/>
	<path class="st0" d="M173.6,313.5c-1.9-1.4-3.7-2.9-3.5-5.6c0.2-2.7,2.3-4.7,5.4-4.8c2.8-0.1,5.7,0,8.6,0c3-0.1,5.6,0.6,6.5,3.8
		c0.9,3.2-0.9,5.2-3.5,6.6C182.6,313.5,178.1,313.5,173.6,313.5z"/>
	<path class="st0" d="M142.4,313.5c-3.3-2.4-4.3-4.5-3.3-7c0.9-2.2,2.6-3.3,5-3.4c2.9-0.1,5.7,0,8.6,0c3-0.1,5.6,0.6,6.6,3.7
		c1.1,3.3-1,5.1-3.4,6.7C151.4,313.5,146.9,313.5,142.4,313.5z"/>
	<path class="st0" d="M236.7,313.5c-2.7-1.4-4.4-3.3-3.7-6.6c0.6-2.6,2.7-3.8,6.4-3.9c2.2,0,4.5,0.1,6.7,0c2.9-0.1,5.6,0.4,6.8,3.5
		c1.2,3-0.5,5.2-2.8,7C245.7,313.5,241.2,313.5,236.7,313.5z"/>
	<path class="st0" d="M62.4,300.3c-9.6-10.8-19.1-21.5-28.5-32.2c-6.1-7-12.5-13.7-18.2-21c-13-16.5-17.5-35.4-15-56
		c2.3-19.1,10.7-35.1,25.7-47.4c20.9-17.2,52.4-17.1,73,0.4c31.1,26.4,34.8,74,7.8,105.9C92.9,266.8,78,283,63.4,299.5
		C63.2,299.7,62.9,299.9,62.4,300.3z M62.4,284.5c0.4-0.3,0.7-0.4,0.9-0.6c12.5-14.1,25.4-28,37.3-42.5
		c19.5-23.7,18.9-58.8-0.8-82.4c-17.6-21.1-47.6-23.8-68.2-6.3c-23,19.7-28.5,56.9-11.6,82.4c4.9,7.4,11.2,14,17,20.8
		C45.5,265.5,54,275,62.4,284.5z"/>
	<path class="st0" d="M308.2,191.3c-0.3,2-0.6,4.5-1.2,7c-0.7,3.1-3.5,4.8-6.2,4.1c-2.8-0.7-4.3-3.2-4-6.3c0.3-2.7,0.5-5.5,0.5-8.2
		c0.1-3.4,1.9-5.8,4.8-6c3-0.3,5.2,1.8,5.6,5.2C307.9,188.3,308,189.5,308.2,191.3z"/>
	<path class="st0" d="M161,114.4c3.2,0.7,5.4,2.4,5.8,5c0.5,2.7-0.9,4.9-3.7,5.9c-3.1,1.1-6.1,2.2-9.2,3.2c-2.6,0.9-5.2,0-6.4-2.2
		c-1.3-2.4-1-5.4,1.5-6.7C152.9,117.6,157.1,116.1,161,114.4z"/>
	<path class="st0" d="M282.2,161.5c3.9,1.5,7.8,2.7,11.5,4.5c2.6,1.3,3.2,4.4,1.9,6.9c-1.2,2.3-3.8,3.1-6.6,2.2
		c-2.9-1-5.8-1.9-8.7-2.8c-3-0.9-4.6-3.2-4.2-5.8C276.7,163.7,278.8,162.1,282.2,161.5z"/>
	<path class="st0" d="M163.4,238.5c-4.3,0-7.1-2.9-6.2-5.9c1.3-4.1,3.1-8.1,5.3-11.9c1.4-2.4,4.6-2.7,6.8-1.1
		c2.2,1.7,2.9,3.9,1.7,6.5c-1.3,3.1-2.5,6.3-4.1,9.1C166,236.8,164.2,237.8,163.4,238.5z"/>
	<path class="st0" d="M176.8,264.3c-4.9-0.1-13.6-6.4-14.2-10.1c-0.3-1.7,0.5-4,1.7-5.4c1.5-1.7,3.9-1.7,5.9-0.3
		c3,2.1,5.9,4.4,8.7,6.6c1.9,1.5,2.5,3.7,1.4,5.7C179.4,262.6,177.6,263.6,176.8,264.3z"/>
	<path class="st0" d="M220.6,219.3c-1.8,0-3.7,0.1-5.5,0c-2.9-0.2-4.4-2-4.7-4.8c-0.3-2.4,1.5-5,4.1-5.2c4.1-0.3,8.3-0.3,12.5,0
		c2.7,0.2,4.4,2.7,4.1,5.2c-0.3,2.8-1.9,4.5-4.7,4.7C224.5,219.4,222.6,219.3,220.6,219.3z"/>
	<path class="st0" d="M257.9,258c2,0.9,3.5,1.2,4.6,2.1c2.8,2.2,5.6,4.4,8,7c1.9,2.1,1.5,5-0.4,6.9c-1.9,1.9-4.6,2-6.9,0.1
		c-2.6-2.1-5.2-4.2-7.8-6.3c-1.8-1.5-2.8-3.6-1.6-5.7C254.7,260.4,256.5,259.3,257.9,258z"/>
	<path class="st0" d="M276,290.9c-0.8,4.2-2.6,8.6-6.1,12.1c-1.9,1.9-4.3,2-6.4,0.4c-2.2-1.6-2.8-3.9-1.6-6.5c1.4-3,2.8-6,4.3-9.1
		c1.2-2.4,3.2-3.5,5.7-2.9C274.7,285.5,276.1,287.4,276,290.9z"/>
	<path class="st0" d="M188,115.1c1.9,0,3.9-0.2,5.8,0c2.6,0.3,4.2,1.9,4.4,4.6c0.2,2.7-1,4.9-3.7,5.2c-4.3,0.4-8.7,0.4-13,0.1
		c-2.7-0.2-3.9-2.4-3.9-5.1c0-2.6,1.9-4.5,4.6-4.9c0.2,0,0.4-0.1,0.6-0.1C184.6,115,186.3,115,188,115.1
		C188,115,188,115.1,188,115.1z"/>
	<path class="st0" d="M145.9,142.8c0.4,2.2,0.8,4.4,1.2,6.6c0.6,3.2-1,6-3.9,6.6c-2.8,0.6-5.5-1-6.2-4.1c-0.7-3.1-1.2-6.2-1.2-9.3
		c-0.1-4.7,2-7.1,5.4-7.1C144.6,135.6,146.3,138,145.9,142.8z"/>
	<path class="st0" d="M280.2,219.4c-1.1-0.1-2.3,0-3.3-0.3c-2.5-0.7-3.8-2.4-3.7-4.9c0-2.6,1.4-4.4,4.1-4.9
		c3.4-0.7,6.8-1.2,10.2-1.8c2.8-0.5,5.2,0.9,6,3.5c0.8,2.5-0.4,5.3-3.1,6.2c-3.2,1.1-6.6,1.7-10,2.6
		C280.3,219.6,280.3,219.5,280.2,219.4z"/>
	<path class="st0" d="M189.3,219.3c-1.8,0-3.7,0.1-5.5,0c-2.8-0.2-4.4-1.9-4.7-4.7c-0.3-2.6,1.3-5,4-5.2c4.2-0.3,8.5-0.3,12.8,0
		c2.7,0.2,4,2.5,3.9,5.1c-0.1,2.6-1.6,4.5-4.3,4.7C193.4,219.4,191.4,219.2,189.3,219.3C189.3,219.3,189.3,219.3,189.3,219.3z"/>
	<path class="st0" d="M201.4,266.4c-1.8,0-3.7,0.1-5.5,0c-2.8-0.2-4.4-1.9-4.8-4.7c-0.3-2.5,1.3-5.1,4-5.3c4.1-0.4,8.3-0.4,12.5-0.1
		c2.9,0.2,4.4,2.7,4.1,5.5c-0.2,2.6-2.1,4.3-4.8,4.6c-0.2,0-0.4,0-0.6,0C204.6,266.4,203,266.4,201.4,266.4
		C201.4,266.4,201.4,266.4,201.4,266.4z"/>
	<path class="st0" d="M219.5,115.1c1.8,0,3.7-0.1,5.5,0c2.7,0.2,4.6,2.2,4.7,4.8c0,2.6-1.2,4.9-3.8,5.1c-4.3,0.3-8.7,0.4-13.1,0
		c-2.8-0.3-4-2.6-3.7-5.4c0.3-2.7,2-4.2,4.6-4.4C215.6,114.9,217.6,115.1,219.5,115.1z"/>
	<path class="st0" d="M223.7,172.6c-2-0.1-4.1-0.1-6.1-0.4c-2.7-0.5-4.4-2.7-4.1-5.2c0.3-2.6,1.6-4.5,4.4-4.7c4-0.2,7.9-0.2,11.9,0
		c2.6,0.1,4.6,2.5,4.4,5c-0.1,2.6-1.4,4.5-4.1,4.9C228,172.4,225.8,172.4,223.7,172.6z"/>
	<path class="st0" d="M255.1,161.9c2,0.1,4.1,0,6.1,0.3c2.7,0.4,4.1,2.2,4.2,4.8c0.1,2.7-1.3,4.8-3.9,5c-4.2,0.3-8.5,0.3-12.8,0
		c-2.7-0.2-4-2.4-4-5c0.1-2.6,1.5-4.5,4.2-4.8C251,162,253.1,162,255.1,161.9z"/>
	<path class="st0" d="M232.5,266.3c-1.8,0-3.7,0.2-5.5,0c-2.6-0.3-4.3-1.8-4.5-4.5c-0.3-2.8,1-5.1,3.8-5.4c4.3-0.4,8.7-0.4,13,0
		c2.6,0.2,3.8,2.5,3.7,5.2c-0.1,2.6-2,4.4-4.7,4.8c-0.2,0-0.4,0-0.6,0C236,266.4,234.3,266.4,232.5,266.3
		C232.5,266.4,232.5,266.4,232.5,266.3z"/>
	<path class="st0" d="M163.3,172.4c-1.6-0.3-4.8-0.8-8-1.6c-3.5-0.9-5.1-3.7-4.3-6.6c0.8-2.8,3.5-4.1,6.9-3.4c2.5,0.5,5,0.9,7.5,1.2
		c3.9,0.4,6.1,2.3,5.9,5.5C171.3,170.6,168.8,172.5,163.3,172.4z"/>
	<path class="st0" d="M192.7,162.1c1.8,0,3.7-0.1,5.5,0c2.9,0.2,4.3,2.1,4.7,4.8c0.3,2.4-1.5,5-4.2,5.2c-4.1,0.3-8.3,0.3-12.5,0
		c-2.7-0.2-4.2-2.6-4-5.2c0.2-2.7,1.7-4.4,4.4-4.7C188.6,162,190.6,162.2,192.7,162.1C192.7,162.1,192.7,162.1,192.7,162.1z"/>
	<path class="st0" d="M252.1,219.3c-1.9,0-3.9,0.2-5.8,0c-2.6-0.3-4.6-2.4-4.5-4.9c0.1-2.6,1.3-4.8,4.1-4.9
		c4.2-0.3,8.5-0.3,12.8,0.1c2.7,0.2,4,2.4,3.8,5.1c-0.1,2.7-1.6,4.4-4.3,4.7C256.2,219.4,254.1,219.2,252.1,219.3
		C252.1,219.2,252.1,219.3,252.1,219.3z"/>
	<path class="st0" d="M282,50.1c-0.5,15.8-13.6,28.8-29.1,28.2c-16.6-0.6-28.4-13.3-28.3-29c0.1-15.8,13.5-28.8,28.9-28.5
		C269.4,21.2,282.4,34.6,282,50.1z M271.6,49.5c-0.1-10-8.7-18.4-18.5-18.2c-9.9,0.2-18.1,8.5-18.1,18.3c0,9.9,8.4,18.4,18.4,18.3
		C263.3,67.9,271.7,59.4,271.6,49.5z"/>
	<path class="st0" d="M62.5,162c17.1,0,31.5,14.2,31.4,31.3c0,17-14.4,31.4-31.5,31.3c-17,0-31.1-14.1-31.3-31.2
		C31.1,176.4,45.3,162.1,62.5,162z M41.7,193.3c0,11.4,9.4,20.8,20.8,20.9c11.4,0.1,21.2-9.8,21-21.1c-0.2-11.5-9.6-20.7-21-20.6
		C51,172.6,41.7,181.9,41.7,193.3z"/>
</g>
</svg>
