<?xml version="1.0" encoding="utf-8"?>
<!-- Generator: Adobe Illustrator 22.0.1, SVG Export Plug-In . SVG Version: 6.00 Build 0)  -->
<svg version="1.1" id="Capa_1" xmlns="http://www.w3.org/2000/svg" xmlns:xlink="http://www.w3.org/1999/xlink" x="0px" y="0px"
	 viewBox="0 0 363.7 363.7" style="enable-background:new 0 0 363.7 363.7;" xml:space="preserve">
<style type="text/css">
	.st0{fill:#FFFFFF;}
</style>
<g>
	<path class="st0" d="M0,0v363.7h363.7V0H0z M353.5,354.7H10.3V11.5h343.2V354.7z"/>
	<g>
		<g>
			<path class="st0" d="M252.4,160.9c0-58.4-47.4-105.8-105.8-105.8c-58.4,0-105.8,47.4-105.8,105.8c0,58.4,47.4,105.8,105.8,105.8
				C205,266.8,252.4,219.4,252.4,160.9L252.4,160.9z M146.6,240.3c-43.8,0-79.4-35.6-79.4-79.4c0-43.8,35.6-79.4,79.4-79.4
				c43.8,0,79.4,35.6,79.4,79.4C226,204.7,190.4,240.3,146.6,240.3L146.6,240.3z M146.6,240.3"/>
			<path class="st0" d="M315.2,292.1l-64.7-64.7c-9.6,15-22.4,27.8-37.4,37.4l64.7,64.7c10.3,10.3,27.1,10.3,37.4,0
				C325.6,319.2,325.6,302.5,315.2,292.1L315.2,292.1z M315.2,292.1"/>
		</g>
	</g>
</g>
<g>
</g>
<g>
</g>
<g>
</g>
<g>
</g>
<g>
</g>
<g>
</g>
</svg>
