<?xml version="1.0" encoding="utf-8"?>
<!-- Generator: Adobe Illustrator 22.1.0, SVG Export Plug-In . SVG Version: 6.00 Build 0)  -->
<svg version="1.1" id="Capa_1" xmlns="http://www.w3.org/2000/svg" xmlns:xlink="http://www.w3.org/1999/xlink" x="0px" y="0px"
	 viewBox="0 0 363.7 363.7" style="enable-background:new 0 0 363.7 363.7;" xml:space="preserve">
<style type="text/css">
	.st0{fill:#7F7F7F;}
</style>
<g>
	<g>
		<g>
			<path class="st0" d="M215.9,220.2c0-2.4-1.9-4.3-4.3-4.3s-4.3,1.9-4.3,4.3v8.5c0,2.4,1.9,4.3,4.3,4.3s4.3-1.9,4.3-4.3V220.2z"/>
			<path class="st0" d="M211.7,267.1c-2.4,0-4.3,1.9-4.3,4.3v17c0,2.4,1.9,4.3,4.3,4.3s4.3-1.9,4.3-4.3v-17
				C215.9,269,214,267.1,211.7,267.1z"/>
			<path class="st0" d="M233,169.1c0-2.4-1.9-4.3-4.3-4.3c-2.4,0-4.3,1.9-4.3,4.3v8.5c0,2.4,1.9,4.3,4.3,4.3c2.4,0,4.3-1.9,4.3-4.3
				V169.1z"/>
			<path class="st0" d="M215.9,194.6c0-2.4-1.9-4.3-4.3-4.3s-4.3,1.9-4.3,4.3v8.5c0,2.4,1.9,4.3,4.3,4.3s4.3-1.9,4.3-4.3V194.6z"/>
			<path class="st0" d="M215.9,245.8c0-2.4-1.9-4.3-4.3-4.3s-4.3,1.9-4.3,4.3v8.5c0,2.4,1.9,4.3,4.3,4.3s4.3-1.9,4.3-4.3V245.8
				L215.9,245.8z"/>
			<path class="st0" d="M233,194.6c0-2.4-1.9-4.3-4.3-4.3c-2.4,0-4.3,1.9-4.3,4.3v8.5c0,2.4,1.9,4.3,4.3,4.3c2.4,0,4.3-1.9,4.3-4.3
				V194.6z"/>
			<path class="st0" d="M198.9,169.1c0-2.4-1.9-4.3-4.3-4.3c-2.4,0-4.3,1.9-4.3,4.3v8.5c0,2.4,1.9,4.3,4.3,4.3
				c2.4,0,4.3-1.9,4.3-4.3V169.1z"/>
			<path class="st0" d="M215.9,169.1c0-2.4-1.9-4.3-4.3-4.3s-4.3,1.9-4.3,4.3v8.5c0,2.4,1.9,4.3,4.3,4.3s4.3-1.9,4.3-4.3V169.1z"/>
			<path class="st0" d="M233,126.5V118c0-2.4-1.9-4.3-4.3-4.3c-2.4,0-4.3,1.9-4.3,4.3v8.5c0,2.4,1.9,4.3,4.3,4.3
				C231.1,130.7,233,128.8,233,126.5z"/>
			<path class="st0" d="M198.9,194.6c0-2.4-1.9-4.3-4.3-4.3c-2.4,0-4.3,1.9-4.3,4.3v8.5c0,2.4,1.9,4.3,4.3,4.3
				c2.4,0,4.3-1.9,4.3-4.3V194.6z"/>
			<path class="st0" d="M250,118c0-2.4-1.9-4.3-4.3-4.3s-4.3,1.9-4.3,4.3v8.5c0,2.4,1.9,4.3,4.3,4.3s4.3-1.9,4.3-4.3V118z"/>
			<path class="st0" d="M194.6,215.9c-2.4,0-4.3,1.9-4.3,4.3v8.5c0,2.4,1.9,4.3,4.3,4.3c2.4,0,4.3-1.9,4.3-4.3v-8.5
				C198.9,217.9,197,215.9,194.6,215.9z"/>
			<path class="st0" d="M267.1,245.8c0-2.4-1.9-4.3-4.3-4.3s-4.3,1.9-4.3,4.3v8.5c0,2.4,1.9,4.3,4.3,4.3s4.3-1.9,4.3-4.3V245.8
				L267.1,245.8z"/>
			<path class="st0" d="M262.8,267.1c-2.4,0-4.3,1.9-4.3,4.3v17c0,2.4,1.9,4.3,4.3,4.3s4.3-1.9,4.3-4.3v-17
				C267.1,269,265.2,267.1,262.8,267.1z"/>
			<path class="st0" d="M279.8,215.9c-2.4,0-4.3,1.9-4.3,4.3v8.5c0,2.4,1.9,4.3,4.3,4.3s4.3-1.9,4.3-4.3v-8.5
				C284.1,217.9,282.2,215.9,279.8,215.9z"/>
			<path class="st0" d="M211.7,130.7c2.4,0,4.3-1.9,4.3-4.3v-18l42.6-10.7v71.2c0,1.8,1.1,3.4,2.8,4l31.3,11.7v43.9
				c0,2.4,1.9,4.3,4.3,4.3s4.3-1.9,4.3-4.3v-46.9c0-1.8-1.1-3.4-2.8-4l-31.3-11.7v-82c0-2.4-1.9-4.3-4.3-4.3s-4.3,1.9-4.3,4.3v5.2
				l-47.9,12c-1.9,0.5-3.2,2.2-3.2,4.1v21.3C207.4,128.8,209.3,130.7,211.7,130.7z"/>
			<path class="st0" d="M284.1,194.6c0-2.4-1.9-4.3-4.3-4.3s-4.3,1.9-4.3,4.3v8.5c0,2.4,1.9,4.3,4.3,4.3s4.3-1.9,4.3-4.3V194.6z"/>
			<path class="st0" d="M267.1,194.6c0-2.4-1.9-4.3-4.3-4.3s-4.3,1.9-4.3,4.3v8.5c0,2.4,1.9,4.3,4.3,4.3s4.3-1.9,4.3-4.3V194.6z"/>
			<path class="st0" d="M233,245.8c0-2.4-1.9-4.3-4.3-4.3c-2.4,0-4.3,1.9-4.3,4.3v8.5c0,2.4,1.9,4.3,4.3,4.3c2.4,0,4.3-1.9,4.3-4.3
				V245.8z"/>
			<path class="st0" d="M267.1,220.2c0-2.4-1.9-4.3-4.3-4.3s-4.3,1.9-4.3,4.3v8.5c0,2.4,1.9,4.3,4.3,4.3s4.3-1.9,4.3-4.3V220.2z"/>
			<path class="st0" d="M228.7,267.1c-2.4,0-4.3,1.9-4.3,4.3v17c0,2.4,1.9,4.3,4.3,4.3c2.4,0,4.3-1.9,4.3-4.3v-17
				C233,269,231.1,267.1,228.7,267.1z"/>
			<path class="st0" d="M233,220.2c0-2.4-1.9-4.3-4.3-4.3c-2.4,0-4.3,1.9-4.3,4.3v8.5c0,2.4,1.9,4.3,4.3,4.3c2.4,0,4.3-1.9,4.3-4.3
				V220.2z"/>
			<path class="st0" d="M245.8,292.6c2.4,0,4.3-1.9,4.3-4.3V152c0-2-1.3-3.7-3.2-4.1l-68.2-17c-1.3-0.3-2.6,0-3.7,0.8
				c-1,0.8-1.6,2-1.6,3.4v93.7c0,2.4,1.9,4.3,4.3,4.3c2.4,0,4.3-1.9,4.3-4.3v-88.3l59.6,14.9v133
				C241.5,290.7,243.4,292.6,245.8,292.6z"/>
			<path class="st0" d="M147.8,143.5c0-2.4-1.9-4.3-4.3-4.3c-2.4,0-4.3,1.9-4.3,4.3v8.5c0,2.4,1.9,4.3,4.3,4.3
				c2.4,0,4.3-1.9,4.3-4.3V143.5z"/>
			<path class="st0" d="M147.8,118c0-2.4-1.9-4.3-4.3-4.3c-2.4,0-4.3,1.9-4.3,4.3v8.5c0,2.4,1.9,4.3,4.3,4.3c2.4,0,4.3-1.9,4.3-4.3
				V118z"/>
			<path class="st0" d="M113.7,245.8c0-2.4-1.9-4.3-4.3-4.3s-4.3,1.9-4.3,4.3v8.5c0,2.4,1.9,4.3,4.3,4.3s4.3-1.9,4.3-4.3V245.8
				L113.7,245.8z"/>
			<path class="st0" d="M75.4,207.4c2.4,0,4.3-1.9,4.3-4.3v-21.3h42.6v106.5c0,2.4,1.9,4.3,4.3,4.3c2.4,0,4.3-1.9,4.3-4.3V177.6
				c0-2.4-1.9-4.3-4.3-4.3H75.4c-2.4,0-4.3,1.9-4.3,4.3v25.6C71.1,205.5,73,207.4,75.4,207.4z"/>
			<path class="st0" d="M122.2,143.5v8.5c0,2.4,1.9,4.3,4.3,4.3c2.4,0,4.3-1.9,4.3-4.3v-8.5c0-2.4-1.9-4.3-4.3-4.3
				S122.2,141.2,122.2,143.5z"/>
			<path class="st0" d="M147.8,92.4c0-2.4-1.9-4.3-4.3-4.3c-2.4,0-4.3,1.9-4.3,4.3v8.5c0,2.4,1.9,4.3,4.3,4.3c2.4,0,4.3-1.9,4.3-4.3
				V92.4z"/>
			<path class="st0" d="M109.4,267.1c-2.4,0-4.3,1.9-4.3,4.3v17c0,2.4,1.9,4.3,4.3,4.3s4.3-1.9,4.3-4.3v-17
				C113.7,269,111.8,267.1,109.4,267.1z"/>
			<path class="st0" d="M305.4,301.2h-8.5V275c7.3-1.9,12.8-8.5,12.8-16.4c0-9.4-7.6-17-17-17s-17,7.6-17,17
				c0,7.9,5.5,14.5,12.8,16.4v26.2H181.9v-17.5c9.7-2,17-10.6,17-20.9c0-11.7-9.6-21.3-21.3-21.3s-21.3,9.6-21.3,21.3
				c0,10.3,7.3,18.9,17,20.9v17.5H79.6v-43c9.7-2,17-10.6,17-20.9c0-11.7-9.6-21.3-21.3-21.3S54,225.6,54,237.3
				c0,10.3,7.3,18.9,17,20.9v43H58.3c-2.4,0-4.3,1.9-4.3,4.3s1.9,4.3,4.3,4.3h247.1c2.4,0,4.3-1.9,4.3-4.3S307.8,301.2,305.4,301.2z
				 M62.6,237.2c0-7,5.7-12.8,12.8-12.8c7,0,12.8,5.7,12.8,12.8S82.4,250,75.4,250C68.3,250,62.6,244.3,62.6,237.2z M164.8,262.8
				c0-7,5.7-12.8,12.8-12.8s12.8,5.7,12.8,12.8c0,7-5.7,12.8-12.8,12.8S164.8,269.9,164.8,262.8z M284.1,258.5
				c0-4.7,3.8-8.5,8.5-8.5s8.5,3.8,8.5,8.5c0,4.7-3.8,8.5-8.5,8.5S284.1,263.2,284.1,258.5z"/>
			<path class="st0" d="M88.1,271.3v17c0,2.4,1.9,4.3,4.3,4.3s4.3-1.9,4.3-4.3v-17c0-2.4-1.9-4.3-4.3-4.3S88.1,269,88.1,271.3z"/>
			<path class="st0" d="M113.7,194.6c0-2.4-1.9-4.3-4.3-4.3s-4.3,1.9-4.3,4.3v8.5c0,2.4,1.9,4.3,4.3,4.3s4.3-1.9,4.3-4.3V194.6z"/>
			<path class="st0" d="M113.7,220.2c0-2.4-1.9-4.3-4.3-4.3s-4.3,1.9-4.3,4.3v8.5c0,2.4,1.9,4.3,4.3,4.3s4.3-1.9,4.3-4.3V220.2z"/>
			<path class="st0" d="M88.1,194.6v8.5c0,2.4,1.9,4.3,4.3,4.3s4.3-1.9,4.3-4.3v-8.5c0-2.4-1.9-4.3-4.3-4.3S88.1,192.3,88.1,194.6z"
				/>
			<path class="st0" d="M147.8,220.2c0-2.4-1.9-4.3-4.3-4.3c-2.4,0-4.3,1.9-4.3,4.3v8.5c0,2.4,1.9,4.3,4.3,4.3
				c2.4,0,4.3-1.9,4.3-4.3V220.2z"/>
			<path class="st0" d="M164.8,169.1c0-2.4-1.9-4.3-4.3-4.3s-4.3,1.9-4.3,4.3v8.5c0,2.4,1.9,4.3,4.3,4.3s4.3-1.9,4.3-4.3V169.1z"/>
			<path class="st0" d="M164.8,143.5c0-2.4-1.9-4.3-4.3-4.3s-4.3,1.9-4.3,4.3v8.5c0,2.4,1.9,4.3,4.3,4.3s4.3-1.9,4.3-4.3V143.5z"/>
			<path class="st0" d="M164.8,194.6c0-2.4-1.9-4.3-4.3-4.3s-4.3,1.9-4.3,4.3v8.5c0,2.4,1.9,4.3,4.3,4.3s4.3-1.9,4.3-4.3V194.6z"/>
			<path class="st0" d="M160.6,215.9c-2.4,0-4.3,1.9-4.3,4.3v8.5c0,2.4,1.9,4.3,4.3,4.3s4.3-1.9,4.3-4.3v-8.5
				C164.8,217.9,162.9,215.9,160.6,215.9z"/>
			<path class="st0" d="M164.8,118c0-2.4-1.9-4.3-4.3-4.3s-4.3,1.9-4.3,4.3v8.5c0,2.4,1.9,4.3,4.3,4.3s4.3-1.9,4.3-4.3V118z"/>
			<path class="st0" d="M147.8,245.8c0-2.4-1.9-4.3-4.3-4.3c-2.4,0-4.3,1.9-4.3,4.3v8.5c0,2.4,1.9,4.3,4.3,4.3
				c2.4,0,4.3-1.9,4.3-4.3V245.8z"/>
			<path class="st0" d="M109.4,164.8c2.4,0,4.3-1.9,4.3-4.3v-31.4l14.7-7.3c1.4-0.7,2.4-2.2,2.4-3.8V82.3L152,71.6l21.3,10.7V118
				c0,2.4,1.9,4.3,4.3,4.3c2.4,0,4.3-1.9,4.3-4.3V79.6c0-1.6-0.9-3.1-2.4-3.8l-23.2-11.6v-5.9c0-2.4-1.9-4.3-4.3-4.3
				s-4.3,1.9-4.3,4.3v5.9l-23.2,11.6c-1.4,0.7-2.4,2.2-2.4,3.8v35.7l-14.7,7.3c-1.4,0.7-2.4,2.2-2.4,3.8v34.1
				C105.2,162.9,107.1,164.8,109.4,164.8z"/>
			<path class="st0" d="M147.8,194.6c0-2.4-1.9-4.3-4.3-4.3c-2.4,0-4.3,1.9-4.3,4.3v8.5c0,2.4,1.9,4.3,4.3,4.3
				c2.4,0,4.3-1.9,4.3-4.3V194.6z"/>
			<path class="st0" d="M143.5,267.1c-2.4,0-4.3,1.9-4.3,4.3v17c0,2.4,1.9,4.3,4.3,4.3c2.4,0,4.3-1.9,4.3-4.3v-17
				C147.8,269,145.9,267.1,143.5,267.1z"/>
			<path class="st0" d="M164.8,92.4c0-2.4-1.9-4.3-4.3-4.3s-4.3,1.9-4.3,4.3v8.5c0,2.4,1.9,4.3,4.3,4.3s4.3-1.9,4.3-4.3V92.4z"/>
			<path class="st0" d="M147.8,169.1c0-2.4-1.9-4.3-4.3-4.3c-2.4,0-4.3,1.9-4.3,4.3v8.5c0,2.4,1.9,4.3,4.3,4.3
				c2.4,0,4.3-1.9,4.3-4.3V169.1z"/>
		</g>
	</g>
</g>
</svg>
