<?xml version="1.0" encoding="utf-8"?>
<!-- Generator: Adobe Illustrator 22.1.0, SVG Export Plug-In . SVG Version: 6.00 Build 0)  -->
<svg version="1.1" id="Capa_1" xmlns="http://www.w3.org/2000/svg" xmlns:xlink="http://www.w3.org/1999/xlink" x="0px" y="0px"
	 viewBox="0 0 363.7 363.7" style="enable-background:new 0 0 363.7 363.7;" xml:space="preserve">
<style type="text/css">
	.st0{fill:#7F7F7F;}
</style>
<g id="Capa_2_1_">
</g>
<g>
	<path class="st0" d="M83.4,115.2H36.8c-2.8,0-5.1,2.3-5.1,5.1v95.2c0,2.8,2.3,5.1,5.1,5.1h46.6c2.8,0,5.1-2.3,5.1-5.1v-95.2
		C88.5,117.4,86.2,115.2,83.4,115.2z"/>
	<path class="st0" d="M156.2,29h-46.6c-2.8,0-5.1,2.3-5.1,5.1v181.4c0,2.8,2.3,5.1,5.1,5.1h46.6c2.8,0,5.1-2.3,5.1-5.1V34.1
		C161.3,31.3,159,29,156.2,29z"/>
	<path class="st0" d="M132,228.8c-2.8,0-5.1,2.3-5.1,5.1v95.2c0,2.8,2.3,5.1,5.1,5.1h46.6c2.8,0,5.1-2.3,5.1-5.1v-95.2
		c0-2.8-2.3-5.1-5.1-5.1H132L132,228.8z M173.5,324h-36.4v-85.1h36.4V324z"/>
	<path class="st0" d="M202.8,140.6h29.3V93.3c0-2.8-2.3-5.1-5.1-5.1h-46.6c-2.8,0-5.1,2.3-5.1,5.1v122.2c0,2.8,2.3,5.1,5.1,5.1h17.3
		v-74.9C197.8,142.9,200.1,140.6,202.8,140.6z"/>
	<g>
		<path class="st0" d="M251.4,142.6h-17.3h-29.3c-2.8,0-5.1,2.3-5.1,5.1v74.9v106.5c0,2.8,2.3,5.1,5.1,5.1h46.6
			c2.8,0,5.1-2.3,5.1-5.1V147.7C256.5,144.9,254.3,142.6,251.4,142.6z M246.3,324h-36.4V222.6v-69.8h24.2h12.2L246.3,324L246.3,324z
			"/>
	</g>
	<path class="st0" d="M324.2,334.1c2.8,0,5.1-2.3,5.1-5.1V206.9c0-2.8-2.3-5.1-5.1-5.1h-46.6c-2.8,0-5.1,2.3-5.1,5.1v122.2
		c0,2.8,2.3,5.1,5.1,5.1L324.2,334.1L324.2,334.1z M282.8,212h36.4v112h-36.4V212z"/>
</g>
</svg>
