<?xml version="1.0" encoding="utf-8"?>
<!-- Generator: Adobe Illustrator 22.0.1, SVG Export Plug-In . SVG Version: 6.00 Build 0)  -->
<svg version="1.1" id="Capa_1" xmlns="http://www.w3.org/2000/svg" xmlns:xlink="http://www.w3.org/1999/xlink" x="0px" y="0px"
	 viewBox="0 0 319.6 314.4" style="enable-background:new 0 0 319.6 314.4;" xml:space="preserve">
<style type="text/css">
	.st0{fill:#6E6E6E;}
</style>
<g>
	<path class="st0" d="M319.6,305.7c-2.7,6.5-7.8,8.7-14.6,8.7c-35-0.1-70.1,0-105.1-0.1c-2,0-4-0.1-5.9-0.6c-4.1-1.1-7.2-3.7-8-7.9
		c-2.2-12.2,1.6-25.3,13.2-31.4c4.7-2.4,10.2-3.4,15.3-5c3.2-1,6.4-1.7,9.6-2.6c1.8-0.5,2.8-1.7,2.5-3.7c0-0.2,0-0.4,0-0.6
		c0.4-5.1-0.5-9.6-3.6-14c-4-5.6-6.1-12.5-6.1-19.4c0-8.2-2.4-16-3.8-23.9c-1.1-6.4-2.5-12.9-0.7-19.5c2.2-8.3,7.4-13.8,16-15.5
		c0.8-0.2,1.7-0.3,2.3-0.7c8.7-5.7,18.1-5.4,27.7-3.4c4.9,1,9.7,2.3,14.6,3.1c3,0.5,6.2,0.8,9.3,0.7c3.5-0.1,5.5,1.3,6.5,4.5
		c2.5,7.5,3.8,15.2,3.1,23c-1,12.5-2.6,24.9-4.2,37.4c-0.9,6.8-3.9,12.8-8,18.4c-2.7,3.7-1.2,8-1,12c0,0.8,2.4,1.7,3.9,2.1
		c4.8,1.4,9.6,2.7,14.5,3.8c12,2.6,19.3,9.8,21.9,21.9c0.1,0.3,0.3,0.5,0.5,0.8C319.6,297.7,319.6,301.7,319.6,305.7z M278.3,214.7
		c-14.8-5.1-29.9-8.1-45.5-8.4c-0.8,0-2.1,0.6-2.3,1.3c-4.2,11.7-5.1,23.3,0.8,34.7c3.9,7.4,9.5,13,18,14.7
		c9.5,1.8,19.6-4.1,24.8-13.6C278.9,234.3,278.6,224.7,278.3,214.7z M252.1,303.9C252.1,303.9,252.1,303.9,252.1,303.9
		c17.9,0,35.8-0.1,53.6,0c2.8,0,3.8-0.8,3.5-3.6c-0.1-1,0-2.1-0.1-3.1c-0.5-8.3-4.7-13.4-12.7-15.6c-2.7-0.7-5.4-1.4-8.1-2.2
		c-1.8-0.6-3-0.2-4.3,1.2c-15.1,15.6-42.4,17.6-58.8,3.4c-5.1-4.4-9.1-4.9-15-3.1c-10.3,3.2-14.3,7.9-14.5,18.8
		c-0.1,3.1,0.7,4.1,3.9,4.1C217.2,303.8,234.7,303.9,252.1,303.9z M281.2,204.2c0.7-7.4,0.8-14.8-1-22.1c-0.2-0.7-1.1-1.5-1.8-1.6
		c-7.8-1.6-15.7-3-23.5-4.5c-7.1-1.3-14.1-1.3-20.2,3.4c-0.9,0.7-2.3,0.7-3.5,0.9c-4.6,0.7-7.8,3.2-8.6,7.8
		c-0.5,3.1-0.1,6.4-0.1,9.4c1.8-0.6,3.5-1.7,5-1.6c9.1,0.6,18.3,0.9,27.3,2.3C263.5,199.5,272.1,202,281.2,204.2z M237,263.7
		c0.2,5.2-2.1,9-6.5,11.5c12.3,10.6,33.1,10.6,44,0c-4.2-2.5-6.6-6.2-6.4-11.3C254.7,268.9,250.5,269.1,237,263.7z"/>
	<path class="st0" d="M0,293.8c1.1-3,2-6.1,3.4-8.9c3.4-6.8,9-11,16.3-13c5.7-1.5,11.4-3,17.2-4.4c3-0.7,4.4-2.1,4.4-5.6
		c0-4.7-0.7-8.7-3.5-12.8c-4.5-6.6-6-14.4-6.7-22.4c-0.6-6.9-2.2-13.7-3.3-20.5c-1.1-6.8-2.6-13.5-0.9-20.4
		c2.2-8.4,7.4-13.8,16-15.5c0.8-0.2,1.7-0.3,2.3-0.7c8.7-5.7,18.1-5.4,27.7-3.3c4.9,1,9.7,2.3,14.6,3.1c3,0.5,6.2,0.7,9.3,0.7
		c3.8,0.1,5.3,0.8,6.5,4.5c3.1,9.2,4.1,18.7,2.8,28.3c-1.4,10.2-3,20.3-3.6,30.5c-0.4,7.4-3.8,13.9-8.2,19.9c-2.7,3.7-1.1,8-0.9,12
		c0,0.8,2.5,1.7,3.9,2.1c5.2,1.5,10.4,2.8,15.7,4c16.4,3.9,22.9,18.2,20.9,33.4c-0.6,4.8-3.9,7.7-8.5,8.9c-1.8,0.4-3.7,0.5-5.6,0.5
		c-35,0-70.1-0.1-105.1,0.1c-6.9,0-11.9-2.2-14.6-8.7C0,301.7,0,297.7,0,293.8z M92.9,223c0-2.1-0.1-4,0-5.9
		c0.2-1.8-0.5-2.6-2.2-3.1c-12.7-4.1-25.7-6.8-39.1-7.5c-6.5-0.3-6.6-0.2-8.4,6c-3.6,12.3-2.3,23.8,5.2,34.4
		c9.5,13.5,26.9,13.7,36.9,0.6C91.2,240.1,93.2,231.8,92.9,223z M66.8,303.9C66.8,303.9,66.8,303.9,66.8,303.9c16.9,0,33.9,0,50.8,0
		c7,0,6.1,1.2,6-6.4c-0.1-7.9-4.6-13.6-12.2-15.6c-2.8-0.8-5.6-1.4-8.4-2.3c-1.9-0.6-3.1-0.2-4.6,1.3c-14.9,15.6-42.5,17.5-58.8,3.3
		c-4.9-4.3-8.9-4.9-14.7-3c-10.6,3.3-14.5,8-14.7,19c-0.1,3.3,1.1,3.9,4.1,3.9C31.8,303.8,49.3,303.9,66.8,303.9z M95.7,203.7
		c0.8-6.8,0.7-14.2-1-21.4c-0.2-0.7-1.2-1.7-2-1.8c-7.6-1.5-15.3-2.9-22.9-4.4c-7.2-1.4-14.2-1.6-20.6,3.2c-1,0.7-2.5,0.9-3.8,1
		c-4.4,0.6-7.4,3-8.3,7.3c-0.7,3.3-0.5,6.8-0.7,10.1c2.3-0.8,3.9-1.8,5.5-1.8c6,0.1,12.1,0,18,1C71.8,198.8,83.6,201.3,95.7,203.7z
		 M44.9,275.2c12.5,10.6,32.8,10.6,44.2,0c-4.5-2.4-6.5-6.2-6.6-11.5c-10.4,5.2-20.6,5.3-31.1-0.3C51.5,268.8,49.5,272.7,44.9,275.2
		z"/>
	<path class="st0" d="M159.5,149.4c-17.6,0-35.2,0.1-52.7-0.1c-2.6,0-5.4-0.6-7.8-1.5c-3.2-1.2-5.3-3.9-5.8-7.2
		c-2.2-16.4,4.8-30.4,21.2-34.1c5.4-1.2,10.6-2.8,16-4.2c2.6-0.6,3.6-1.9,3.7-4.8c0.1-5-0.6-9.4-3.6-13.7c-4-5.7-6.1-12.4-6.1-19.4
		c0-8.8-2.8-17-4.1-25.5c-1-6.3-2.1-12.5-0.3-18.8c2.4-7.9,7.4-13.1,15.7-14.8c0.8-0.2,1.7-0.3,2.4-0.7c9-5.9,18.6-5.5,28.6-3.3
		c5.9,1.3,11.8,2.4,17.7,3.5c1.7,0.3,3.5,0.2,5.3,0.2c3.8-0.1,5.3,0.8,6.6,4.3c3.3,9.4,4.1,19.2,2.8,28.9c-1.2,9.7-3,19.2-3.5,29
		c-0.4,7.6-3.6,14.5-8.1,20.6c-2.9,3.9-1.3,8.2-1.2,12.3c0,0.7,2,1.6,3.2,1.9c5.4,1.5,10.8,2.9,16.3,4.3
		c13.2,3.4,20.8,12.8,21.2,26.5c0.4,12.5-3.3,16.3-15.8,16.3C193.8,149.4,176.6,149.4,159.5,149.4z M185.6,58.7c0-2.1-0.1-4.2,0-6.2
		c0.1-2-0.6-2.9-2.5-3.5c-12.6-4.1-25.5-6.7-38.8-7.4c-6.5-0.3-6.4-0.3-8.3,6c-3.5,12.1-2.3,23.4,4.9,33.9
		c8.7,12.7,23.4,14.6,34.6,4.1C183.2,78.3,185.9,69,185.6,58.7z M159.6,139c17.1,0,34.3,0,51.4,0c6.3,0,5.5,0.5,5.4-5.5
		c-0.1-8.8-4.7-14.7-13.2-16.9c-2.5-0.7-5.1-1.2-7.5-2c-1.9-0.6-3.1-0.2-4.6,1.3c-15,15.6-42.3,17.5-58.8,3.3c-5.1-4.4-9.1-4.9-15-3
		c-10.3,3.2-14.3,8.1-14.5,18.8c-0.1,3.2,0.8,4.1,4,4C124.5,139,142.1,139,159.6,139z M187.3,16.3c-8.4-1.7-16.1-3.3-23.8-4.9
		c-6.5-1.3-12.9-2-19.1,1.5c-2.2,1.2-4.8,1.6-7.1,2.8c-2.2,1.2-4.7,2.4-6.1,4.3c-2.8,3.8-2.2,8.4-1.6,12.5c2-0.6,3.8-1.5,5.5-1.4
		c10.3,0.8,20.7,1.5,31,3c7.5,1.1,14.9,3.5,22.4,5.4C189.5,31.5,189.2,23.6,187.3,16.3z M181.9,110.4c-4.4-2.5-6.7-6.3-6.5-11.7
		c-10.7,5.5-20.9,5.3-31.2-0.3c0.4,5.6-2.1,9.3-6.3,12C150.2,121,169.7,121,181.9,110.4z"/>
	<path class="st0" d="M56.9,145.7c2.2-35.5,17.8-63.4,47.6-83.2c3.4-2.3,6.4-1.8,8.2,0.9c1.6,2.6,0.8,5.5-2.5,7.6
		C95.8,80.3,84.7,92.4,77,107.6c-5.8,11.6-9.1,23.8-9.7,36.8c-0.1,2-0.2,4-0.4,5.9c-0.4,2.8-2.4,4.2-5,4.2c-2.7,0-4.5-1.6-4.9-4.3
		C56.7,148.7,56.9,147.2,56.9,145.7z"/>
	<path class="st0" d="M262.8,145.8c0,1.1,0,2.3,0,3.4c-0.2,3.1-2.3,5.3-5.1,5.3c-2.7,0-4.7-1.9-5-4.9c-0.6-5.6-0.7-11.2-1.7-16.7
		c-4.6-25.3-17.7-45.1-38.6-59.9c-1.2-0.8-2.5-1.6-3.6-2.5c-2.5-1.9-3.1-4.8-1.6-7.1c1.6-2.5,4.7-3.3,7.3-1.3
		c6.6,5,13.4,9.9,19.3,15.7C251.6,95.6,262.4,121.4,262.8,145.8z"/>
	<path class="st0" d="M159.8,252.8c-14.7-0.5-28.7-3.4-42.1-9.4c-3.5-1.6-5-4.1-3.9-7c1.1-2.9,4.1-4,7.6-2.5
		c11.4,4.9,23.2,7.8,35.6,8.1c12.9,0.3,25.5-1.7,37.4-6.7c1.4-0.6,2.9-1.2,4.4-1.7c3-1,5.7,0.1,6.8,2.6c1.2,2.7,0.1,5.8-3.1,6.9
		c-7.8,2.7-15.7,5.5-23.7,7.4C172.7,251.9,166.2,252.1,159.8,252.8z"/>
</g>
</svg>
