<?xml version="1.0" encoding="utf-8"?>
<!-- Generator: Adobe Illustrator 22.0.1, SVG Export Plug-In . SVG Version: 6.00 Build 0)  -->
<svg version="1.1" id="Capa_1" xmlns="http://www.w3.org/2000/svg" xmlns:xlink="http://www.w3.org/1999/xlink" x="0px" y="0px"
	 viewBox="0 0 363.7 363.7" style="enable-background:new 0 0 363.7 363.7;" xml:space="preserve">
<style type="text/css">
	.st0{fill:#FFFFFF;}
</style>
<g>
	<path class="st0" d="M0,0v363.7h363.7V0H0z M353.5,354.7H10.3V11.5h343.2V354.7z"/>
	<g>
		<path class="st0" d="M56.5,183.6c-3.7,0-6.7,3-6.7,6.7v124.3c0,3.7,3,6.7,6.7,6.7h60.7c3.7,0,6.7-3,6.7-6.7V190.2
			c0-3.7-3-6.7-6.7-6.7H56.5z M110.6,307.8H63.1v-111h47.5V307.8z M110.6,307.8"/>
		<path class="st0" d="M144.9,77.8v236.7c0,3.7,3,6.7,6.7,6.7h60.7c3.7,0,6.7-3,6.7-6.7V77.8c0-3.7-3-6.7-6.7-6.7h-60.8
			C147.8,71.2,144.9,74.1,144.9,77.8L144.9,77.8z M158.1,84.4h47.5v223.5h-47.5V84.4z M158.1,84.4"/>
		<path class="st0" d="M307.3,321.1c3.7,0,6.7-3,6.7-6.7V155c0-3.7-3-6.7-6.7-6.7h-60.7c-3.7,0-6.7,3-6.7,6.7v159.5
			c0,3.7,3,6.7,6.7,6.7L307.3,321.1L307.3,321.1z M253.2,161.7h47.5v146.2h-47.5V161.7z M253.2,161.7"/>
	</g>
</g>
<g>
</g>
<g>
</g>
<g>
</g>
<g>
</g>
<g>
</g>
<g>
</g>
</svg>
