<svg id="Capa_1" data-name="Capa 1" xmlns="http://www.w3.org/2000/svg" viewBox="0 0 110 100"><defs><style>.cls-1{fill:#363636;}</style></defs><title>Mesa de trabajo 7</title><path class="cls-1" d="M23.66,13.47a.45.45,0,0,0,.14-.61c-.08-.16-.3-.17-.2-.19,1.13-.27,1.74-1.93,1.71-2.57A2.26,2.26,0,0,0,28.16,10,2,2,0,0,0,28,7.05a1.87,1.87,0,0,0-2.09,0,1.07,1.07,0,0,0-.87-.54,2.05,2.05,0,0,0-.43-1.35,2.18,2.18,0,0,0-2.75,0,1.93,1.93,0,0,0-2.56,2A3.42,3.42,0,0,0,17.62,7a2,2,0,0,0-1.12.64,3.89,3.89,0,0,0-.25.4,1.78,1.78,0,0,0-.19,1,1.76,1.76,0,0,0,.84,1.43,3,3,0,0,0,1.74.26,1.36,1.36,0,0,0,.72-.39c.07-.08.12-.2.23-.2a1.41,1.41,0,0,0,.9,1.43s0,.08,0,.14a1.32,1.32,0,0,0,1.12,1.13c-.36.21-.21.52-.12.68a4,4,0,0,1,1.07-.18A3.82,3.82,0,0,1,23.66,13.47Z"/><path class="cls-1" d="M20.6,14.22a2.78,2.78,0,0,1-.44.14l-.26,0a1.32,1.32,0,0,1-.87-.32.29.29,0,0,0-.17-.08h0l0,0s-.53.32-.75.47a.29.29,0,0,0-.13.2.31.31,0,0,0,.09.26,3.59,3.59,0,0,1,.81,2.14A3.15,3.15,0,0,1,18.29,19a2.23,2.23,0,0,0,2.19,3.37c.13,0,1.32,0,1.73.78,0,0,.21.34.28.49l.1.18.09-.18a4.89,4.89,0,0,1,.29-.49c.4-.75,1.59-.78,1.72-.78A2.24,2.24,0,0,0,26.89,19a3.18,3.18,0,0,1-.53-1.93,3.5,3.5,0,0,1,.81-2.12.31.31,0,0,0,.09-.26.3.3,0,0,0-.12-.19L26.4,14l0,0h0a.29.29,0,0,0-.17.08,1.32,1.32,0,0,1-.87.32l-.25,0a2.56,2.56,0,0,1-.65-.24L24,14h0a3.35,3.35,0,0,0-2.77,0h0L21,14ZM21.74,17l.72-2.38L23.18,17h2.55l-2.07,1.49.79,2.34-2-1.51-2,1.51.79-2.34L19.19,17h2.55Z"/><path class="cls-1" d="M40.24,26.91c-.26-.31-1-.16-1-.16a1,1,0,0,0-.65-1.39.91.91,0,0,0-.76.07h0l-.07.06a.56.56,0,0,0-.15.37.53.53,0,0,0,.53.53.55.55,0,0,0,.31-.1.56.56,0,0,0,.21-.31.51.51,0,0,1,.19.24c.3.94-.76,1.28-.76,1.28a4.14,4.14,0,0,1-3.76-.5l.41-.22a1,1,0,0,1,.37-.08.15.15,0,0,0,0,.07.47.47,0,0,0,.93,0,.49.49,0,0,0-.1-.29c-.27-.41-1.21-.13-1.21-.13a1.73,1.73,0,0,0,0-1.34,1.27,1.27,0,0,0-1.46-.61.65.65,0,0,0-.44.43c-.14.71.45.77.45.77a.36.36,0,0,0,.43-.33c.05-.33-.42-.34-.42-.34.4-.69,1.64.44.83,1.44-.09.1-.17,0-.17,0A16.73,16.73,0,0,1,31.47,25c0-.4-.38-.6-.31-.7s.26.08.38-.1.13-.68.21-1.13a4.12,4.12,0,0,0,2.61.34.3.3,0,0,0,.2-.3c0-.49-1.24-3.37-1.28-4.39.6.3,1-.63,1.08-.91.81.37,1.08,7.85,1.7,8.1.31.13.44-.38.47-.48a24.56,24.56,0,0,0,1-7.67,20.93,20.93,0,0,0-.65-4.63c-.25-.87-.74-2.63-1.88-2.87a.81.81,0,0,0-.93.83c0,.38.28.57.16.95a3,3,0,0,0-.36.8c-.07.28.18.39.1.69-.36-.06-.54.26-1.11.12.37-.18.38-1.23-.08-1.41-.07,0-.14,0-.16-.1a1.46,1.46,0,0,0,.22-.31,1.44,1.44,0,0,0,.06-1.36c.18,0,.38-.33.41-.6h0v0h0a1.2,1.2,0,0,1,.1-.54.14.14,0,0,0-.06-.19.15.15,0,0,0-.19.07c-.11.24-.38.11-.27-.13a.14.14,0,0,0-.06-.19.13.13,0,0,0-.18.07c-.11.23-.37.1-.26-.13a.15.15,0,0,0-.07-.19.14.14,0,0,0-.18.07c-.11.24-.38.11-.27-.13a.15.15,0,0,0-.06-.19.15.15,0,0,0-.19.07,1.15,1.15,0,0,1-.32.45c-.26.05-.19.34-.16.53a.68.68,0,0,0-.84.58h-.05c-.39,0-.77.22-.74.58a.65.65,0,0,0,.35.46s0-.22.18-.23a.53.53,0,0,1,.49.32c0,.2-.12.68.51.75,0,0,0,.1,0,.21a1.74,1.74,0,0,0-.51,0c-.41.07-1,.29-1.09.69a.76.76,0,0,0,0,.31c0,.08.08.18.07.28s-.09.15-.12.18a1.27,1.27,0,0,1-.75.36.9.9,0,0,1-.72-.35c-.41-.54.11-1.48.11-1.83,0-.94-1.21-.38-1.67-.14a4.53,4.53,0,0,0-1.38,1.23,4.33,4.33,0,0,0-.55.84s-.06.06-.11.06a2.94,2.94,0,0,0,1,.27,1.59,1.59,0,0,0,1.12-.3.27.27,0,0,1,.16-.06.29.29,0,0,1,.18.07l.13.11.15.12.09.07.24.19.05,0,.26.2.24.17h0s0,0,0,.06a.16.16,0,0,1,0,.12l-.12.15A4.84,4.84,0,0,0,27.11,16a1.44,1.44,0,0,0,1.12.85.6.6,0,0,0,.66-.48l0,0a9.63,9.63,0,0,0,.59,1.56c-.28.13-.73.59-.49,1.83a10.65,10.65,0,0,1-.88-.73,1.36,1.36,0,0,0-1.08-.93,5.52,5.52,0,0,0,.48,1.06,3.1,3.1,0,0,1,.3,1.7c.29-.3.25-1.14.25-1.14l.06,0c.06,0,.36.57.87.69a6.59,6.59,0,0,0,2.14,2.32c0,.28,0,.94-.15.94-.57.12-1.1-.26-1.6-.24l-.09,0c-2.16-1-5,1.2-5.49,1.63-.25.23-.54-.08-.54-.08a.8.8,0,0,0-1.23,0s-.29.31-.54.08c-.45-.41-3-2.41-5.15-1.73,0-.11-.29-.17-.37-.2a3.17,3.17,0,0,1-.42-.23,2.71,2.71,0,0,0-.86-.08,1.06,1.06,0,0,1-.34-.12,3.37,3.37,0,0,1-.94-.77l-.13-.18a1.36,1.36,0,0,1-.24-.45A3.34,3.34,0,0,1,13.2,20c0-.31,0-.33.06-.67a3.94,3.94,0,0,0,2.2-2,2.28,2.28,0,0,0,.11-.21h.19c.53,0,.9-.29,1.48-.22,0,0,.08.28.46.43a2.23,2.23,0,0,0,.19,1,.85.85,0,0,0,.1.14,3.83,3.83,0,0,0,.32-1.39.23.23,0,0,1,0-.11,1.26,1.26,0,0,0-.72-1,3.36,3.36,0,0,1-.43-.2,1.53,1.53,0,0,1-.57-.56l.14-.16a3.27,3.27,0,0,0,.7-1.6c.29-.39,1.08-.24,1.39-.18a.53.53,0,0,1,.27.08c.08.06.1.2.22.25a1,1,0,0,0,.42,0,.86.86,0,0,1,.13.23,1.07,1.07,0,0,0,.12.16A3.22,3.22,0,0,0,21,13.65L21,13.6a1.22,1.22,0,0,0-.65-.49c-.3,0-.36-.31-.64-.37a1.12,1.12,0,0,0-.41,0,7,7,0,0,1-1.66-.19c-.56,0-.58.34-.78.65a1.87,1.87,0,0,1-.26.35c-.15.15-.33.15-.52.29L16,13.58a2.08,2.08,0,0,0-.25-.58,2,2,0,0,0-1.33-1,.63.63,0,0,1-.23-.13.12.12,0,0,1,0-.2c.19-.11.52-.07.74-.17.54-.25.35-.7.14-.74a4.73,4.73,0,0,1-.86-.24c-.13-.08-.35-.49-.57-.59s-.15-.45-.37-.53a.71.71,0,0,0-.38.1c0-.08-.07-.51-.31-.66s-.25.06-.24.17.27.22.31.63l-.13.08a.84.84,0,0,0-.28-.54c-.18-.1-.25.06-.24.17s.23.2.3.55l-.15.13c-.36-.09-.46-.34-.55-.36s-.27,0-.18.22a.87.87,0,0,0,.52.35l-.1.12c-.42-.09-.52-.36-.61-.38s-.27,0-.19.22.6.37.64.38a.46.46,0,0,0-.09.29c-.33,0-.9.13-.79.52.1.08.49-.24.84-.06a1.27,1.27,0,0,0,.69.44,1,1,0,0,1,.21.46,4,4,0,0,0,.51.84,10.66,10.66,0,0,0,.62.89.51.51,0,0,1,0,.26,8,8,0,0,1-1.25,1.1c-.3.28-3.1,2.41-3.45,3.34a2,2,0,0,0-.12.76c-.17.09-.54.24-.66.07s.2-.53.11-.82A.22.22,0,0,0,8,18.56a.94.94,0,0,0,.1,1.59c.49.2.56-.32.94-.11.09.05,1,.84.83,1.47a1,1,0,0,1-.07.15,9.29,9.29,0,0,1-.74.65c-.46.3.44,2.14.37,3.09-.05.36.3.32.51.88a.66.66,0,0,0-.54.22.43.43,0,0,0-.1.29.47.47,0,0,0,.93,0,.15.15,0,0,0,0-.07,1,1,0,0,1,.37.08L11,27a4.14,4.14,0,0,1-3.76.5s-1.06-.34-.76-1.28A.51.51,0,0,1,6.66,26a.56.56,0,0,0,.21.31.55.55,0,0,0,.31.1.53.53,0,0,0,.53-.53.56.56,0,0,0-.15-.37l-.07-.06h0a.87.87,0,0,0-.76-.08,1,1,0,0,0-.65,1.39s-.69-.15-.95.16a.38.38,0,0,0-.08.26H5a.46.46,0,0,0,.07.23.4.4,0,0,0,.64,0h0s.12-.09.24,0c1.55,1.62,4.07,1,5.47-.13a8.74,8.74,0,0,1,1.64-1.26c.34.15.7.25,1.05.38a3.28,3.28,0,0,0,.64,2.06.77.77,0,0,1-1.07.33.55.55,0,0,1-.07-.84s.28-.23.4.06a.27.27,0,0,0-.26.27.27.27,0,0,0,.27.27.27.27,0,0,0,.27-.25.66.66,0,0,0-.22-.6.68.68,0,0,0-.61-.16c-.59.09-.92,1.32.24,1.83,0,0,.91.41,1.38-.27,0,0,0-.1.17.07,1,.94,3.12.67,4,0a3.7,3.7,0,0,1,.45-.25.67.67,0,0,0,1.34,0,.68.68,0,0,0-.55-.66,1.43,1.43,0,0,0-1.07.25,4.08,4.08,0,0,1-.62.35,3.8,3.8,0,0,0,.45-1.32c.94.1,1.91.17,2.91.19a3.18,3.18,0,0,1-.17.92s-.35.14-.36.39c0,0,0,.18.27.44a1.79,1.79,0,0,1,.3.44s0,.28.39.28h.15c.37,0,.39-.28.39-.28a1.79,1.79,0,0,1,.3-.44c.31-.26.27-.44.27-.44,0-.25-.36-.39-.36-.39a2.87,2.87,0,0,1-.16-.92c1,0,2-.09,2.9-.19a3.81,3.81,0,0,0,.46,1.32,4.13,4.13,0,0,1-.63-.35,1.43,1.43,0,0,0-1.07-.25A.67.67,0,0,0,25,29.66a.67.67,0,0,0,.67-.65,4.37,4.37,0,0,1,.46.25c.85.64,3,.91,4,0,.18-.17.17-.07.17-.07.47.68,1.39.27,1.39.27,1.15-.51.82-1.74.24-1.83a.69.69,0,0,0-.62.16.66.66,0,0,0-.22.6.27.27,0,0,0,.27.25.27.27,0,0,0,.27-.27.27.27,0,0,0-.26-.27c.12-.29.4-.06.4-.06a.55.55,0,0,1-.07.84.75.75,0,0,1-1.06-.33,3.46,3.46,0,0,0,.64-2.06c.35-.12.7-.23,1-.38a8.37,8.37,0,0,1,1.64,1.26c1.4,1.08,3.92,1.75,5.47.13.13-.13.21-.08.24,0h0a.4.4,0,0,0,.64,0,.46.46,0,0,0,.07-.23h0A.38.38,0,0,0,40.24,26.91Zm-28.89-.48s-.08.06-.17,0c-.81-1,.43-2.13.83-1.44,0,0-.47,0-.42.34a.36.36,0,0,0,.43.33s.59-.06.45-.77a.65.65,0,0,0-.43-.43,1.29,1.29,0,0,0-1.47.61,1.7,1.7,0,0,0-.1.54.92.92,0,0,0-.4-.19,5.13,5.13,0,0,1-.32-2.69,2.7,2.7,0,0,0,2.13-2,.84.84,0,0,1,.52.62c0,.22-.07.44,0,.61a3.41,3.41,0,0,0,.85.66,16.76,16.76,0,0,0,1.38,1c.17,0,.27-.08.41-.06a.25.25,0,0,1,.12.08l.2.17a10,10,0,0,0-1.21.95A10.21,10.21,0,0,1,11.35,26.43Zm3.86,1.11a2.34,2.34,0,0,1-.18.53,3.36,3.36,0,0,1-.37-1.42l.78.25A3.7,3.7,0,0,0,15.21,27.54ZM18.29,29a2.71,2.71,0,0,1-2.77-.52A5.81,5.81,0,0,1,15.9,27a25.65,25.65,0,0,0,2.85.53C18.68,28.17,18.55,29,18.29,29Zm-1.63-3.19a1.8,1.8,0,0,1,1.27-.52.93.93,0,0,1,.87.9C18,26.09,17.28,26,16.66,25.82Zm1.64-1a3.66,3.66,0,0,0-2.06.93c-.49-.12-.94-.24-1.29-.35a2.57,2.57,0,0,1,.26-.41,3.4,3.4,0,0,1,3.88-.74C19.14,24.22,19,24.63,18.3,24.78Zm1.14,1.51c.11-1,.18-1.83.54-1.83a.63.63,0,0,1,.44.25c.31.44,1.16,1,1.54,1.75C21.06,26.43,20.21,26.38,19.44,26.29Zm3.95.17c.39-.79,1.23-1.31,1.54-1.75a.63.63,0,0,1,.44-.25c.36,0,.44.84.54,1.83C25.14,26.38,24.29,26.43,23.39,26.46Zm2.87-2.25a3.4,3.4,0,0,1,3.88.74,2.57,2.57,0,0,1,.26.41c-.35.11-.79.23-1.29.36a3.63,3.63,0,0,0-2.06-.94C26.37,24.63,26.21,24.22,26.26,24.21Zm1.16,1.09a1.78,1.78,0,0,1,1.27.52c-.61.14-1.34.27-2.14.39C26.69,25.29,27.42,25.3,27.42,25.3ZM27.07,29c-.26,0-.4-.84-.47-1.47A22.83,22.83,0,0,0,29.45,27a6.22,6.22,0,0,1,.39,1.48A2.71,2.71,0,0,1,27.07,29Zm3.25-.94a2.34,2.34,0,0,1-.18-.53,3.7,3.7,0,0,0-.23-.64c.27-.07.52-.16.78-.25A3.36,3.36,0,0,1,30.32,28.07Z"/><path class="cls-1" d="M54.05,94.52a4,4,0,0,1-1.76.44c-1.46,0-2.2-1-2.2-2.56a2.15,2.15,0,0,1,2.26-2.46,2.75,2.75,0,0,1,1.6.43l-.39.72a2.17,2.17,0,0,0-1.2-.31c-.88,0-1.27.64-1.27,1.61,0,1.15.42,1.76,1.26,1.76a1.91,1.91,0,0,0,.82-.15v-.9h-.66l-.06-.71h1.6Z"/><path class="cls-1" d="M58,93.11c0,1.2-.6,1.85-1.66,1.85s-1.66-.64-1.66-1.85a1.67,1.67,0,1,1,3.32,0Zm-1,0c0-.85-.25-1.15-.69-1.15s-.68.3-.68,1.15.22,1.15.68,1.15S57,94,57,93.11Z"/><path class="cls-1" d="M59.57,91.71a1.23,1.23,0,0,1,.94-.43c.83,0,1.43.59,1.43,1.83S61.22,95,60.39,95a1.16,1.16,0,0,1-1-.5l-.18.43h-.5v-5h1v1.23Zm.07,2.19a.83.83,0,0,0,.64.36c.41,0,.71-.3.71-1.15S60.72,92,60.29,92a1,1,0,0,0-.65.28Z"/><path class="cls-1" d="M62.94,94.89V92l-.41-.09v-.59h1.35v3.54Zm0-5h1v.85h-1Z"/><path class="cls-1" d="M65.54,93.37a.8.8,0,0,0,.91.87,2.35,2.35,0,0,0,1-.29l.18.66a2.86,2.86,0,0,1-1.33.35,1.65,1.65,0,0,1-1.74-1.85c0-1.09.52-1.83,1.66-1.83s1.48.79,1.48,1.68v.41Zm.67-1.4c-.47,0-.67.42-.67.84h1.29C66.83,92.36,66.7,92,66.21,92Z"/><path class="cls-1" d="M70.46,92.14a1.42,1.42,0,0,0-.44-.06,1,1,0,0,0-.63.24v2.57h-.94V91.35h.66l.1.48h0a.93.93,0,0,1,.84-.55,1.66,1.66,0,0,1,.41,0Z"/><path class="cls-1" d="M73.22,94.89v-2.1c0-.54-.2-.79-.63-.79a1.13,1.13,0,0,0-.62.22v2.67H71V91.35h.65l.15.4a1.45,1.45,0,0,1,1.12-.47c.89,0,1.25.52,1.25,1.42v2.19Z"/><path class="cls-1" d="M78.13,93.11c0,1.2-.61,1.85-1.66,1.85s-1.66-.64-1.66-1.85a1.67,1.67,0,1,1,3.32,0Zm-1,0c0-.85-.25-1.15-.69-1.15s-.68.3-.68,1.15.22,1.15.68,1.15S77.16,94,77.16,93.11Z"/><path class="cls-1" d="M82.71,91.62a2.08,2.08,0,0,1-.09-.65V89.91h.94v5H82.8l-.11-.39a1.15,1.15,0,0,1-.94.46c-.8,0-1.44-.58-1.44-1.84s.66-1.84,1.52-1.84A1.17,1.17,0,0,1,82.71,91.62Zm-.09.54A1.19,1.19,0,0,0,82,92c-.44,0-.73.31-.73,1.13s.27,1.16.72,1.16a.9.9,0,0,0,.65-.3Z"/><path class="cls-1" d="M85.22,93.37a.8.8,0,0,0,.91.87,2.35,2.35,0,0,0,1-.29l.18.66A2.9,2.9,0,0,1,86,95a1.64,1.64,0,0,1-1.73-1.85c0-1.09.52-1.83,1.66-1.83s1.48.79,1.48,1.68v.41Zm.66-1.4c-.46,0-.66.42-.66.84h1.29C86.51,92.36,86.38,92,85.88,92Z"/><path class="cls-1" d="M91.72,95c-1.37,0-2.11-.91-2.11-2.54s.73-2.48,2.11-2.48a3.13,3.13,0,0,1,1.66.41l-.36.77a2,2,0,0,0-1.2-.34c-.81,0-1.21.57-1.21,1.64s.4,1.7,1.2,1.7a2.23,2.23,0,0,0,1.28-.45l.31.77A2.93,2.93,0,0,1,91.72,95Z"/><path class="cls-1" d="M94,94.89v-5H95v1.3a1.63,1.63,0,0,1-.09.55,1.24,1.24,0,0,1,1-.48c1,0,1.29.52,1.29,1.42v2.19h-1V92.78c0-.51-.2-.78-.63-.78a1.09,1.09,0,0,0-.63.22v2.67Z"/><path class="cls-1" d="M98.24,94.89V92l-.41-.09v-.59h1.35v3.54Zm0-5h1v.85h-1Z"/><path class="cls-1" d="M100,94v-4H101v4c0,.29.18.34.57.34v.66A2.79,2.79,0,0,1,101,95C100.3,95,100,94.58,100,94Z"/><path class="cls-1" d="M103,93.37a.79.79,0,0,0,.9.87,2.31,2.31,0,0,0,1-.29l.18.66a2.86,2.86,0,0,1-1.33.35A1.65,1.65,0,0,1,102,93.11c0-1.09.53-1.83,1.66-1.83s1.49.79,1.49,1.68v.41Zm.66-1.4c-.47,0-.66.42-.66.84h1.29C104.26,92.36,104.12,92,103.63,92Z"/><path class="cls-1" d="M109,99H45.68V1H109ZM44.66,99H1V1H44.66ZM0,100H110V0H0Z"/><path class="cls-1" d="M53.56,19l-.08-3.24h0c-.07.41-.14.71-.19.93L52.73,19h-1.1l-.52-2.31c0-.22-.12-.52-.19-.93h0l0,3.24h-.68l.15-3.84h1.28s.42,1.94.64,3.17h0c.26-1.23.76-3.17.76-3.17h1.26L54.4,19Z"/><path class="cls-1" d="M55.27,19V16.79L55,16.72v-.46H56V19Zm0-3.92H56v.68h-.75Z"/><path class="cls-1" d="M58.41,19V17.39c0-.42-.16-.62-.5-.62a.87.87,0,0,0-.49.17V19h-.74V16.26h.51l.11.31a1.19,1.19,0,0,1,.88-.37c.71,0,1,.41,1,1.12V19Z"/><path class="cls-1" d="M60,19V16.79l-.32-.07v-.46h1.06V19Zm0-3.92h.75v.68H60Z"/><path class="cls-1" d="M62.06,17c0,.43,1.2.3,1.2,1.21,0,.5-.37.9-1.1.9a1.74,1.74,0,0,1-.83-.21l.15-.52a1.23,1.23,0,0,0,.66.2c.25,0,.41-.14.41-.31,0-.5-1.19-.33-1.19-1.28,0-.41.31-.78,1.06-.78a2.5,2.5,0,0,1,.79.13l-.1.54a1.78,1.78,0,0,0-.67-.14C62.18,16.73,62.06,16.83,62.06,17Z"/><path class="cls-1" d="M64.87,19.1c-.49,0-.82-.24-.82-.94V16.78h-.41v-.52h.41v-.49l.74-.24v.73h.74v.52h-.74v1.37c0,.19.09.32.29.32a.94.94,0,0,0,.43-.11l.11.55A1.64,1.64,0,0,1,64.87,19.1Z"/><path class="cls-1" d="M66.73,17.85a.63.63,0,0,0,.72.68,1.84,1.84,0,0,0,.82-.23l.14.52a2.19,2.19,0,0,1-1,.28A1.3,1.3,0,0,1,66,17.64c0-.86.41-1.44,1.31-1.44s1.17.62,1.17,1.32v.33Zm.53-1.11c-.37,0-.53.34-.53.67h1C67.75,17.05,67.64,16.74,67.26,16.74Z"/><path class="cls-1" d="M70.61,16.87a1.69,1.69,0,0,0-.35,0,.77.77,0,0,0-.5.19v2H69V16.26h.52l.08.37h0a.73.73,0,0,1,.66-.43,1.58,1.58,0,0,1,.32,0Z"/><path class="cls-1" d="M71.28,19V16.79L71,16.72v-.46H72V19Zm0-3.92H72v.68h-.75Z"/><path class="cls-1" d="M75.2,17.64c0,.95-.48,1.46-1.31,1.46s-1.31-.5-1.31-1.46a1.32,1.32,0,1,1,2.62,0Zm-.77,0c0-.67-.19-.9-.54-.9s-.54.24-.54.9.18.91.54.91S74.43,18.31,74.43,17.64Z"/><path class="cls-1" d="M78.8,16.47a1.9,1.9,0,0,1-.07-.51v-.84h.74V19h-.6l-.09-.31a.89.89,0,0,1-.73.37c-.63,0-1.14-.46-1.14-1.45s.52-1.45,1.2-1.45A.89.89,0,0,1,78.8,16.47Zm-.07.42a1,1,0,0,0-.5-.13c-.36,0-.58.23-.58.88s.21.92.57.92a.72.72,0,0,0,.51-.24Z"/><path class="cls-1" d="M80.78,17.85a.63.63,0,0,0,.71.68,1.77,1.77,0,0,0,.82-.23l.14.52a2.19,2.19,0,0,1-1,.28A1.3,1.3,0,0,1,80,17.64c0-.86.42-1.44,1.31-1.44s1.17.62,1.17,1.32v.33Zm.52-1.11c-.37,0-.52.34-.52.67h1C81.79,17.05,81.69,16.74,81.3,16.74Z"/><path class="cls-1" d="M50.23,25.85V22h2.36v.63H51v.94h1.23l-.06.66H51v1h1.61v.62Z"/><path class="cls-1" d="M55,23.29a1.64,1.64,0,0,1-.07-.52v-.84h.74v3.92H55l-.09-.3a.9.9,0,0,1-.74.36c-.63,0-1.13-.45-1.13-1.45S53.59,23,54.27,23A.87.87,0,0,1,55,23.29Zm-.07.42a1,1,0,0,0-.5-.14c-.36,0-.58.24-.58.89s.21.91.56.91a.72.72,0,0,0,.52-.24Z"/><path class="cls-1" d="M58.24,25.85l-.11-.34a1.1,1.1,0,0,1-.87.4c-.69,0-1-.39-1-1.15V23.07H57v1.69c0,.43.15.58.48.58a.88.88,0,0,0,.5-.16V23.07h.76v2.78Z"/><path class="cls-1" d="M61.56,25.67a2.22,2.22,0,0,1-1,.24c-.83,0-1.33-.47-1.33-1.45A1.28,1.28,0,0,1,60.6,23a2,2,0,0,1,1,.23l-.2.51a1.34,1.34,0,0,0-.69-.18c-.39,0-.64.27-.64.89s.24.89.64.89a1.7,1.7,0,0,0,.76-.21Z"/><path class="cls-1" d="M63.77,25.85l-.1-.33a1,1,0,0,1-.81.39.87.87,0,0,1-.94-.89c0-.52.39-.83,1.06-.83h.58v-.14c0-.36-.2-.47-.49-.47a2,2,0,0,0-.83.19l-.19-.53a2.81,2.81,0,0,1,1.1-.23c.79,0,1.13.37,1.13,1.08v1.76Zm-.21-1.21H63.1c-.31,0-.45.14-.45.36a.37.37,0,0,0,.42.4.86.86,0,0,0,.49-.18Z"/><path class="cls-1" d="M67.14,25.67a2.28,2.28,0,0,1-1,.24c-.83,0-1.33-.47-1.33-1.45A1.28,1.28,0,0,1,66.18,23a1.88,1.88,0,0,1,.95.23l-.19.51a1.38,1.38,0,0,0-.7-.18c-.39,0-.63.27-.63.89s.23.89.64.89a1.62,1.62,0,0,0,.75-.21Z"/><path class="cls-1" d="M67.86,25.85V23.6l-.32-.07v-.46H68.6v2.78Zm0-3.92h.75v.68h-.75Z"/><path class="cls-1" d="M71.77,24.46c0,.94-.48,1.45-1.3,1.45s-1.31-.5-1.31-1.45a1.31,1.31,0,1,1,2.61,0Zm-2-1.82-.08-.43,1.44-.4.1.54ZM71,24.46c0-.67-.2-.91-.54-.91s-.54.24-.54.91.17.9.54.9S71,25.12,71,24.46Z"/><path class="cls-1" d="M74.05,25.85V24.2c0-.42-.15-.62-.5-.62a.92.92,0,0,0-.48.17v2.1h-.75V23.07h.51l.12.32a1.14,1.14,0,0,1,.88-.38c.7,0,1,.42,1,1.12v1.72Z"/><path class="cls-1" d="M52.87,11.23c-1.7,0-2.62-1.13-2.62-3.15S51.16,5,52.87,5a3.78,3.78,0,0,1,2.06.51l-.44,1A2.59,2.59,0,0,0,53,6c-1,0-1.51.71-1.51,2S52,10.19,53,10.19a2.88,2.88,0,0,0,1.6-.55l.37.95A3.59,3.59,0,0,1,52.87,11.23Z"/><path class="cls-1" d="M58,11.23c-2,0-2.57-1.51-2.57-3.16S56,5,58,5,60.6,6.46,60.6,8.07,60,11.23,58,11.23ZM58,6C57,6,56.68,7,56.68,8.06S57,10.25,58,10.25s1.35-1,1.35-2.19S59.07,6,58,6Z"/><path class="cls-1" d="M64.5,11.14,62.62,6.38h0l.08,4.76H61.6V5.09h1.81L65.32,10h0l-.08-4.86h1.09v6.05Z"/><path class="cls-1" d="M67.69,11.14V5.09h1.17v6.05Z"/><path class="cls-1" d="M72.6,11.23C70.9,11.23,70,10.1,70,8.08S70.89,5,72.6,5a3.78,3.78,0,0,1,2.06.51l-.44,1A2.59,2.59,0,0,0,72.73,6c-1,0-1.51.71-1.51,2s.5,2.11,1.49,2.11a2.88,2.88,0,0,0,1.6-.55l.37.95A3.59,3.59,0,0,1,72.6,11.23Z"/><path class="cls-1" d="M78,9v2.1H76.83V9L75,5.09H76.5l1,2.73h0l1.17-2.73h1.29Z"/><path class="cls-1" d="M82.92,6.08v5.06H81.7V6.08H80.24v-1h4.19v1Z"/></svg>