<svg id="Capa_1" data-name="Capa 1" xmlns="http://www.w3.org/2000/svg" viewBox="0 0 74.02 100"><defs><style>.cls-1{fill:#363636;}</style></defs><title>Mesa de trabajo 3</title><path class="cls-1" d="M49.15,44.68a.77.77,0,1,0-.77-.76.77.77,0,0,0,.77.76"/><path class="cls-1" d="M24.84,74.52a.23.23,0,1,0,0,.45.22.22,0,0,0,.22-.22.22.22,0,0,0-.22-.23"/><path class="cls-1" d="M34.35,75a.23.23,0,1,0-.22-.22.22.22,0,0,0,.22.22"/><path class="cls-1" d="M11.44,67.73l1.84,1.06a4.6,4.6,0,0,0,0,.74,4.78,4.78,0,0,0,4.21,4.91,2.56,2.56,0,0,1,.47.12l-.46,4.54v0a1.94,1.94,0,0,0,3.85,0v0l-.48-4.73H20.7V74a1.79,1.79,0,0,0-.58-1.29,2.44,2.44,0,0,0,1.22-.29,2.68,2.68,0,0,0,1.12-1.52l.14-.52,1.3-.75V70a2.74,2.74,0,0,0,.79,2v1.29a3.74,3.74,0,0,0-1.63.87l-.35.32.11.63.05.21a2.2,2.2,0,0,0,2,1.06,3.61,3.61,0,0,0,.86-.11h0a7,7,0,0,1,.51.81,2.93,2.93,0,0,0,.7.88,2.32,2.32,0,0,0,.29,3.46,2.12,2.12,0,0,0-.39,1.23,2.31,2.31,0,0,0,.87,1.84,1.65,1.65,0,0,0-.13.63,1.81,1.81,0,0,0,.82,1.5,1.16,1.16,0,0,0,2.31,0,1.84,1.84,0,0,0,.83-1.5,1.66,1.66,0,0,0-.14-.63,2.31,2.31,0,0,0,.87-1.84,2.12,2.12,0,0,0-.39-1.23,2.33,2.33,0,0,0,.3-3.46,3.07,3.07,0,0,0,.69-.88,5,5,0,0,1,.51-.81h0a3.59,3.59,0,0,0,.85.11,2.2,2.2,0,0,0,2-1.06l0-.21.11-.61-.36-.34a4,4,0,0,0-1.35-.8V72.14a2.68,2.68,0,0,0,1-2.15v-.83H33a4.47,4.47,0,0,0-6.55,0h-1.7l2.48-1.43a.22.22,0,0,0-.22-.38L22.37,70,22,69.93a2.67,2.67,0,0,0,.27-.93l.05-.55,3.39-2.84a.21.21,0,0,0,0-.31.22.22,0,0,0-.32,0L22,68.13l-.15,0c0-.11.06-.21.08-.32l1.13-1.34-.38-.37-.23-.2,1.5-1.79a.22.22,0,0,0,0-.32.23.23,0,0,0-.32,0l-1.52,1.81a6.09,6.09,0,0,0-3.52-1.08,5.8,5.8,0,0,0-2.43.51l-1-1.24a.22.22,0,1,0-.34.29l1,1.16a5.1,5.1,0,0,0-1.25,1l-1.19-1a.23.23,0,0,0-.32,0,.22.22,0,0,0,0,.32l1.2,1a4.93,4.93,0,0,0-.82,1.73l-1.71-1a.21.21,0,0,0-.3.08.23.23,0,0,0,.08.3m15.62,8.91a5.11,5.11,0,0,0-.81-1.2c-.3-.3-.68,0-1.35,0A1.58,1.58,0,0,1,23.69,75l0-.23a2.63,2.63,0,0,1,1.53-.7c.76,0,1.78.38,2.68,2.18a1.86,1.86,0,0,0,.85.75,8.14,8.14,0,0,0-.94.46,2.23,2.23,0,0,1-.71-.81m.46-2.4H28c0,.25.06.92.06.92a6.52,6.52,0,0,0-.57-.92m2.91,9.84a2.59,2.59,0,0,0-.72.45.35.35,0,1,0,.47.53,2,2,0,0,1,.48-.3.81.81,0,0,1,.05.31,1,1,0,0,1-.79.94l0,.49a.3.3,0,1,1-.59,0l0-.49a1,1,0,0,1-.79-.94,1.18,1.18,0,0,1,.16-.58,4.52,4.52,0,0,1,1.55-1.34l.08-.05,0,0h0l0,0a.05.05,0,0,0,0,0,.56.56,0,0,0,.18-.42.61.61,0,0,0-.26-.43l.21-.1.62-.32a1.31,1.31,0,0,1,.32.85,1.62,1.62,0,0,1-1,1.48m.11-2.83h0l-.36.18a7.28,7.28,0,0,0-1.13.63l-.08,0,0,0h0a.65.65,0,0,0-.29.46.62.62,0,0,0,.37.56,4.76,4.76,0,0,0-.66.6,1.26,1.26,0,0,1-.6-1.16,1.49,1.49,0,0,1,.63-1.16h0a9.81,9.81,0,0,1,1.31-.77l.44-.24c.52-.26.93-.51.93-.87s-.24-.6-.62-.81a8.63,8.63,0,0,0,.92-.43A1.59,1.59,0,0,1,32,79.55c0,.81-.73,1.31-1.45,1.7m-1.33-1.77a.4.4,0,1,1,.79,0,.4.4,0,0,1-.79,0m6.35-4.72,0,.23a1.59,1.59,0,0,1-1.22.47c-.66,0-1-.32-1.34,0a5.11,5.11,0,0,0-.81,1.2,2.3,2.3,0,0,1-.93,1,11.17,11.17,0,0,1-1.3.62l-.88.38h0c-.54.25-.93.52-.93,1s.31.55.73.79a5.31,5.31,0,0,0-.81.52,1.64,1.64,0,0,1-.81-1.31,1.76,1.76,0,0,1,1-1.51,14.92,14.92,0,0,1,1.37-.62,7,7,0,0,0,1.22-.58,0,0,0,0,1,0,0,1.56,1.56,0,0,0,.58-.59c.9-1.8,1.92-2.2,2.67-2.18a2.63,2.63,0,0,1,1.54.7m-6.69-.52h1.47l-.09,2.08c-.25.14-.6.28-1,.44l-.29.11Zm2.22,1s.08-.7.09-1h.5a8.22,8.22,0,0,0-.59,1m-6.48-5.31h2.68a.48.48,0,0,1,.48.48V71c.14,0,.46,0,.6,0v-.64a1.07,1.07,0,0,0-.71-1l-.21-.08.18-.12a3.66,3.66,0,0,1,4.32.07l.14.1-.16.08a1.08,1.08,0,0,0-.58,1V71c.14,0,.46,0,.6,0v-.64a.47.47,0,0,1,.48-.48H35.1V70a2.32,2.32,0,0,1-.1.67H33.17V71h1.71a1.51,1.51,0,0,1-1.41.9h-.69c0,.13,0,.46,0,.6h.7l.29,0H34v1.06H25.45V72.43H26l.28,0H27c0-.14,0-.47,0-.6h-.69a1.5,1.5,0,0,1-1.41-.9h1.68v-.29h-1.8a2.34,2.34,0,0,1-.11-.67Zm-4.16,9.26a1.11,1.11,0,0,1-2.16,0l.4-3.93h1.36ZM21,71.81a2.22,2.22,0,0,1-1.48.15,2.22,2.22,0,0,1,.87-1.2,2.22,2.22,0,0,1,1.48-.15,2.16,2.16,0,0,1-.87,1.2m-.81-2.62a2.22,2.22,0,0,1,1.43-.41,2.25,2.25,0,0,1-.65,1.34,2.17,2.17,0,0,1-1.43.4,2.21,2.21,0,0,1,.65-1.33M20,67.62A2,2,0,0,1,21.2,67a2,2,0,0,1-.37,1.31,2,2,0,0,1-1.23.59,2,2,0,0,1,.38-1.3m-1.42-2.24a5.16,5.16,0,0,1,3.53,1.33l-.16.19a4.67,4.67,0,0,0-2.33-.61,3.42,3.42,0,0,0-3.68,3.36,3.24,3.24,0,0,0,2.66,3.25c1.07.25,1.27.84,1.27,1.14v.33h-1c-.05-.36-.37-.57-1.28-.76a4,4,0,0,1-3.54-4.08,4.22,4.22,0,0,1,4.49-4.15m0,3.81a2.14,2.14,0,0,1,.65,1.33,2.18,2.18,0,0,1-1.43-.4,2.25,2.25,0,0,1-.65-1.34,2.21,2.21,0,0,1,1.43.41M17.49,67a2,2,0,0,1,1.23.6,2,2,0,0,1,.37,1.3,2,2,0,0,1-1.22-.59A2,2,0,0,1,17.49,67m.85,3.74a2.16,2.16,0,0,1,.87,1.2,2.22,2.22,0,0,1-1.48-.15,2.22,2.22,0,0,1-.87-1.2,2.22,2.22,0,0,1,1.48.15"/><path class="cls-1" d="M58.94,72.89l-1.55-3.45a1.62,1.62,0,1,0-1.63-2.33,9.55,9.55,0,0,1-4.89-.85,2,2,0,0,0,.07-.49,2,2,0,0,0-3.94,0,2.07,2.07,0,0,0,.07.49,9.53,9.53,0,0,1-4.88.85,1.62,1.62,0,1,0-1.64,2.34L39,72.89h-.72v.8a2.84,2.84,0,0,0,2.84,2.84,2.93,2.93,0,0,0,1.54-.46L41,78.57h0v0l0,0h0l-.2,1.23,5.32,1.06c-.06.28.44.62.79.71a1.38,1.38,0,0,0,.83-.06l.15,2.07v-.06a1.1,1.1,0,0,0,2.2,0v0h0l.1-1.45,3,1,2.61-6.42v-.37a2.89,2.89,0,0,0,1,.2,2.84,2.84,0,0,0,2.84-2.84v-.8Zm-.7,0H55.4l1.42-3.16Zm-3.72,2.45a5.8,5.8,0,0,1-.73-.12,3.61,3.61,0,0,1-1.27-.64,3.66,3.66,0,0,0-1.31-.65,2.22,2.22,0,0,0-.45-.06l.32-4.41h5.17l-1.54,3.43H54v.8a2.85,2.85,0,0,0,.53,1.65m-13.4-5.61,1.41,3.16H39.7Zm2.11,3.16-1.54-3.43h5.17l.28,4a3.5,3.5,0,0,1-.91-.07A3.7,3.7,0,0,1,45.16,73l-.31-.23-.21.33-.73,1.11a3.89,3.89,0,0,0,0-.49v-.8Zm-2.11,2.83a2,2,0,0,1-2-2h4.06a2,2,0,0,1-2,2m6,4.72a1.71,1.71,0,0,0-1-1.08,3.92,3.92,0,0,0-1.54,0,5.68,5.68,0,0,1-1.89,0,3.35,3.35,0,0,1-.89-.38c.33-.51,2.93-4.64,3.25-5.14a4.63,4.63,0,0,0,1,.37,4.16,4.16,0,0,0,1.15.08l.43,6a1.35,1.35,0,0,0-.47.27m2.11,3.14a.3.3,0,0,1-.3.3.29.29,0,0,1-.29-.3L47.61,68.65H40.74a.82.82,0,1,1,.82-.81v0c1.48.12,4.48.21,6.55-1.32a1.14,1.14,0,0,1-.31-.78,1.17,1.17,0,0,1,2.34,0,1.14,1.14,0,0,1-.31.78c2.07,1.53,5.08,1.44,6.56,1.34v0a.82.82,0,1,1,1.63,0,.82.82,0,0,1-.81.81H50.32Zm3.23-1.79a2.77,2.77,0,0,1-.76-.06c-.35-.09-.88-.56-1.49-.86l.46-6.26a1.35,1.35,0,0,1,.33,0,3.22,3.22,0,0,1,1.06.54,4.18,4.18,0,0,0,1.51.75,10.88,10.88,0,0,0,1.33.24c-.31.8-2.44,5.61-2.44,5.61m4.32-6.07a2,2,0,0,1-2-2h4.06a2,2,0,0,1-2,2"/><path class="cls-1" d="M14.94,51.63c0,3.09,2.38,4.5,4.4,5.23a1.08,1.08,0,0,0,.5.73,1,1,0,0,0-.29.34,1.1,1.1,0,0,0-.11.85,1.15,1.15,0,0,0,.43.6c-.51.35-1.27.88-1.27,1.73v.64H25v-.64c0-1-1.05-1.5-1.51-1.91L23.19,59v-.07s1.09-.26,1.09-1.15a1.18,1.18,0,0,0-.52-.94,1.19,1.19,0,0,0,.29-.34,1.1,1.1,0,0,0,.11-.85,1.2,1.2,0,0,0-.25-.44c.2-.12.4-.23.55-.34a4,4,0,0,0,2.13-3.2V49.85h-2l.1-.56a1.88,1.88,0,0,1,.73-.23c.28,0,.56.24.85.24s.38-.16.38-.23-.16-.1-.34-.1-.52-.35-.92-.35a3,3,0,0,0-.65.12,7.52,7.52,0,0,0-1-.88h3.85V61.75h4.14V47.86H36V43.71H31.68v-5H27.54v5h-4.3v3.92a3.4,3.4,0,0,0-1-.25,8.15,8.15,0,0,0-1.32.13A12.86,12.86,0,0,0,19,47.32a4.17,4.17,0,0,0-4,4.31m9.15-7.07h4.3v-5h2.44v5h4.3V47h-4.3V61.1H28.39V47h-4.3Zm0,16.43v.11h-4.6V61c0-.47,1.12-1,1.59-1.51l1.22-.34c0,.53,1.79,1.26,1.79,1.85m-3.77-4.77L23,55.48a.46.46,0,0,1,.55.31.45.45,0,0,1-.31.55l-2.65.74a.45.45,0,0,1-.55-.31.46.46,0,0,1,.32-.55m3,2-2.64.74a.45.45,0,0,1-.55-.31.44.44,0,0,1,.31-.55L23,57.31a.45.45,0,0,1,.24.86m2.42-7.43v.89c0,1.21-.94,1.88-1.76,2.48-.34.24-1,.7-1,.7l-1.74.48a6.21,6.21,0,0,0-1.52-1.18c-.82-.6-1.76-1.27-1.76-2.48v-.89ZM19,48.21a6.4,6.4,0,0,1,1.78.2,9.22,9.22,0,0,1,1.46-.14,2.82,2.82,0,0,1,1.6.81l-.08.42a1.87,1.87,0,0,1-1.48.47,5.13,5.13,0,0,1-1.66-.57A5.27,5.27,0,0,0,19,49.17a2.35,2.35,0,0,0-2.2,2.46,3.19,3.19,0,0,0,1.62,2.69c.95.71,1.6,1,1.87,1.22l-.13,0a1.18,1.18,0,0,0-.59.41c-1.71-.64-3.71-1.8-3.71-4.35A3.27,3.27,0,0,1,19,48.21"/><path class="cls-1" d="M59.86,52.11a3.42,3.42,0,0,0-3.69-3.52H53.35L52,45.08a3,3,0,0,0,.23-1.16,3.06,3.06,0,1,0-6.12,0,3.1,3.1,0,0,0,.23,1.18L45,48.59H42.13a3.42,3.42,0,0,0-3.69,3.52,3,3,0,0,0,3.05,3,2.79,2.79,0,0,0,1-.18l-1.25,3.18-1.08,2.74c-.27.71.19.9.19.9l.63.33c.38.2.7-.07.9-.42l.71-1.25v.31H55.74v-.33l.72,1.27c.2.35.52.62.9.42l.63-.33s.46-.19.19-.9L57.1,58.13,55.85,55a2.73,2.73,0,0,0,1,.18,3,3,0,0,0,3-3M49.15,41.75A2.17,2.17,0,1,1,47,43.92a2.17,2.17,0,0,1,2.17-2.17M41.49,54.24a2.14,2.14,0,0,1-2.15-2.13,2.51,2.51,0,0,1,2.79-2.63H44.6l-.86,2.2a2,2,0,0,0-1.89-1.25A1.57,1.57,0,0,0,40.21,52a1.34,1.34,0,0,0,1.4,1.4.44.44,0,0,0,.45-.44.45.45,0,0,0-.45-.45A.46.46,0,0,1,41.1,52a.69.69,0,0,1,.75-.66c.74,0,1.19.52,1.19,1.37a1.5,1.5,0,0,1-1.55,1.55m-.36,7-.22-.12S45,50.62,46.88,46a3.14,3.14,0,0,0,1,.75l.79,1.38Zm7.7-11.79h.65L51,52.14H47.31ZM45,60H43.46V58.87L45,56.23Zm7.41,0H50.86V54.36a.48.48,0,1,0-1,0V60H48.39V54.36a.47.47,0,0,0-.48-.48.48.48,0,0,0-.48.48V60H45.92v-5.4L46.8,53h4.71l.87,1.5Zm2.46,0H53.33V56.21l1.51,2.64Zm2.53,1.2-.21.12L49,47l.18,0a3.06,3.06,0,0,0,2.27-1l6,15.19m-2.12-8.46c0-.85.44-1.37,1.19-1.37a.69.69,0,0,1,.75.66.46.46,0,0,1-.51.51.45.45,0,0,0-.45.45.44.44,0,0,0,.45.44,1.34,1.34,0,0,0,1.4-1.4,1.57,1.57,0,0,0-1.64-1.55,2,2,0,0,0-1.89,1.24l-.85-2.19h2.46A2.51,2.51,0,0,1,59,52.11a2.14,2.14,0,0,1-2.15,2.13,1.5,1.5,0,0,1-1.55-1.55"/><path class="cls-1" d="M22.37,49.2a.22.22,0,0,0,.22-.22.23.23,0,1,0-.22.22"/><path class="cls-1" d="M48.31,22.83a1.56,1.56,0,0,0,.44.88,3.62,3.62,0,0,0,.89.4h0a3,3,0,0,1,0-.42,3.47,3.47,0,0,1,1.56-2.61,2,2,0,0,0,.09-.27l-.19-1.07c0-.15,0-.21-.2-.17l-.91.18a11.91,11.91,0,0,1-1.81,1.74,3.06,3.06,0,0,1,.16,1.34m.55-1.17a10.27,10.27,0,0,0,1.4-1.35l.11,0,.19,0,0,.07c0,.14.05.28.06.39v0l0,0A3.83,3.83,0,0,0,49.1,23l-.05.24L49,23l0-.07s0-.37,0-.37v-.14a2.88,2.88,0,0,0-.07-.65v0Z"/><path class="cls-1" d="M51.66,19a9.34,9.34,0,0,1,.1,1.61,1.58,1.58,0,0,0,.54-.95,7.06,7.06,0,0,0-.21-1.48c0-.07-.6-.76-.87-.76s-.3.18-.4.48a8.36,8.36,0,0,1-.49.82v.09c.41,0,1.25,0,1.33.19"/><path class="cls-1" d="M16.79,26.19l.72.88a9.31,9.31,0,0,1,1.21-.84.88.88,0,0,1,0-.17,1.07,1.07,0,0,1,.07-.41,1.22,1.22,0,0,1,.62-.68,1.1,1.1,0,0,1,.5-.11,1.19,1.19,0,0,1,.91.42,8.31,8.31,0,0,1,1.3-.35l-.22-1.12a12.08,12.08,0,0,0-2.7.86,12.15,12.15,0,0,0-2.39,1.52"/><path class="cls-1" d="M15.08,24l.69.91a11.84,11.84,0,0,1,1.78-1.21.59.59,0,0,1,0-.14,1.19,1.19,0,0,1,.7-1.09,1.06,1.06,0,0,1,.49-.11,1.2,1.2,0,0,1,.89.39,13.44,13.44,0,0,1,1.95-.54l-.25-1.12A14.92,14.92,0,0,0,18,22.15,14,14,0,0,0,15.08,24"/><path class="cls-1" d="M16.38,21.17a.5.5,0,0,1,0-.12,1.2,1.2,0,0,1,.7-1.08,1.11,1.11,0,0,1,.5-.12,1.19,1.19,0,0,1,.86.37,16.18,16.18,0,0,1,2.5-.73c-.12-.46-.19-.73-.24-.88h-.22a4.68,4.68,0,0,0-1.13.17l-.18.05A4.59,4.59,0,0,1,18,19a1.78,1.78,0,0,1-1.43-.6c-.17-.2-.23-.21-.24-.21l-.13,0c-.12.06-.12.06-.12.16s0,.13,0,.22,0,.19,0,.28a2.62,2.62,0,0,1-1.39,2l-.15.11a3.42,3.42,0,0,0-1,.93c.08.14.24.36.52.75a15.48,15.48,0,0,1,2.28-1.5"/><path class="cls-1" d="M41.53,21.86l1.4.38a3.81,3.81,0,0,1,1.43-2.12,16.24,16.24,0,0,1-1.4-1.8c-.61.26-1.24.48-1.51.57a9.08,9.08,0,0,1,.19,2,4.18,4.18,0,0,1-.11,1m1.25-2.92c.3.43.6.81.87,1.13a3.48,3.48,0,0,0-1,1.55l-.49-.14a4.21,4.21,0,0,0,0-.62A9.88,9.88,0,0,0,42,19.23l.77-.29"/><path class="cls-1" d="M29.65,20.12a3.81,3.81,0,0,1,1.43,2.12l1.4-.38a4.18,4.18,0,0,1-.11-1,9.8,9.8,0,0,1,.19-2c-.27-.09-.9-.31-1.51-.58a15.64,15.64,0,0,1-1.4,1.81M32,19.23a9.87,9.87,0,0,0-.14,1.63,4.21,4.21,0,0,0,0,.62l-.49.14a3.81,3.81,0,0,0-1-1.55c.26-.32.56-.7.86-1.13l.77.29"/><path class="cls-1" d="M30.41,25.79a14.58,14.58,0,0,0,3.71-1.17,6.6,6.6,0,0,1-1.32-1.84c-.24.08-.71.21-1.6.44a4.18,4.18,0,0,1-.79,2.57m1.29-2.17.84-.23a7.16,7.16,0,0,0,.73,1.06,11.82,11.82,0,0,1-1.88.59,4.45,4.45,0,0,0,.31-1.42"/><path class="cls-1" d="M35.8,24.72a11.9,11.9,0,0,0,1.2.73,8.8,8.8,0,0,0,1.21-.73A5.24,5.24,0,0,1,37,23.31a4.78,4.78,0,0,1-1.2,1.41m1.2-.5c.12.15.25.29.38.43l-.38.22-.37-.22a5,5,0,0,0,.37-.43"/><path class="cls-1" d="M30.69,17A4.94,4.94,0,0,0,31.42,15c0-.36-.3-1-.79-1s-1,.72-1,1.48a2,2,0,0,0,1,1.61m-.06-2.58c.15,0,.28.37.28.5a3.22,3.22,0,0,1-.39,1.3,1.16,1.16,0,0,1-.36-.83c0-.5.29-1,.47-1"/><path class="cls-1" d="M43.6,25.79a4.24,4.24,0,0,1-.8-2.57c-.88-.23-1.35-.36-1.59-.44a6.6,6.6,0,0,1-1.32,1.84,14.58,14.58,0,0,0,3.71,1.17m-2.13-2.4.84.23A4.73,4.73,0,0,0,42.62,25a13,13,0,0,1-1.88-.59,6.07,6.07,0,0,0,.73-1.06"/><path class="cls-1" d="M34.42,21.31l.15-.06V21.2a.49.49,0,0,1,.37-.48l.12,0a.5.5,0,0,1,.48.37,1,1,0,0,1-.8,1.17l-1,.28A5.45,5.45,0,0,0,35,24.08a3,3,0,0,0,1.44-2.43c0-1.3-1.38-1.9-2.94-2.44a9,9,0,0,0-.15,1.65,3.63,3.63,0,0,0,.08.73ZM36,21.6a2.29,2.29,0,0,1-1,1.78,6.06,6.06,0,0,1-.47-.56C35.86,22.48,36,21.6,36,21.6m-2.08-1.69c.58.19,1.17.43,1.17.43a1,1,0,0,0-1,.53l-.25.07v-.08c0-.33,0-.64.05-.95"/><path class="cls-1" d="M44.36,15.42c0-.76-.48-1.48-1-1.48s-.79.65-.79,1A4.94,4.94,0,0,0,43.32,17a2,2,0,0,0,1-1.61m-1-1c.19,0,.47.47.47,1a1.08,1.08,0,0,1-.36.82A3.15,3.15,0,0,1,43.1,15c0-.13.13-.5.28-.5"/><path class="cls-1" d="M39,24.08a5.49,5.49,0,0,0,1.24-1.56l-1-.28a1,1,0,0,1-.79-1.17.51.51,0,0,1,.47-.37l.13,0a.5.5,0,0,1,.37.48v.05l.14.06,1,.28a3.63,3.63,0,0,0,.08-.73,9,9,0,0,0-.15-1.65c-1.56.54-2.95,1.14-2.95,2.44A3,3,0,0,0,39,24.08m1.08-4.17c0,.31.06.63.06.95a.2.2,0,0,1,0,.05,1.19,1.19,0,0,1-.24,0,1.07,1.07,0,0,0-1-.53s.59-.24,1.17-.43M38,21.6s.14.88,1.43,1.22a4.65,4.65,0,0,1-.47.56,2.28,2.28,0,0,1-1-1.78"/><polygon class="cls-1" points="56 25.3 56.19 23.74 57.76 23.47 56.32 22.78 56.52 21.22 55.42 22.37 54 21.71 54.01 21.72 54.75 23.08 53.65 24.22 55.23 23.92 56 25.3"/><path class="cls-1" d="M51.05,22.85a2,2,0,0,0-.17.84,2.06,2.06,0,0,0,.82,1.64l.72.51a5,5,0,0,1,1.19,1l.11.16L54,27a5.49,5.49,0,0,1,1.43.28l.83.21a2.29,2.29,0,0,0,.51.06,2,2,0,0,0,1.34-.5,1.93,1.93,0,0,0,.49-.64,2.32,2.32,0,0,0,.19-1.07v-.58a4.94,4.94,0,0,1,.1-1,1.6,1.6,0,0,1,.05-.21h0l.08-.2a2.44,2.44,0,0,1,1.14-1l.2-.16-.12-.83-.25,0a3.53,3.53,0,0,1-.85-.28c-.25-.11-1.17-.69-1.17-1.45a1,1,0,0,1,0-.16,1.38,1.38,0,0,0,0-.25.56.56,0,0,0-.38-.55.63.63,0,0,0-.3-.08.77.77,0,0,0-.55.33,1,1,0,0,1-.87.36A3.63,3.63,0,0,1,55,19a2.76,2.76,0,0,1-.88-.51l-.19-.17-.22.13-.33.2-.2.12,0,.23a4,4,0,0,1,.1.78,1.76,1.76,0,0,1-.14.73l-.11.19-.11.16a4.75,4.75,0,0,1-1,.94,2.94,2.94,0,0,0-.92,1m2.5-1.78a3,3,0,0,0,.27-2l0,0a3.07,3.07,0,0,0,.94.51,4.12,4.12,0,0,0,1.14.21,1.68,1.68,0,0,0,1.33-.57.82.82,0,0,1,.12-.13.27.27,0,0,1,0,.21,1.93,1.93,0,0,0,0,.24,2.52,2.52,0,0,0,1.51,2,4.12,4.12,0,0,0,.82.29v.05a2.53,2.53,0,0,0-1.24,1.27c-.57,1.14-.12,2.47-.41,3a1.42,1.42,0,0,1-1.29.79,1.87,1.87,0,0,1-.4,0l-.79-.2A5.68,5.68,0,0,0,54,26.39h0a5.59,5.59,0,0,0-1.26-1s-.66-.49-.7-.52a1.37,1.37,0,0,1-.46-1.74c.42-.73,1.24-1,2-2"/><path class="cls-1" d="M27.25,24.52c.44,0,.38-.49.55-.66s.65-.1.65-.55-.49-.4-.65-.56-.08-.65-.55-.65c-.28,0-.44.22-.44.55V24c0,.32.15.55.44.55"/><path class="cls-1" d="M12.73,29.2c-.24-.21-.52-.24-.7,0s.13.6.15.84-.33.56,0,.85.61-.12.84-.14.56.35.86,0,.1-.47-.15-.69Z"/><path class="cls-1" d="M67.42,41.93a2.54,2.54,0,0,0,1.94-2.45,3.19,3.19,0,0,0-1.76-2.74,4.73,4.73,0,0,0-.57-.31,2.2,2.2,0,0,0,1.61-2.16A1.23,1.23,0,0,0,67.41,33a1.24,1.24,0,0,0-.87.36,1.22,1.22,0,0,0-.35.73,4.39,4.39,0,0,1-1.52.16,4.23,4.23,0,0,1-1.18-.18,8.51,8.51,0,0,0,1.2-.94c.25-.26,1-.45,1.27-1a10.88,10.88,0,0,0,1.44-3.42A7.89,7.89,0,0,0,67.63,27a7.71,7.71,0,0,0-.12-1.21l-.07-.55c0-.44-.14-1.59-1.15-1.93,0,0-1.75-2.62-1.8-2.71a.12.12,0,0,0-.21,0c-.07.07-.75.87-.75.87a2.25,2.25,0,0,0-.74.16,1,1,0,0,0-.17-.18,1.4,1.4,0,0,0-.18-.13l-.31-2-.22,0-1.07.18a2,2,0,0,1-.61-.2,1.44,1.44,0,0,1-.33-.26c0-.1,0-.2,0-.3a2.34,2.34,0,0,0-4.05-1.59l-.43-.1a1.23,1.23,0,0,1-.47-.28l-.68-1.18-1.62,1c-1-.8-1.4-1.07-2-.83a1.73,1.73,0,0,0-.63.5,1,1,0,0,0,.11-.41A1.16,1.16,0,0,0,49,14.67l-.24-.14-.56-1.35a.17.17,0,0,0-.25,0c-.09.06-1.93,1.54-1.93,1.54a2.85,2.85,0,0,0-2.09-2.25V10.59H43v-.05a4.06,4.06,0,0,0-4-4.33,3.08,3.08,0,0,0-.38,0V4.61h1.78V1.81H38.56V0h-2.9V1.81H33.88v2.8h1.78V6.28a3.06,3.06,0,0,0-.55-.07c-2.39,0-4.05,1.78-4,4.38H30v1.85a3,3,0,0,0-2,2.62l-.85-.71L25.48,13l-.17-.15-3.33,4a2.79,2.79,0,0,0-1.53-.4,13.44,13.44,0,0,0-2.41.41,2.33,2.33,0,0,0-2.78-.57,2.26,2.26,0,0,0-1.39,2.16c0,.11,0,.22,0,.34a3.41,3.41,0,0,1-.41.32l-.2.13a4.12,4.12,0,0,0-1.93,2.56H6.16v4.79H9.75a4.46,4.46,0,0,0-1.6,3.5,4.8,4.8,0,0,0,2.41,4,4.06,4.06,0,0,1-1.21.19,5.06,5.06,0,0,1-1.52-.15,1.23,1.23,0,0,0-2.45.13A2.27,2.27,0,0,0,7,36.43c-.17.08-2.31,1-2.31,3a2.48,2.48,0,0,0,2,2.47A37,37,0,1,0,74,62.77a36.78,36.78,0,0,0-6.6-20.84M65.13,30.4a3.88,3.88,0,0,1-1.45,2.65,4,4,0,0,1-2.21,1,6.42,6.42,0,0,0,3.2,1c2,0,2.25-.41,2.25-.76a.5.5,0,0,1,.14-.35.52.52,0,0,1,.35-.14.49.49,0,0,1,.49.49C67.9,36,65.64,36,64.67,36l-.37,0,.59.31,1.42.62a5,5,0,0,1,.9.44,2.52,2.52,0,0,1,1.41,2.1A1.73,1.73,0,0,1,67,41.24a1.5,1.5,0,0,1-1.5-1.63.5.5,0,0,1,1,0c0,.51.3.65.47.65a.76.76,0,0,0,.64-.8c0-.46-.29-.87-.94-1.26a4.14,4.14,0,0,0-.76-.37l-1.47-.65-1.72-.88h0l0,0a19.82,19.82,0,0,1-2.81-2.13l-.38-.29.09-.08s.66.23.84,0,.06-.82.06-.82l.24.05h.33a3.52,3.52,0,0,0,2-.71,2.89,2.89,0,0,0,1.09-2,2.44,2.44,0,0,0,0-.27,2.7,2.7,0,0,0-.58-1.74.72.72,0,0,1-.19-.47.42.42,0,0,1,.1-.3.46.46,0,0,1,.33-.15.75.75,0,0,1,.52.29A3.6,3.6,0,0,1,65.14,30c0,.12,0,.24,0,.37m0,8.59c-.51-.6-.7-.81-1.24-1.36l1.58.68c.29.11.4.23.36.24a.85.85,0,0,0-.7.44M46.49,15.26l.52.09-.14-.41.41.21,0-.51.31.32.12-.46.31.74a1.4,1.4,0,0,1,.57.26c.11,0,.53,0,.6.26.11.39-.72.53-.71.62s.22.22.4.36a5.36,5.36,0,0,1,1,1c.09-.11.35-.43.43-.5a6.42,6.42,0,0,1,.64-.64c.29-.11.62.32.84.46a3,3,0,0,1,.7.67L54,16.84a2.18,2.18,0,0,0,1.91,1.22.75.75,0,0,0,.5-.14A1.47,1.47,0,0,1,59,19.14c-.06.36.58.86.85,1A2.26,2.26,0,0,0,61,20.4l.45-.07.34,2.2c-1.73.94-1.82.94-1.82,2.74a4.17,4.17,0,0,1-.27,1.84,2.83,2.83,0,0,1-.74.95l-.1.08c0,.07,0,.14,0,.19l.46.83a7.12,7.12,0,0,0,1-.92,7.1,7.1,0,0,0,0-1.15,4.41,4.41,0,0,0,.22-1.79c0-1.25.08-1.49.52-1.79A7.65,7.65,0,0,1,62,22.86c-.1.48-.78.72-.78,1a.59.59,0,0,0,.21.44l.12-.11A.57.57,0,0,1,62,24a1.54,1.54,0,0,1,.76-.41,2,2,0,0,1,.74.18l.12-.16a1.44,1.44,0,0,1-.23-.53c0-.2-.18-.39-.55-.26L63,22.6a.49.49,0,0,1,.51-.22.66.66,0,0,1,.46,0l.43-.51.07.43.29,0,0,.35.32.05-.08.28.32.17-.59.2a1.24,1.24,0,0,1-.51,1.06.55.55,0,0,1,.05.22.79.79,0,0,1-.62.76l-.07.53a1,1,0,0,0,.43.17C65.09,26,65,24.1,65.73,24.12s.78.69.83,1.21a7.37,7.37,0,0,1,0,3.24,9.46,9.46,0,0,1-1.05,2.65,4,4,0,0,0,.15-.77l0-.41a4,4,0,0,0-1-2.71,1.19,1.19,0,0,0-.89-.45,1,1,0,0,0-.71.31,1,1,0,0,0-.24.65,1.21,1.21,0,0,0,.33.81,2.23,2.23,0,0,1,.45,1.4v.22a2.34,2.34,0,0,1-.82,1.55s0-.09,0-.12c.07-.29.2-.62.3-.9a3.94,3.94,0,0,0,.07-.58,5.58,5.58,0,0,1,.24-.84c-.23.13-.73.72-1.07.73h-.25c0,.17,0,.65,0,.77s-.29,1.5-.29,1.52h0l-.47.1h0s-.33-.28-.38-.31l.25-1.3-.4.87s-.12-.21-.24-.39a.26.26,0,0,0-.23-.1l-.69,1.23a2.11,2.11,0,0,1,.43.78l-.15.06c0-.06-.26-.43-.53-.42s-.46.33-.5.39l-.14-.07a1.41,1.41,0,0,1,.2-.44,1.08,1.08,0,0,0-.3,0,1.92,1.92,0,0,0-.58.21L58,32.84a1.39,1.39,0,0,1,.61-.34s-.1-.11-.16-.11l-.34,0v-.13a.92.92,0,0,1,.33-.11c.33,0,.48.19.82.19l.66-1.31c0-.53.25-.57.22-1,0-.14,0-.27,0-.27s-.79.26-1,.26-.12-.45-.14-.58l-.44-.75a1.37,1.37,0,0,1-.86.08l-.07-.1v0a3.35,3.35,0,0,1-1.48,0h0L55,28.41c-.28-.08-.57-.15-.83-.2a4,4,0,0,0-.92.57.4.4,0,0,1-.39.08.35.35,0,0,1-.19-.36,1.93,1.93,0,0,0-.14-1,6.27,6.27,0,0,0-.71-.55l-1-.68-.07-.05a3.29,3.29,0,0,1-1-1.44h-.06l-.19-.2-.63-.09a2.93,2.93,0,0,0-1.05-.78l-.16-.2a1.16,1.16,0,0,0,0-.54.58.58,0,0,0-.28-.31c-.09.12-.36.49-.58.82a4.55,4.55,0,0,1-.74.79,10.88,10.88,0,0,1,.2,1.41,2.53,2.53,0,0,1,.23.3,5.77,5.77,0,0,1,.48.61.16.16,0,0,1-.1.22.69.69,0,0,1-.51-.15l-.14-.09-.08-.27-.32-.3a6.37,6.37,0,0,0-.24-1.23,4.21,4.21,0,0,0-.24-.52l0-.17c.2-.27.65-.91.53-1.22a1,1,0,0,0-.29-.34,1.9,1.9,0,0,1-.33-.4.52.52,0,0,1-.69-.26.48.48,0,0,1,0-.29c.06-.18.26-.23.23,0a.29.29,0,0,0,0,.13c0,.11.23.06.35,0a1.54,1.54,0,0,1,.2-.84,2.53,2.53,0,0,1,.75-.75,6.23,6.23,0,0,1,1.09-1,3.74,3.74,0,0,0,1-1.12l-.11-.51a2.42,2.42,0,0,1-.78-1,1.37,1.37,0,0,1,0-.19c-.25,0-1-.19-1.07-.52l.68-.09Zm9.45,14.48c-.44-.56.61-.82.78-.6.53.68,1.15,1.48,1.84,2.25l.22.27h-.34a1.36,1.36,0,0,0-.58.18l-.11.07-.12-.08c-.65-.75-1.24-1.5-1.69-2.09m1,2.12a38.72,38.72,0,0,0-4.27-2.38,1.21,1.21,0,0,0,1.07-.27,3.13,3.13,0,0,1,.45-.32l.45.11c.23.26.62.75.9,1.12s.86,1.09,1.4,1.74m.65-2.38a1.69,1.69,0,0,0,.63,0l.11.19a1.08,1.08,0,0,0,.28.85l.55.21-.24.33c-.5-.56-.94-1.11-1.33-1.6M47.45,26.92a.72.72,0,0,0,.06-.29.56.56,0,0,0,0-.25v-.22l2.62,0c.56,0,.73.94.2.95l-2.92.06Zm-.34-1.29s-.12-.16-.2-.25c0-.32-.06-.62-.11-.9a1.38,1.38,0,0,0,0-.3c.18-.23.41-.5.41-.5l0,.29c0,.06.25.31.25.31l.19,0s.13.06.2.11l.72.65.6.1,0,0a3.5,3.5,0,0,0,.24.42c-.68,0-1.5,0-2.37,0m3.08,2c.46,0,1.09,0,1.43,0,.14.09.26.19.38.28a3.17,3.17,0,0,1,0,.69,1,1,0,0,0,.5.85A38.74,38.74,0,0,0,48,27.65c.83,0,1.59,0,2.2,0M45,25a2.43,2.43,0,0,1-.67-1.7v0a2.77,2.77,0,0,1,.1-.71,1.08,1.08,0,0,0,.58.19l.24.24a4,4,0,0,1-.47.74l-.12.56A3.4,3.4,0,0,1,45,25m1.82-8.19a3.07,3.07,0,0,0,.73,1,0,0,0,0,0,0,0,9.85,9.85,0,0,1-1.09,1,4.13,4.13,0,0,0-1,.19c-.22-.26-.54-.63-.86-1.08a3.46,3.46,0,0,0,1.28-1.67,1.88,1.88,0,0,0,1,.53M35.11,7.12a3.17,3.17,0,0,1,1.39.3V3.77H34.71V2.65H36.5V.83h1.22V2.65h1.79V3.77H37.72V7.35a3.2,3.2,0,0,1,1.22-.23,3.15,3.15,0,0,1,3.13,3.42v.05H40.9A2.18,2.18,0,0,0,38.74,8.3a2.12,2.12,0,0,0-1.72,1,2,2,0,0,0-1.73-1,2.11,2.11,0,0,0-2.15,2.29H32v-.05a3.11,3.11,0,0,1,3.14-3.42m-4.47,4.14h12.6v1H30.64ZM37,17c-1.45,0-3.38-1.92-4.39-4.08h1.28c.82,1.56,2.12,2.91,3.11,2.91s2.29-1.35,3.11-2.91h1.28C40.4,15.06,38.47,17,37,17m4.71.22-.24.09a8.34,8.34,0,0,0-.8-1.54c.15-.18.29-.35.42-.53a5.88,5.88,0,0,0,.62,2m-2.54-.07a5.7,5.7,0,0,1,.41.82A7.11,7.11,0,0,0,37,19.43,7,7,0,0,0,34.41,18a5.39,5.39,0,0,1,.42-.83,3.9,3.9,0,0,0,2.19.81,3.93,3.93,0,0,0,2.17-.8m-5.86-1.41a8.64,8.64,0,0,0-.81,1.57l-.24-.09a5.49,5.49,0,0,0,.62-2c.14.19.28.37.43.54M30.64,13a2,2,0,0,1,1.76,2,5.85,5.85,0,0,1-.82,2.53c.4.17.82.32,1.25.47a8.64,8.64,0,0,1,1-2.07l.11-.16.13.14.48.46.1.08-.07.12a8.28,8.28,0,0,0-.85,1.74A6.38,6.38,0,0,1,37,20.2a6.28,6.28,0,0,1,3.26-1.94,8.1,8.1,0,0,0-.85-1.73l-.06-.11.09-.09.49-.46.13-.14.11.16a8.83,8.83,0,0,1,1,2.05c.46-.15,1-.37,1.25-.47a5.79,5.79,0,0,1-.84-2.53,2,2,0,0,1,1.78-2,2.28,2.28,0,0,1,2,2.46,2.73,2.73,0,0,1-1.51,2.43,16.73,16.73,0,0,0,1.41,1.78l1-.28-.56.47a2.09,2.09,0,0,0-.83,1.06h-.11a.75.75,0,0,0-.65.81s0,.1,0,.15l0,.06,0,.05a3.08,3.08,0,0,0-.3,1.37,2.83,2.83,0,0,0,1.42,2.47l.08,0,.05.38.33.29.18.38.2.19-.43,0a15.43,15.43,0,0,1-6.55-1.72A7.59,7.59,0,0,1,37,26.46a7.1,7.1,0,0,1-2.08-1.16,18.18,18.18,0,0,1-8.35,1.84c-.77,0-1.7,0-2.39,0-.25,0-.3-1,0-.94h2.95a2.75,2.75,0,0,0,3.07-2.84,3,3,0,0,0-.83-2.12,2.82,2.82,0,0,0-1.9-.85,4,4,0,0,0-2.92,1.22.51.51,0,0,1-.39.19.47.47,0,0,1-.32-.12.47.47,0,0,1-.17-.33.52.52,0,0,1,.11-.36,5,5,0,0,1,3.69-1.58,3.56,3.56,0,0,1,1.28.26,18.9,18.9,0,0,0,1.38-1.77,2.93,2.93,0,0,1-1.49-2.44,2.28,2.28,0,0,1,2-2.46M21.31,28.5a.33.33,0,0,1-.19.35.34.34,0,0,1-.39-.08,2,2,0,0,0-1-.59,5.87,5.87,0,0,1,1.79-.84,2,2,0,0,0-.21,1.15m0,1A37.79,37.79,0,0,0,17,31.87c.56-.67,1-1.27,1.4-1.75a14.51,14.51,0,0,1,1-1.26c.27-.1.67.26.76.35a1,1,0,0,0,1.12.26m.63-.93s0-.23,0-.3,0-.54.23-.65a14.92,14.92,0,0,1,1.63,0c.61,0,1.37,0,2.21,0a37.57,37.57,0,0,0-4.57,1.77,1,1,0,0,0,.52-.88m1.38-5.9,0-.05h2.36a.81.81,0,0,1,0-.15A1.48,1.48,0,0,1,27.21,21a1.46,1.46,0,0,1,1.37,1,1.46,1.46,0,0,1,0,2.74,1.46,1.46,0,0,1-1.37,1,1.48,1.48,0,0,1-1.48-1.48.76.76,0,0,1,0-.15H23.79l0,0a.46.46,0,0,0-.07-.1,1.05,1.05,0,0,1-.34-1.26m-.1-1.73L23,20l1.27-1.5,1,.82a4,4,0,0,0-2,1.61m2.49,4.74-1.56,0c0-.25-.05-.43-.12-.82h1.16a2.09,2.09,0,0,0,.51.86h0m2.48-9.21A3.37,3.37,0,0,0,29.45,18c-.32.44-.63.82-.85,1.08a3.64,3.64,0,0,0-1.1-.19,5.34,5.34,0,0,0-1.44.19ZM25.42,14.1l1,.83-.25.3.63.53.25-.3.68.57-1,1.16-.68-.57.25-.3-.64-.53-.73.88.63.53.25-.3.68.57-1,1.16-.68-.57.25-.29-.63-.53-1.68,2,0-.05a1.32,1.32,0,0,1-.54-1.27ZM13.8,20l.18-.13c.35-.24.87-.61.81-1a1.48,1.48,0,0,1,.85-1.76,1.46,1.46,0,0,1,1.87.49.55.55,0,0,0,.44.17c.58,0,1.46-.42,2.55-.42.67,0,1.14.2,1.29.62a74,74,0,0,1,1.82,8.31,9.86,9.86,0,0,0-3.3.86,11.88,11.88,0,0,0-2.79,2,75.14,75.14,0,0,1-5.2-6.73c-.38-.62.19-1.47,1.48-2.4m1.57,9.41.74-.88.55.64c-.29.37-.61.78-1,1.22h0a2.29,2.29,0,0,0-.32-1m-.79,0a1.36,1.36,0,0,1,.52,1A1.47,1.47,0,0,1,13.75,32a2.9,2.9,0,0,1-.62-.11,1.77,1.77,0,0,1-.72.21,1.48,1.48,0,0,1-1.48-1.44,2.64,2.64,0,0,1,.1-.53,2.42,2.42,0,0,1-.21-.6,1.47,1.47,0,0,1,1.35-1.6h.13a1.52,1.52,0,0,1,.95.35l.1.11,1.44-1.75a1.19,1.19,0,0,1,.68.37,1.4,1.4,0,0,1,.27.75L14.46,29.3l.12.08m-.85-3.91a1,1,0,0,0-.45-.12,5.41,5.41,0,0,0-2.16.58V24.62h2c.08.12.36.49.64.85m-4.79.2v-.89h.39V24H8.18v.82h.39v.89H7.06v-.89h.38V24H7.06V22.67H12A1.31,1.31,0,0,1,12.75,24H10.06v.82h.39v.89ZM5.39,39.44A2.5,2.5,0,0,1,6.8,37.36a5.41,5.41,0,0,1,.91-.44l1.4-.62.6-.31-.35,0c-2.22,0-3.25-.55-3.25-1.74a.5.5,0,0,1,1,0,.46.46,0,0,0,.13.35c.41.41,1.7.41,2.12.41a6.38,6.38,0,0,0,3.2-1,4,4,0,0,1-2.21-1,3.85,3.85,0,0,1-.65-5.38,5,5,0,0,1,3.59-1.81.5.5,0,0,1,0,1,4,4,0,0,0-2.83,1.45,2.89,2.89,0,0,0,.53,4,3.13,3.13,0,0,0,1.88.73A2.78,2.78,0,0,0,15,31.87l.13-.1c.74-.8,1.72-2,2-2.35s1.06.23.72.66a32.93,32.93,0,0,1-3.2,3.62c-.18.18-.18.18-.21.19a19.94,19.94,0,0,1-3.06,2.37l-1.8.92h0l-1.45.64a3.94,3.94,0,0,0-.77.37c-.67.41-1,.84-.94,1.33a.76.76,0,0,0,.58.73c.47,0,.54-.41.54-.65a.48.48,0,0,1,.14-.34A.45.45,0,0,1,8,39.12a.49.49,0,0,1,.49.49,1.51,1.51,0,0,1-1.57,1.63,1.74,1.74,0,0,1-1.52-1.8m5-9.16v0Zm-.48,7.54c-.54.56-.51.57-1,1.16a1.53,1.53,0,0,0-.11-.16.82.82,0,0,0-.6-.29c-.14,0,.08-.11.3-.19s1.43-.52,1.43-.52m27.3,61.29A36.1,36.1,0,0,1,7.76,41.83a2.24,2.24,0,0,0,.73-.43A2.32,2.32,0,0,0,9.17,40a36.08,36.08,0,0,1,55.67,0,2.11,2.11,0,0,0,1.41,1.83,36.1,36.1,0,0,1-29,57.28"/><path class="cls-1" d="M64.43,63A27.36,27.36,0,1,0,37.07,90.37,27.39,27.39,0,0,0,64.43,63M36.64,89.48a26.51,26.51,0,0,1-26-26.1h26Zm0-27h-26a26.5,26.5,0,0,1,26-25.94Zm.9-25.94a26.52,26.52,0,0,1,26,25.94h-26Zm0,52.93V63.38h26a26.5,26.5,0,0,1-26,26.1"/><path class="cls-1" d="M15.22,82.85c-.09-.11-.32-.41-.58-.71-.05-.06-.13-.08-.17,0s0,.1,0,.15c.31.36.31.43-.37,1l-2.21,1.93c-.06.05-.09.07-.25-.12-.39-.44-.3-1,.21-1.39a.86.86,0,0,1,1.21,0c.1.11.15.12.2.08s0-.18-.08-.22a1.41,1.41,0,0,0-2.07-.18c-.55.48-.36,1.2.14,1.78l.58.64c.11.12.34.41.55.65s.13.1.16.06,0-.08,0-.15c-.25-.28-.27-.39,0-.66l2.15-1.88c.56-.49.67-.49.87-.25.05,0,.1.08.14,0s0-.1,0-.17-.41-.45-.51-.56"/><path class="cls-1" d="M11.93,78.29a2.35,2.35,0,0,0-3.36-.86,2.17,2.17,0,0,0-.63,3.22,2.29,2.29,0,0,0,3.27.91,2.26,2.26,0,0,0,.72-3.27M8.31,80.63a1.85,1.85,0,0,1,.91-2.55c1.43-.87,2.09-.16,2.3.18a1.92,1.92,0,0,1-.92,2.65c-1.23.75-1.94.28-2.29-.28"/><path class="cls-1" d="M9.93,75.28c0,.08.07.11.11.1s.07-.09,0-.18c-.1-.29-.21-.55-.23-.6s-.1-.34-.23-.7q-.06-.15-.15-.12s0,.06,0,.14c.13.34.09.51-.45.72l-2.25.85,1.92-4a.4.4,0,0,0,.05-.25c0-.06-.1-.08-.23,0L5,72.38c-.36.11-.48.1-.59-.18,0-.09-.07-.13-.11-.11s-.06.1,0,.19c.1.27.2.48.22.53s.12.4.22.69q.08.16.15.15c.06,0,0-.08,0-.15-.14-.38-.08-.48.34-.64l2.42-.93-2,4a.58.58,0,0,0-.07.34c0,.07.12.07.25,0l3.4-1.18c.56-.19.61-.1.71.19"/><path class="cls-1" d="M4.67,70.72c.07,0,.13,0,.11-.11s0-.07-.11-.07-.36-.12-.45-.58l-.17-.83,2.88-.5c.91-.16,1-.12,1.05.21,0,.07,0,.12.1.1s.08,0,.07-.15S8,68.18,8,68.05s-.07-.54-.14-.92c0-.08-.06-.14-.11-.12s-.07.06-.06.13c.08.46,0,.54-.93.7l-2.84.5-.11-.71c-.08-.52,0-.68.25-.73s.13-.07.12-.12,0-.06-.14-.06l-.67.1c-.11,0-.15.05-.14.1a2.19,2.19,0,0,1,.16.55l.46,2.62a2.52,2.52,0,0,1,0,.54c0,.06,0,.07.15.08a3.68,3.68,0,0,0,.68,0"/><path class="cls-1" d="M3.35,65.54c0-.33.08-.38.29-.4s.36,0,1.25-.08l1,0a12.09,12.09,0,0,1,1.26,0c.27,0,.31.09.32.34,0,.07,0,.13.08.12s.09,0,.09-.15-.06-.62-.07-.75,0-.53,0-.92c0-.1,0-.15-.1-.14s-.08.06-.07.13c0,.33,0,.49-.25.52s-.71.06-1.28.09l-1,0-1.24,0c-.26,0-.33-.09-.34-.35,0-.06,0-.13-.1-.13s-.07.06-.06.17,0,.57.05.72,0,.54,0,.77,0,.17.09.17.08-.08.08-.13"/><path class="cls-1" d="M3.18,62.07s.07,0,.08-.13c0-.41.1-.46.7-.42l2.63.18c.81.06.84.14.82.44,0,.07,0,.12.07.13s.09,0,.09-.15,0-.6,0-.75,0-.52.08-.9c0-.11,0-.16-.08-.16s-.08,0-.08.11c0,.44,0,.54-.9.48l-.93-.06a0,0,0,0,1,0-.05c0-.1,0-.7.08-.84a.32.32,0,0,1,.39-.28c.05,0,.11,0,.11-.07s-.06-.1-.13-.1a5.72,5.72,0,0,1-.79-.13s-.08,0-.08.06.16.1.14.37l0,1,0,0-1.7-.12s0,0,0,0l.08-.89a.37.37,0,0,1,.18-.35.41.41,0,0,1,.22,0c.08,0,.12,0,.13-.08s0-.08-.11-.09l-.47-.07-.22,0h0c-.06,0-.1,0-.1.06a.14.14,0,0,0,0,.07v0a1,1,0,0,1,0,.25c0,.14-.08,1.34-.1,1.57s-.06.54-.08.84c0,.12,0,.17.08.18"/><path class="cls-1" d="M3.7,57.52c.06-.32.16-.35.38-.32s.35.06,1.23.22l1,.19a12.64,12.64,0,0,1,1.24.27c.25.07.28.17.23.4,0,.08,0,.13,0,.14s.1,0,.12-.13.09-.61.11-.74.13-.52.2-.9c0-.1,0-.15-.07-.16s-.08,0-.1.1c-.06.33-.13.49-.36.46s-.71-.11-1.27-.22l-1-.19c-.87-.17-1-.19-1.2-.24S4,56.24,4,56c0-.06,0-.13-.07-.15s-.08.05-.1.15-.09.56-.12.71-.12.53-.16.75,0,.18,0,.19.1-.05.11-.11"/><path class="cls-1" d="M6.28,54.67c1.58.56,2.71-.46,3.19-1.86a3.7,3.7,0,0,0,.23-1.06.26.26,0,0,0-.12-.22,6.2,6.2,0,0,0-.71-.39c-.06,0-.12,0-.13,0s0,.08.09.15c.41.29.51.61.24,1.41a1.82,1.82,0,0,1-2.55,1.07c-1-.39-1.58-1.09-1.21-2.15.22-.66.7-1.24,1.29-1,.1,0,.16,0,.18,0s0-.1-.12-.14-.41-.16-.59-.23l-.3-.13s-.09,0-.13.08A11.94,11.94,0,0,0,5,51.47a2.36,2.36,0,0,0,1.27,3.2"/><path class="cls-1" d="M6.55,48.44c.15-.29.25-.28.46-.2l1.11.55.92.47c.5.26.92.47,1.12.6s.21.24.1.45,0,.12,0,.15.1,0,.15-.09l.32-.68c.07-.14.26-.47.44-.81,0-.09,0-.15,0-.17s-.1,0-.12.07c-.16.3-.26.43-.48.33s-.65-.3-1.16-.56l-.92-.47c-.79-.4-.94-.47-1.09-.56s-.25-.24-.12-.48c0,0,0-.12,0-.16s-.09,0-.13.11-.25.52-.32.65-.26.48-.36.68,0,.17,0,.2.11,0,.13-.08"/><path class="cls-1" d="M11.3,47.23c.24.37.25.54,0,.84,0,0,0,.09,0,.12s.09,0,.15-.07l.39-.58c.1-.15.27-.35.37-.51s.06-.11,0-.15-.08,0-.17.1-.18.16-.25.11a1.41,1.41,0,0,1-.24-.27l-.35-.54a.16.16,0,0,1,0-.07L12.08,45l0,0,1.06.25c.05,0-.09.28-.1.31s0,.1,0,.13.13,0,.21-.13.26-.41.36-.55.26-.33.34-.45.14-.28.1-.3-.08,0-.12,0c-.16.23-.52.18-.86.11-.95-.19-3.45-.77-3.8-.84-.17,0-.23,0-.27,0s0,.14.1.31Zm.45-2.32-.73,1-1-1.46h0Z"/><path class="cls-1" d="M13.62,38.54c.3-.26.4-.25.79.22l1.12,1.34a1.68,1.68,0,0,0,2.71.32c1-.87.85-1.84,0-2.86l-1-1.16c-.38-.46-.44-.53-.16-.77.08-.06.09-.11.05-.15s-.08,0-.17,0-.34.31-.5.44-.31.23-.54.42-.1.13-.07.16.09,0,.16,0c.33-.28.41-.21.78.24l1,1.24c.74.92.91,1.5.24,2.06s-1.36.2-2-.51L15,38.24c-.37-.45-.38-.56-.13-.76.06,0,.07-.1,0-.15s-.1,0-.18,0-.37.34-.55.49-.43.33-.68.54c-.08.07-.1.12-.06.16s.08,0,.15,0"/><path class="cls-1" d="M20.79,37.4c.27.52.19.59-.08.73-.07,0-.1.08-.07.12s.09.06.18,0c.27-.14.5-.29.55-.32l.66-.34c.08-.05.12-.11.09-.16s-.06,0-.14,0c-.31.18-.49.17-.78-.33L20,35l4.27,1.25a.34.34,0,0,0,.26,0c.06,0,.06-.11,0-.23L22.8,32.77c-.17-.33-.18-.46.08-.6.09-.05.11-.09.09-.13s-.1,0-.19,0l-.5.3c-.11.07-.37.18-.63.33-.11.06-.16.12-.13.16s.09.05.15,0c.35-.19.46-.15.68.24l1.31,2.24L19.43,34a.6.6,0,0,0-.35,0c-.07,0,0,.12,0,.24Z"/><path class="cls-1" d="M24.69,31.54c.31-.11.38,0,.47.16s.13.33.44,1.17l.35,1c.2.53.35,1,.41,1.2s0,.32-.23.4c-.07,0-.12.06-.1.11s.08.07.17,0l.7-.28.87-.29c.1,0,.13-.09.11-.14s-.08-.05-.14,0c-.32.11-.48.13-.58-.09s-.26-.66-.46-1.19l-.35-1c-.31-.84-.37-1-.42-1.17s0-.34.24-.43c0,0,.11-.06.09-.13s-.08-.05-.18,0l-.67.26-.73.25c-.11,0-.15.09-.14.13s.1.06.15,0"/><path class="cls-1" d="M27.47,30.47a.63.63,0,0,1,.74.32l2.29,3.29q.15.22.24.21c.08,0,.13-.11.17-.35l.8-3.78c.1-.48.17-.63.45-.69.08,0,.12,0,.11-.1s-.07-.08-.17-.06-.32.1-.54.14-.33.05-.62.11c-.13,0-.19.07-.17.14s.07.05.14,0,.29,0,.3.05a.49.49,0,0,1,0,.21l-.52,3.06-1.54-2.35a2.53,2.53,0,0,1-.22-.41c0-.13.13-.16.23-.19s.11,0,.1-.1-.1-.07-.18-.05l-.71.18c-.21,0-.54.09-.85.16-.11,0-.18.07-.17.12a.09.09,0,0,0,.12,0"/><path class="cls-1" d="M33.52,29.35c.33,0,.46,0,.47.29s0,.35.09,1.24l.06,1c0,.31,0,.6,0,.84,0,.66,0,.73-.33.75-.07,0-.12,0-.11.08s0,.08.14.08l.74-.06c.64,0,1.22-.05,1.79-.09.13,0,.17,0,.2-.18s0-.53,0-.66,0-.14-.09-.13-.08.05-.09.12c0,.24-.08.34-.22.42a2.72,2.72,0,0,1-.74.12c-.43,0-.48,0-.51-.39,0-.17,0-.69-.08-1.35l0,0,.81,0c.27,0,.34.21.35.39s0,.09.09.08.08-.08.07-.15c0-.31,0-.74,0-.82a.06.06,0,0,0-.07-.07s-.07.06-.14.12a1,1,0,0,1-.51.14l-.63,0s0,0-.05,0l-.1-1.58a0,0,0,0,1,0,0c1.14-.07,1.19,0,1.26.34,0,.05,0,.11.08.11a.1.1,0,0,0,.09-.11,5.72,5.72,0,0,1,0-.76c0-.05,0-.09-.07-.09a.92.92,0,0,1-.35.09l-1.47.09-.86,0c-.11,0-.16,0-.15.1s0,.07.14.07"/><path class="cls-1" d="M38,33.49c.23,0,.6,0,.72.06l.87.09c.1,0,.14,0,.15-.07s0-.08-.09-.09c-.47,0-.51-.16-.46-.78l.09-.91v0l.53.07a.1.1,0,0,1,.09.05c.2.28.34.57.5.84.41.68.72,1.05,1.37,1.1l.57.06c.09,0,.14,0,.15-.08s0-.08-.1-.08c-.46,0-.85-.36-1.89-2.11a1.58,1.58,0,0,0,.88-1.22c.07-.84-.66-1.16-1.42-1.22l-.83-.06L38.31,29c-.11,0-.16,0-.16.07s0,.09.11.09c.46,0,.47.14.42.67l-.26,2.79c-.05.57-.1.71-.44.68-.07,0-.13,0-.13.07s0,.09.14.09m1.48-3.94s0-.08.34-.05a.91.91,0,0,1,.78,1.12c-.05.53-.29.92-.82.88-.33,0-.47-.09-.46-.19Z"/><path class="cls-1" d="M43.83,34.38a1.39,1.39,0,0,0,1.79-.9c.33-1.34-1.36-1.95-1.15-2.8a.6.6,0,0,1,.79-.41.73.73,0,0,1,.6.81c0,.06,0,.14.06.15s.1,0,.14-.17c.11-.46.16-.61.18-.68s0-.07-.05-.11a2.65,2.65,0,0,0-.78-.3,1.22,1.22,0,0,0-1.62.79c-.32,1.29,1.34,1.86,1.1,2.87a.69.69,0,0,1-.9.44.83.83,0,0,1-.65-1c0-.06,0-.13-.06-.15s-.11,0-.14.15l-.22.8c-.05.17.33.41.91.55"/><path class="cls-1" d="M46.61,35.09l.71.24.85.35c.1,0,.16,0,.18,0s0-.09-.09-.12c-.31-.11-.46-.21-.39-.43s.23-.68.43-1.22l.36-1c.31-.83.36-1,.44-1.15s.21-.27.46-.17c0,0,.12,0,.15,0s0-.08-.12-.12l-.69-.24-.71-.28c-.12,0-.18,0-.19,0s0,.11.08.13c.31.11.32.22.26.43s-.12.33-.42,1.17l-.37,1a11.33,11.33,0,0,1-.47,1.17c-.11.24-.21.24-.44.16-.06,0-.12,0-.14,0s0,.11.11.14"/><path class="cls-1" d="M49.47,36s0,.1.09.15l.66.35c.25.14.68.46,1.06.67,1.3.74,2.7.63,3.47-.74s0-2.5-1.53-3.36c-.31-.18-.65-.35-.81-.44l-.72-.43c-.11-.06-.16-.06-.19,0s0,.09.08.13c.28.16.36.3.23.51s-.16.31-.59,1.09l-.51.9c-.71,1.28-.8,1.34-1,1.21s-.18-.09-.21,0m1.68-.32,1.34-2.38c.09-.16.13-.2.49,0a2,2,0,0,1,1,2.85,1.59,1.59,0,0,1-2.51.71c-.67-.37-.64-.52-.27-1.19"/><path class="cls-1" d="M54.2,38.69s-.09-.06-.12,0,0,.09.05.16l.55.43.47.42c.06,0,.11.07.15,0s0-.08-.08-.17-.14-.2-.09-.27a1.4,1.4,0,0,1,.29-.22l.58-.3a.07.07,0,0,1,.06,0l1.09.93s0,0,0,.05l-.34,1c0,.05-.27-.12-.3-.13s-.1-.05-.13,0,0,.12.11.21.39.29.52.41l.42.38c.19.16.26.16.29.12s0-.08,0-.13c-.22-.18-.14-.53,0-.86.28-.93,1.08-3.37,1.17-3.71,0-.17,0-.23,0-.28s-.14,0-.32.08L55,38.71c-.39.21-.56.21-.84,0m3.7-1h0v0l-.6,1.68-1-.81Z"/><path class="cls-1" d="M58.58,42.45c-.09-.1-.14-.14-.19-.1s0,.09,0,.17l.48.56c.19.23.48.69.75,1,.94,1.15,2.3,1.57,3.51.57s.92-2.33-.21-3.7c-.23-.27-.48-.55-.59-.69s-.33-.44-.53-.67-.13-.11-.17-.08,0,.08,0,.16c.2.25.22.4,0,.55s-.26.24-.95.8L60,41.7c-1.14.94-1.24.95-1.4.75m1.49.21,2.11-1.73c.14-.12.19-.14.45.18a2,2,0,0,1-.14,3,1.59,1.59,0,0,1-2.6-.24c-.49-.59-.41-.72.18-1.21"/><path class="cls-1" d="M64.83,52.73a.26.26,0,0,0,.24.09,6.12,6.12,0,0,0,.78-.2c.06,0,.09-.07.07-.12s0-.06-.16,0c-.51.06-.8-.11-1.14-.88a1.83,1.83,0,0,1,1.16-2.52c1-.4,1.89-.26,2.35.77.27.63.31,1.39-.25,1.64-.1,0-.14.09-.11.15s.09.06.18,0,.41-.16.6-.23l.3-.1c.05,0,.07-.07,0-.15a8.83,8.83,0,0,0-.42-1.39,2.35,2.35,0,0,0-3.1-1.5c-1.55.66-1.69,2.17-1.09,3.53a3.36,3.36,0,0,0,.55.93"/><path class="cls-1" d="M65.29,53.55s0-.09-.1-.07-.08.06,0,.15c.07.3.16.61.18.68s.09.44.14.62,0,.12.11.1.06-.06,0-.2,0-.24.09-.26a1.46,1.46,0,0,1,.37,0l.63.09a.08.08,0,0,1,0,.05l.33,1.39a.06.06,0,0,1,0,.06l-.88.62c-.05,0-.15-.25-.16-.28s0-.1-.1-.08-.08.1,0,.24.14.46.18.63.07.41.11.56.11.28.16.27.06,0,0-.12c-.07-.28.2-.51.49-.72.76-.59,2.85-2.08,3.13-2.29s.18-.16.17-.22-.1-.1-.3-.13L66,54.07c-.44-.06-.58-.17-.66-.52m3.58,1.37h0l-1.48,1-.29-1.21Z"/><path class="cls-1" d="M70,58.14c-.06,0-.12,0-.12.1a.12.12,0,0,0,.11.09c.21,0,.35.15.4.61l.1.84L67.59,60c-.92.08-1,0-1-.29,0-.08,0-.13-.09-.11s-.08,0-.07.14.07.62.08.75,0,.54.07.93c0,.08,0,.14.1.13s.07-.06.06-.13c0-.47,0-.53,1-.62l2.88-.24,0,.71c0,.53-.06.67-.31.71-.1,0-.13.05-.13.1s0,.07.13.07l.68,0c.12,0,.16,0,.15-.09A2.78,2.78,0,0,1,71,61.5l-.23-2.66a2.42,2.42,0,0,1,.06-.54s0-.07-.14-.09a5.11,5.11,0,0,0-.69-.07"/><path class="cls-1" d="M71.72,66.84s-.5-.88-.71-1.22a2.32,2.32,0,0,0-4.63-.1,2.36,2.36,0,0,0,2.21,2.69A2.15,2.15,0,0,0,71,66.06l.29,1.07a.11.11,0,0,0,.17.09,2.15,2.15,0,0,0,.23-.14c.06,0,.1-.12,0-.24m-1-1.06c-.09,1-.93,1.64-2.25,1.53-1.66-.15-1.77-1.1-1.73-1.5A1.9,1.9,0,0,1,69,64.21c1.43.12,1.73.91,1.67,1.57"/><path class="cls-1" d="M70.13,70.26c-.1.41-.19.39-.86.22L67,69.9c-.92-.24-1-.29-.94-.65,0-.07,0-.13,0-.13s-.1,0-.13.12-.13.59-.17.72c-.11.47-.25.84-.47,1.67-.07.3-.06.36.07.43a4.69,4.69,0,0,0,.72.28c.09,0,.13,0,.14,0s0-.1-.09-.12c-.37-.17-.5-.33-.34-.94s.27-.76,1-.56l2.23.57c.73.19.74.25.64.62,0,.09,0,.14.05.15s.09,0,.11-.13.16-.65.19-.78.16-.51.22-.79c0-.1,0-.15,0-.17s-.09,0-.12.11"/><path class="cls-1" d="M68.72,74.94c-.12.31-.22.31-.44.24s-.33-.13-1.15-.45l-1-.39A12.19,12.19,0,0,1,65,73.83c-.23-.12-.23-.21-.14-.44,0-.06,0-.12,0-.14s-.1,0-.14.1-.21.58-.26.7-.22.49-.37.85c0,.09,0,.15,0,.17s.1,0,.12-.08c.12-.31.22-.45.45-.38s.67.25,1.19.47l1,.38c.82.34,1,.39,1.14.48s.26.21.16.46c0,0,0,.12,0,.15s.09,0,.13-.12l.25-.67.31-.71c0-.11,0-.17,0-.19s-.11,0-.13.08"/><path class="cls-1" d="M65.64,77.23c-1.44-.87-2.75-.09-3.49,1.19a3.47,3.47,0,0,0-.44,1,.25.25,0,0,0,.08.25,4.59,4.59,0,0,0,.62.52c.05,0,.1,0,.13,0s0-.08-.06-.16c-.35-.37-.38-.71.05-1.43A1.82,1.82,0,0,1,65.24,78c.93.6,1.33,1.38.76,2.36-.35.59-.93,1.07-1.47.76-.09,0-.16,0-.19,0s0,.1.09.16l.54.34.26.19s.09,0,.14,0a9.85,9.85,0,0,0,.89-1.17,2.34,2.34,0,0,0-.62-3.38"/><path class="cls-1" d="M61.3,81.09c-.21-.39-.21-.56,0-.84,0,0,.06-.09,0-.12s-.09,0-.15.05-.4.49-.44.54-.3.33-.42.48-.07.1,0,.15.09,0,.18-.09.2-.14.27-.08a1.2,1.2,0,0,1,.21.29l.3.57a0,0,0,0,1,0,.07l-.93,1.09s0,0-.05,0l-1-.35c-.05,0,.12-.27.13-.3s.05-.09,0-.13-.13,0-.22.11-.29.39-.41.52l-.38.42c-.16.19-.17.26-.13.29s.08,0,.13,0,.53-.13.87,0c.93.27,3.37,1.08,3.71,1.19.16,0,.22,0,.27,0s0-.14-.07-.32Zm1,2.88h0l-1.68-.61.81-1L62.33,84h0"/><path class="cls-1" d="M21.5,88.2c-.3-.18-.64-.35-.79-.45s-.46-.3-.72-.45c-.1-.06-.16-.06-.19,0s0,.09.08.15c.27.16.35.29.23.51L19.48,89l-.53.88c-.75,1.26-.83,1.31-1.06,1.18s-.18-.09-.22,0,0,.09.09.15l.65.36c.25.15.67.49,1,.71,1.28.77,2.69.7,3.49-.65s.08-2.5-1.44-3.41m.63,3.12A1.59,1.59,0,0,1,19.6,92c-.65-.39-.63-.54-.23-1.2l1.39-2.34c.1-.16.14-.19.49,0a2,2,0,0,1,.88,2.88"/><path class="cls-1" d="M27.78,91.17l-1.39-.51-.8-.32q-.15,0-.18,0s0,.09.1.12c.31.11.4.23.32.46s-.12.33-.42,1.16l-.36,1c-.11.29-.22.56-.3.78-.23.62-.29.66-.6.55-.07,0-.12,0-.14,0s0,.09.1.13l.71.24c.59.22,1.12.45,1.67.65.11,0,.17,0,.25-.09a4,4,0,0,0,.29-.59c0-.07,0-.13,0-.15s-.09,0-.13.07c-.12.21-.21.28-.37.3a3,3,0,0,1-.73-.19c-.39-.15-.44-.18-.3-.56L26,93l0,0,.75.3c.26.09.23.33.17.5a.07.07,0,0,0,.05.1c.07,0,.1,0,.12-.1.12-.29.33-.67.36-.74a.08.08,0,0,0,0-.1s-.09,0-.18,0a1,1,0,0,1-.52-.07l-.59-.23s0,0,0-.05l.55-1.48s0,0,0,0c1.07.4,1.1.44,1,.82,0,0,0,.11,0,.13a.09.09,0,0,0,.12,0,6.39,6.39,0,0,1,.33-.7s0-.08,0-.1a1.11,1.11,0,0,1-.35-.06"/><path class="cls-1" d="M36.09,92.76a11.45,11.45,0,0,0-1.42-.31,2.34,2.34,0,0,0-2.82,2c-.19,1.66,1.06,2.53,2.54,2.68a4.21,4.21,0,0,0,1.08,0,.29.29,0,0,0,.19-.18,5.82,5.82,0,0,0,.21-.77c0-.07,0-.12-.07-.12s-.08,0-.12.12c-.19.47-.48.64-1.32.56a1.81,1.81,0,0,1-1.62-2.24c.14-1.09.69-1.78,1.81-1.67.69.07,1.37.4,1.31,1,0,.1,0,.16.08.17s.09,0,.11-.15.06-.44.09-.63a3.1,3.1,0,0,1,.06-.32c0-.06,0-.09-.11-.11"/><path class="cls-1" d="M43.28,96.48c-.34,0-.48,0-.54-.25s-.11-.72-.17-1.25l-.11-1c-.1-.87-.12-1-.12-1.23s.06-.33.32-.36c.1,0,.13,0,.13-.09s-.06-.08-.16-.07-.6.08-.74.1-.54,0-.86.08c-.1,0-.15,0-.14.09s0,.08.14.07c.29,0,.45,0,.49.27s0,.35.15,1.23l0,.26a0,0,0,0,1,0,0l-2.23.24a0,0,0,0,1,0,0l0-.25c-.1-.88-.12-1-.12-1.23s.06-.33.31-.36.14,0,.14-.1-.06-.07-.17-.07-.59.09-.73.1-.55,0-.86.08c-.11,0-.15.05-.15.1s.06.08.15.07c.31,0,.44,0,.48.26s0,.35.15,1.24l.12,1c.05.54.1,1,.1,1.24s0,.33-.32.36c-.07,0-.12,0-.12.09s.06.08.16.07.6-.08.74-.1L40.2,97c.1,0,.15,0,.14-.11s-.06-.07-.12-.06c-.34,0-.48,0-.55-.25s-.1-.71-.16-1.24l0-.36s0,0,0,0l2.23-.25h0l.05.37c0,.53.1,1,.1,1.24s0,.32-.32.36c-.07,0-.12,0-.11.09s0,.08.16.07l.74-.11c.16,0,.53,0,.92-.07.1,0,.14-.06.13-.1s-.06-.08-.12-.07"/><path class="cls-1" d="M47.52,95.32c-.32.09-.48.1-.57-.12s-.22-.68-.38-1.22l-.29-1c-.26-.85-.31-1-.35-1.19s0-.33.27-.41c0,0,.11,0,.09-.12s-.07-.06-.17,0l-.69.22-.74.2c-.12,0-.16.08-.15.13s.1.06.15,0c.31-.1.38,0,.46.19s.11.34.36,1.18l.3,1c.15.55.29,1,.32,1.23s0,.32-.25.38c-.07,0-.12.06-.1.11s.07.08.17,0l.71-.24c.15,0,.52-.13.89-.24.09,0,.13-.08.11-.13s-.08-.06-.14,0"/><path class="cls-1" d="M52.4,92.5c0-.08-.07-.11-.12-.08s-.05.1,0,.14c.11.4.06.6-.51.86s-.76.28-1.1-.46l-1-2.1c-.31-.68-.27-.72.08-.88.08,0,.11-.08.08-.13s-.07-.06-.17,0l-.72.35c-.15.06-.5.19-.75.32-.1,0-.13.09-.11.14s.06,0,.15,0c.39-.17.43-.09.71.53l1,2.1c.4.87.42,1,.09,1.14-.07,0-.11.07-.08.12s.07.06.17,0l.67-.32c.44-.2.81-.33,1.59-.69.28-.12.32-.18.29-.32a5.56,5.56,0,0,0-.23-.74"/><path class="cls-1" d="M56.68,90c0-.07-.08-.11-.14-.07s0,.08,0,.15a.47.47,0,0,1,0,.47A3.35,3.35,0,0,1,56,91c-.35.23-.41.25-.63-.09-.1-.14-.38-.57-.75-1.13,0,0,0,0,0,0s.6-.37.69-.44.4,0,.5.16a.07.07,0,0,0,.11,0c.07,0,0-.11,0-.16-.18-.27-.35-.66-.4-.72a.07.07,0,0,0-.1,0s0,.08-.06.17a1.12,1.12,0,0,1-.37.38l-.53.34s0,0-.06,0l-.87-1.31s0,0,0,0c1-.64,1-.63,1.27-.33,0,0,.06.08.12,0a.09.09,0,0,0,0-.13,3.92,3.92,0,0,1-.36-.67s-.06-.07-.1,0a1.28,1.28,0,0,1-.26.24L53,88l-.72.46c-.09.07-.12.12-.09.16s.08,0,.16,0c.27-.18.42-.18.56,0l.68,1,.58.86c.17.26.32.51.45.7.37.56.36.64.09.82-.07,0-.09.08-.06.13s.08,0,.17,0l.61-.43c.53-.34,1-.63,1.51-1a.2.2,0,0,0,.08-.26,6.54,6.54,0,0,0-.3-.59"/></svg>