<?xml version="1.0" encoding="utf-8"?>
<!-- Generator: Adobe Illustrator 22.1.0, SVG Export Plug-In . SVG Version: 6.00 Build 0)  -->
<svg version="1.1" id="Capa_1" xmlns="http://www.w3.org/2000/svg" xmlns:xlink="http://www.w3.org/1999/xlink" x="0px" y="0px"
	 viewBox="0 0 1 1.3" style="enable-background:new 0 0 1 1.3;" xml:space="preserve">
<style type="text/css">
	.st0{fill:#FFFFFF;}
	.st1{fill:#4470B4;}
</style>
<g>
	<ellipse class="st0" cx="0.5" cy="0.5" rx="0.4" ry="0.4"/>
	<g>
		<g>
			<path class="st1" d="M0.5,0C0.2,0,0,0.2,0,0.5c0,0.1,0,0.2,0.1,0.3l0.4,0.5l0.4-0.5C1,0.7,1,0.6,1,0.5C1,0.2,0.8,0,0.5,0z
				 M0.5,0.8c-0.2,0-0.3-0.1-0.3-0.3c0-0.2,0.1-0.3,0.3-0.3c0.2,0,0.3,0.1,0.3,0.3C0.8,0.7,0.7,0.8,0.5,0.8z"/>
		</g>
		<g>
			<rect x="0.3" y="0.3" class="st1" width="0.1" height="0.1"/>
			<rect x="0.3" y="0.4" class="st1" width="0.1" height="0.3"/>
			<rect x="0.4" y="0.6" class="st1" width="0.1" height="0.1"/>
			<rect x="0.4" y="0.4" class="st1" width="0.1" height="0.1"/>
			<rect x="0.6" y="0.4" class="st1" width="0.1" height="0.1"/>
			<rect x="0.6" y="0.5" class="st1" width="0.1" height="0.2"/>
		</g>
	</g>
</g>
</svg>
