<svg version="1" xmlns="http://www.w3.org/2000/svg" width="1896" height="1896" viewBox="0 0 1422.000000 1422.000000"><path d="M.9 128.9c-.7 3.3-.2 296.4.5 296.9 1.2.7 358.5.7 359.2-.1.4-.4.9-288.2.5-296.3-.1-1.1-360-1.6-360.2-.5zM1060.9 337.8c-.1.4-.2 67.4-.3 148.9-.1 98.4.2 148.3.9 148.4 3.3.4 359.5.3 359.5-.1.1-.8.1-294.3.1-296.2-.1-1.6-12.1-1.7-180.1-1.6-99 0-180.1.3-180.1.6zM.6 916.2c.1 207.5.2 377.5.3 377.8 0 .3 81.1.5 180.2.5h180.1V921c-.1-205.4-.1-375.4-.1-377.8l-.1-4.2H.5l.1 377.2zM538.9 545.2v335.4l.1 3.1 180.3-.1 180.2-.1V539H539l-.1 6.2zM1060.6 748.9c-.2.6 0 544.1.3 545.1 0 .3 81.1.5 180.1.5h180l.1-5V751.9l-.1-3.6h-180c-99.1 0-180.2.3-180.4.6zM538.9 1003.5c-.1 9.7-.1 279.8 0 286l.1 5h180c99 0 180.1-.2 180.1-.5.4-1.6.3-297-.1-297.1-.3-.1-81.4-.2-180.2-.3l-179.8-.1-.1 7z"/></svg>