<?xml version="1.0" encoding="utf-8"?>
<!-- Generator: Adobe Illustrator 22.0.1, SVG Export Plug-In . SVG Version: 6.00 Build 0)  -->
<svg version="1.1" id="Capa_1" xmlns="http://www.w3.org/2000/svg" xmlns:xlink="http://www.w3.org/1999/xlink" x="0px" y="0px"
	 viewBox="0 0 327.7 277.8" style="enable-background:new 0 0 327.7 277.8;" xml:space="preserve">
<style type="text/css">
	.st0{fill:#6E6E6E;}
</style>
<g>
	<path class="st0" d="M327.7,102c-0.8,4.9-1.1,10-2.4,14.7c-2.2,7.9-5.2,15.5-7.7,23.3c-0.6,2-1.9,2.4-3.8,2.4
		c-15.9,0.1-31.8,0.3-47.7,0.4c-21.5,0.2-43.1,0.2-64.6,0.5c-2.4,0-3.6-0.8-4.7-2.8c-3.1-5.8-6.5-11.5-9.7-17.3
		c-2-3.6-4.7-5.8-8.9-5.4c-4.3,0.4-6.4,3.3-7.6,7.2c-2.5,8.1-5.1,16.2-8.3,24.4c-0.7-4.3-1.4-8.5-2.1-12.8
		c-3.7-23.8-7.4-47.6-11.1-71.4c-1.1-6.9-5.6-10.4-11.1-8.7c-3.7,1.1-5.3,4-6.1,7.5c-5.1,24.2-10.2,48.3-15.4,72.5
		c-0.3,1.2-0.6,2.5-0.9,4.1c-1.2,0-2.3,0-3.5,0c-32.8,0-65.7,0-98.5,0.1c-2.4,0-3.6-0.6-4.5-2.9c-4.6-10.5-7.5-21.5-8.4-33
		c-0.1-0.9-0.4-1.8-0.6-2.8c0-5.1,0-10.2,0-15.4c0.2-0.6,0.5-1.2,0.5-1.8c0.6-9.4,2.7-18.5,5.8-27.4c5-13.7,12.3-26,23.3-35.8
		C50.9,2.8,76.1-2.8,103.5,1.3c24.1,3.6,42.7,16.8,57.4,35.8c0.9,1.2,1.9,2.5,3,3.9c1.2-1.6,2-2.8,2.9-3.9
		c23.3-29.9,53.7-42.1,91-35.2c35.9,6.6,58.6,32.7,66.7,66.6c1.4,6,2.1,12.1,3.2,18.2C327.7,91.7,327.7,96.8,327.7,102z"/>
	<path class="st0" d="M20.6,157.3c2,0,3.3,0,4.5,0c31.4,0,62.7,0,94.1,0c8.1,0,10.4-1.8,12-9.7c2.3-11.2,4.7-22.3,7.1-33.4
		c0.1-0.6,0.4-1.2,0.9-2.6c1.7,10.6,3.2,20.3,4.8,30c2.4,15.4,4.8,30.7,7.2,46.1c0.8,4.9,3.7,7.9,7.9,8.3c4,0.4,7.5-2.3,9-7.1
		c4.1-13,8.2-26,12.3-39c0.2-0.7,0.5-1.4,1-2.7c1.4,2.5,2.7,4.5,3.7,6.6c2.2,4.6,5.7,6.4,10.8,6.4c35.2-0.4,70.4-0.6,105.6-0.9
		c1.1,0,2.3,0,4.3,0c-3.4,3.9-6.1,7.3-9.1,10.5c-13.9,14.8-30.3,26.5-47.5,37.1c-13.5,8.4-27.3,16.3-40.5,25
		c-13,8.5-24.4,19-34,31.3c-2.8,3.6-4.4,8-6.9,11.8c-0.8,1.3-2.5,2.8-3.9,2.9c-1.2,0.1-3.3-1.4-3.7-2.6c-3.2-8.8-9.3-15.5-15.6-22
		c-10.8-11-22.9-20.4-36.1-28.4c-16.9-10.3-33.8-20.7-50.2-31.8C44.6,184,32.7,172.9,22.7,160C22.2,159.3,21.7,158.7,20.6,157.3z"/>
</g>
</svg>
