<?xml version="1.0" encoding="iso-8859-1"?>
<!-- Generator: Adobe Illustrator 22.0.1, SVG Export Plug-In . SVG Version: 6.00 Build 0)  -->
<svg version="1.1" id="Capa_1" xmlns="http://www.w3.org/2000/svg" xmlns:xlink="http://www.w3.org/1999/xlink" x="0px" y="0px"
	 viewBox="0 0 283.5 283.5" style="enable-background:new 0 0 283.5 283.5;" xml:space="preserve">
<g>
	<path d="M141.75,272.424c-72.17,0-130.675-58.504-130.675-130.674c0-72.17,58.505-130.675,130.675-130.675
		c72.17,0,130.675,58.505,130.675,130.675C272.425,213.92,213.92,272.424,141.75,272.424L141.75,272.424z M141.75,0
		C63.464,0,0,63.463,0,141.75C0,220.036,63.464,283.5,141.75,283.5c78.286,0,141.75-63.464,141.75-141.75
		C283.5,63.463,220.036,0,141.75,0L141.75,0z"/>
	<polygon style="fill:#C8002D;" points="196.534,190.213 185.822,200.925 79.779,94.882 90.491,84.17 196.534,190.213 	"/>
	<polygon style="fill:none;stroke:#000000;stroke-width:4;stroke-miterlimit:10;" points="196.534,190.213 185.822,200.925 
		79.779,94.882 90.491,84.17 196.534,190.213 	"/>
	<polygon style="fill:#C8002D;" points="185.822,84.17 196.534,94.882 90.491,200.925 79.779,190.213 185.822,84.17 	"/>
	<polygon style="fill:none;stroke:#000000;stroke-width:4;stroke-miterlimit:10;" points="185.822,84.17 196.534,94.882 
		90.491,200.925 79.779,190.213 185.822,84.17 	"/>
</g>
<g>
</g>
<g>
</g>
<g>
</g>
<g>
</g>
<g>
</g>
<g>
</g>
<g>
</g>
<g>
</g>
<g>
</g>
<g>
</g>
<g>
</g>
<g>
</g>
<g>
</g>
<g>
</g>
<g>
</g>
</svg>
