<?xml version="1.0" encoding="iso-8859-1"?>
<!-- Generator: Adobe Illustrator 22.0.1, SVG Export Plug-In . SVG Version: 6.00 Build 0)  -->
<svg version="1.1" id="Capa_1" xmlns="http://www.w3.org/2000/svg" xmlns:xlink="http://www.w3.org/1999/xlink" x="0px" y="0px"
	 viewBox="0 0 283.591 283.591" style="enable-background:new 0 0 283.591 283.591;" xml:space="preserve">
<g>
	<polygon style="fill:#A8D42E;" points="191.977,61.952 178.993,72.431 178.993,196.648 198.811,197.431 198.811,58.308 
		191.977,61.952 	"/>
	<path d="M197.636,195.643h-17.121V73.472l16.702-12.658L197.636,195.643L197.636,195.643z M200.447,53.005
		c-1.643-0.752-3.575-0.483-4.959,0.687l-18.572,15.879c-1.031,0.882-1.625,2.173-1.625,3.529v123.413
		c0,2.563,2.08,4.643,4.643,4.643h18.572c2.563,0,4.644-2.08,4.644-4.643V57.221C203.15,55.41,202.091,53.757,200.447,53.005
		L200.447,53.005z"/>
	<polygon style="fill:#A8D42E;" points="150.202,96.377 137.218,106.856 137.218,195.679 157.036,196.462 157.036,92.733 
		150.202,96.377 	"/>
	<path d="M155.861,194.674h-17.122v-86.778l16.702-12.658L155.861,194.674L155.861,194.674z M158.672,87.43
		c-1.644-0.752-3.575-0.483-4.959,0.687l-18.572,15.879c-1.031,0.883-1.625,2.173-1.625,3.529v88.02c0,2.563,2.08,4.643,4.643,4.643
		h18.572c2.563,0,4.643-2.08,4.643-4.643V91.646C161.374,89.835,160.316,88.182,158.672,87.43L158.672,87.43z"/>
	<polygon style="fill:#A8D42E;" points="110.134,123.51 97.15,133.988 97.15,195.679 116.968,196.462 116.968,119.865 
		110.134,123.51 	"/>
	<path d="M115.793,194.674H98.671v-59.645l16.702-12.658L115.793,194.674L115.793,194.674z M118.604,114.562
		c-1.643-0.752-3.575-0.483-4.959,0.688l-18.572,15.879c-1.031,0.882-1.625,2.173-1.625,3.529v60.887
		c0,2.563,2.08,4.643,4.643,4.643h18.572c2.563,0,4.643-2.08,4.643-4.643v-76.767C121.306,116.967,120.248,115.315,118.604,114.562
		L118.604,114.562z"/>
	<polygon style="fill:#A8D42E;" points="74.282,157.563 61.298,168.042 61.298,195.242 81.116,196.025 81.116,153.919 
		74.282,157.563 	"/>
	<path d="M79.941,194.237H62.819v-25.155l16.702-12.658L79.941,194.237L79.941,194.237z M82.752,148.616
		c-1.644-0.752-3.575-0.483-4.959,0.687l-18.572,15.879c-1.031,0.882-1.625,2.173-1.625,3.529v26.397
		c0,2.563,2.08,4.643,4.643,4.643h18.572c2.563,0,4.643-2.08,4.643-4.643v-42.276C85.454,151.021,84.396,149.368,82.752,148.616
		L82.752,148.616z"/>
	<path d="M141.796,272.512c-72.193,0-130.717-58.524-130.717-130.716c0-72.193,58.524-130.717,130.717-130.717
		c72.192,0,130.716,58.524,130.716,130.717C272.512,213.988,213.988,272.512,141.796,272.512L141.796,272.512z M141.796,0
		C63.484,0,0,63.484,0,141.796c0,78.311,63.484,141.795,141.796,141.795c78.311,0,141.795-63.484,141.795-141.795
		C283.591,63.484,220.107,0,141.796,0L141.796,0z"/>
</g>
<g>
</g>
<g>
</g>
<g>
</g>
<g>
</g>
<g>
</g>
<g>
</g>
<g>
</g>
<g>
</g>
<g>
</g>
<g>
</g>
<g>
</g>
<g>
</g>
<g>
</g>
<g>
</g>
<g>
</g>
</svg>
